<svg id="Layer_1" data-name="Layer 1" xmlns="http://www.w3.org/2000/svg" viewBox="0 0 200 200"><title>Larry_</title><path d="M92.77,31.61a.42.42,0,0,0,.06.84.42.42,0,0,0,.39-.45A.43.43,0,0,0,92.77,31.61Z"/><path d="M87.27,31.76a.41.41,0,0,0-.39.44.42.42,0,0,0,.45.39.41.41,0,0,0,.38-.45A.4.4,0,0,0,87.27,31.76Z"/><path d="M85,12.7v7.09a5.63,5.63,0,0,0-1.13,1,9.69,9.69,0,0,0-2,4.74c-.16.82-.27,1.61-.37,2.34a1.75,1.75,0,0,0-2.18.27c-1.1,1-1.53,3.32-.8,4.29a2.24,2.24,0,0,0,1.84.81,4,4,0,0,0,.5,0c-.31,4-.26,7.78-.2,11.74,0,1.55,0,3.12,0,4.73a3.33,3.33,0,0,0-1,1.81c0,.14-.09.27-.13.4-1.18,0-5.85,0-8.63,1.47-3.47,1.81-17.62,12.75-21.42,19.56l-7.1,20.68v0a5.08,5.08,0,0,0-1.53,2.74,7.84,7.84,0,0,1-2.93,4.57,1.84,1.84,0,0,0-.87,2,1.23,1.23,0,0,0,1.27.81h.08a1.63,1.63,0,0,0,.09.89,1.11,1.11,0,0,0,1.06.62,2.88,2.88,0,0,0,.95-.22,1.8,1.8,0,0,0,1.45.72h0c1.27,0,2.73-1.17,3.73-2.88a1.94,1.94,0,0,0,.65.15,1.58,1.58,0,0,0,.53-.09A2,2,0,0,0,48,101.71l0-.12a8.41,8.41,0,0,0,.6-2.76,9,9,0,0,0-.3-3.5c.54-.64,2.22-3.51,9.06-16.3L69.7,69.86c-.22,4.15-1,14.9-1.54,23.65-.41,5.93-.75,11-.83,12.54a.34.34,0,0,0,.1.27.35.35,0,0,0,.26.11h.16c-.18,3.46-.53,7.63-1,12.41a13.51,13.51,0,0,1-4.3,0,.36.36,0,0,0-.42.3.36.36,0,0,0,.3.42,14.65,14.65,0,0,0,2.45.21,12.92,12.92,0,0,0,1.89-.15c-2.39,22.28-7.33,51.16-7.78,53.79a.37.37,0,0,0-.17.16L55.64,180h0l-1.07,2.05a.36.36,0,0,0,.18.5l10.47,4.71.15,0h0L78,187.2a.37.37,0,0,0,.37-.36v-1.91a.61.61,0,0,0,0-.13.42.42,0,0,0,0-.16c-.28-1.84-2.93-4.42-6.44-4.26-.71,0-1.1-.37-1.85-1.23a11.49,11.49,0,0,0-3.19-2.71C69.26,173.65,78,158.74,85,142.39V187h78V12.7Zm77.3.73v6.51h-14V15.36L100.2,20.75a1.23,1.23,0,0,0,0-1.13c-.44-.86-1.89-1.46-9.14,1.52-1.85-1.83-3.68-2.43-5.34-1.74v-6ZM92.77,23.2a17.26,17.26,0,0,0-1.19-1.49c6.77-2.75,7.8-2.05,8-1.76.06.13.22.44-.37,1C97.76,22.12,93.8,23,92.77,23.2Zm-8.39-1.95a4.9,4.9,0,0,1,1.2-1c1.43-.82,3-.4,4.73,1.2-3.08,1.3-6,2.74-7.52,3.46h0A8.33,8.33,0,0,1,84.38,21.25ZM79.12,32c-.47-.61-.16-2.5.71-3.32a1.13,1.13,0,0,1,1.69.09,5.17,5.17,0,0,1,.8.93.35.35,0,0,0,.5.1.36.36,0,0,0,.1-.51,5.29,5.29,0,0,0-.74-.89l0-.16c.1-.73.21-1.55.37-2.38l.54-.26c1.5-.74,4.6-2.25,7.76-3.57a16.43,16.43,0,0,1,1.44,1.8,24.61,24.61,0,0,1,3.37,6.91c.82,3.25-3.89,10.9-5.21,11.42a2.13,2.13,0,0,1-.45.13c-1.87.35-4.37-1.4-5.18-3.08a.37.37,0,1,0-.66.32A6.65,6.65,0,0,0,89.51,43a2.4,2.4,0,0,0,.28,0c.14.66.25,1.36.37,2.09a24,24,0,0,0,.92,4.2,26.3,26.3,0,0,0-9.63,0c0-1.51,0-3,0-4.43A119.32,119.32,0,0,1,81.62,33l.34-.14a.37.37,0,0,0,.14-.5.35.35,0,0,0-.49-.14,2.4,2.4,0,0,1-.48.19A1.9,1.9,0,0,1,79.12,32Zm60.09,58.51a.37.37,0,0,0,.5-.14c.78-1.39,1.95-1.87,3.79-1.56l.32.06c.17,0,1.55.35,1.69,1.31a2.85,2.85,0,0,0-.37-.23,4,4,0,0,0-5.38,1.61.36.36,0,0,0,.63.36,3.33,3.33,0,0,1,4.43-1.31,3.1,3.1,0,0,1,.61.37,1.79,1.79,0,0,1,.82,2,2.93,2.93,0,0,0-1.52-1.42,3,3,0,0,0-3.9,3.88A3,3,0,0,0,142,96.73a2,2,0,0,1-1.05-.06,3.77,3.77,0,0,1-1.79-2,1.26,1.26,0,0,0-.84-.72c-.48-.12-1-.28-1.56-.45a5.65,5.65,0,0,0,.76-2.55,6.77,6.77,0,0,0,0-1.7,2.41,2.41,0,0,0,.8.32.24.24,0,0,0,.12,0l.15,0,.07-.15a3.69,3.69,0,0,1,2.84-1.75,2,2,0,0,1,1.49.43,3.74,3.74,0,0,0-3.83,2A.37.37,0,0,0,139.21,90.48ZM143,96.4a1.14,1.14,0,0,1-.26-.09,2.24,2.24,0,0,1-1.21-2.94A2.24,2.24,0,0,1,143.59,92a2.16,2.16,0,0,1,.86.17A2.25,2.25,0,0,1,143,96.4ZM48,98.78a7.87,7.87,0,0,1-.55,2.55l0,.12a1.28,1.28,0,0,1-.7.73.9.9,0,0,1-.58,0,9.7,9.7,0,0,0,.81-2.58.37.37,0,0,0-.31-.42.37.37,0,0,0-.42.3,8.63,8.63,0,0,1-.9,2.72C44.39,103.79,43,104.94,42,105a1.09,1.09,0,0,1-.78-.3A7.3,7.3,0,0,0,45,99.54a.37.37,0,0,0-.28-.44.36.36,0,0,0-.43.28,6.61,6.61,0,0,1-3.56,4.72l-.22.11c-.51.23-1.15.42-1.33,0a.81.81,0,0,1,.28-.91.38.38,0,0,0,.12-.09c1.37-.87,3.12-2.87,3.38-4.25a.37.37,0,1,0-.72-.14c-.22,1.21-2,3.17-3.2,3.87a1.41,1.41,0,0,1-.64.22c-.23,0-.55,0-.63-.3a1.16,1.16,0,0,1,.59-1.14,8.61,8.61,0,0,0,3.22-4.94c.37-1.15.69-2,1.39-2.44,2.44.7,4,1.14,4.7,1.3A8.22,8.22,0,0,1,48,98.78Zm57.84,7.59c10,34.09,17,63.22,16.73,67.26-.8.3-4.57,1.28-7.1,1.91-2-4.69-20.27-38.2-25.58-45.7a100.75,100.75,0,0,0,3.9-14.26.38.38,0,0,0-.3-.42.36.36,0,0,0-.42.29,100.7,100.7,0,0,1-4,14.42c-1.16,3.35-2.53,6.92-4.08,10.63-7.27,17.35-16.67,33.43-18.81,35.59l-6.49-2.58c.44-2.56,5.43-31.69,7.81-54.06,3.63-.76,6-3,6.62-6.41a.37.37,0,1,0-.72-.14,7.19,7.19,0,0,1-5.83,5.8c.5-4.72.84-8.84,1-12.27Zm33.51,71.29.3,1.13-21.71,5.84-.3-1.14Zm-61.71,8.82-12.15.09-10-4.52.73-1.39,9.53,4.5a.4.4,0,0,0,.15,0l11.79.1Zm8.11-45.82c1.45-3.46,2.73-6.8,3.84-10,5.64,8.22,23.26,40.59,25.2,45.13h0l2,7.31h.06a.37.37,0,0,0,0,.18s0,0,0,.05l.49,1.81a.36.36,0,0,0,.35.27h.1l22.42-6a.34.34,0,0,0,.22-.17.38.38,0,0,0,0-.28l-.5-1.84a.44.44,0,0,0-.12-.18,3.53,3.53,0,0,0-1.25-2.47,4.77,4.77,0,0,0-3.69-.74,40.26,40.26,0,0,1-8.52-.1,23.37,23.37,0,0,0-3.07-.15c0-4.76-6.62-32.59-16.71-67.1h.52a.34.34,0,0,0,.26-.11.4.4,0,0,0,.1-.26c-.1-5.36-2.07-20.18-3.94-32.71,2.45,2.83,9.57,11,11.14,11.93A202,202,0,0,0,136,94c.76.24,1.47.45,2.12.62a.55.55,0,0,1,.35.3,4.36,4.36,0,0,0,2.21,2.43,2.53,2.53,0,0,0,.91.16,3.33,3.33,0,0,0,1.44-.36,2.78,2.78,0,0,0,.57.07,3,3,0,0,0,2.75-1.83,2.87,2.87,0,0,0,.2-1.58.81.81,0,0,0,.1-.09,2.22,2.22,0,0,0-.41-3h0c.29-1.6-1.29-2.36-2.26-2.56h0a.36.36,0,0,0,0-.11,2.64,2.64,0,0,0-2.55-1.19,4.57,4.57,0,0,0-3.29,1.88c-.19-.08-.54-.25-1.14-.57-3.7-1.95-13.61-7.67-16.21-10.24-.27-.27-1.4-2.16-2.7-4.34-3.85-6.44-10.29-17.22-14-19.55-2.57-1.6-9-2.06-10.46-2.14A4.47,4.47,0,0,0,92,49.7,19.35,19.35,0,0,1,90.88,45c-.11-.71-.23-1.43-.37-2.11l.23-.07c1.59-.63,6.58-8.63,5.64-12.28a24.75,24.75,0,0,0-3.16-6.67c1.38-.28,4.75-1.09,6.28-2.29l48.07-5.39v170.1H85.7Z"/><path d="M100.68,18.73a2,2,0,1,0-2-2A2,2,0,0,0,100.68,18.73Zm0-3.23a1.25,1.25,0,1,1-1.26,1.25A1.25,1.25,0,0,1,100.68,15.5Z"/><path d="M95,18.73a2,2,0,1,0-2-2A2,2,0,0,0,95,18.73Zm0-3.23a1.25,1.25,0,1,1-1.26,1.25A1.25,1.25,0,0,1,95,15.5Z"/><path d="M89.27,18.73a2,2,0,1,0-2-2A2,2,0,0,0,89.27,18.73Zm0-3.23A1.25,1.25,0,1,1,88,16.75,1.25,1.25,0,0,1,89.27,15.5Z"/><path d="M85.63,30.7a.36.36,0,0,0,.24-.09,2.39,2.39,0,0,1,2-.37.37.37,0,0,0,.3-.67,3.1,3.1,0,0,0-2.82.49.37.37,0,0,0,0,.52A.36.36,0,0,0,85.63,30.7Z"/><path d="M81.58,30a.37.37,0,0,0-.52,0,2.06,2.06,0,0,1-1.31.53h0a.37.37,0,1,0,0,.73h0a2.75,2.75,0,0,0,1.81-.73A.35.35,0,0,0,81.58,30Z"/><path d="M90.43,37.4a2,2,0,0,0,.56.09,1,1,0,0,0,.72-.26c.52-.49.4-1.45.21-2.32q-.06-.3-.15-.66c-.27-1.13-.67-2.84-.35-3.62,0-.09.15-.17.32-.24a2.46,2.46,0,0,1,1.61,0,.36.36,0,0,0,.49-.18.37.37,0,0,0-.18-.48,3.22,3.22,0,0,0-2.19,0,1.24,1.24,0,0,0-.73.64c-.41,1,0,2.7.32,4.07,0,.23.1.45.15.64.24,1.12.13,1.51,0,1.63s-.42.05-.58,0a.36.36,0,0,0-.45.24A.36.36,0,0,0,90.43,37.4Z"/><path d="M88.24,39.44a2.23,2.23,0,0,0,1.6.66,2.49,2.49,0,0,0,.47,0,1.66,1.66,0,0,0,1.26-.93.35.35,0,0,0-.2-.47.36.36,0,0,0-.48.2,1,1,0,0,1-.72.48,1.51,1.51,0,0,1-1.4-.41.37.37,0,0,0-.53.51Z"/></svg>