<svg id="Layer_1" data-name="Layer 1" xmlns="http://www.w3.org/2000/svg" viewBox="0 0 200 200"><defs><style>.cls-1{fill:none;}.cls-2{fill:#fff;}</style></defs><title>Larry_</title><path class="cls-1" d="M88.6,49.89a43,43,0,0,0,10.19-1.75c4.32-1.25,7.67-2.93,7-4.17s-4.73.13-8.81,1.84c-2.1-2.2-4.58-3.19-6.89-.61a7.49,7.49,0,0,0-1.61,4.55l0,0A.07.07,0,0,0,88.6,49.89Z"/><path d="M155.88,128.51a8.39,8.39,0,0,1,.65-.56c-2.18-1.59-20.93-15.26-27.89-19.39-7.78-4.6-16.47-5.76-37.9,1.93a.43.43,0,1,0,.29.81c21.11-7.57,29.61-6.47,37.16-2,6.68,4,24.26,16.73,27.52,19.11Z"/><path d="M151.05,135.23l-30.43-12.7a6.63,6.63,0,0,0-5.46-.29.43.43,0,0,0-.28.54.44.44,0,0,0,.55.28c2.25-.74,3.18-.38,4.94.3l30.84,12.88.13,0a.56.56,0,0,0,.43-.23l.09-.13C151.6,135.67,151.33,135.45,151.05,135.23Z"/><path class="cls-1" d="M90.39,110.75q-.31-.63-.69-1.32c-1.9-3.54-4.51-8.4-4.1-20.05h0a.44.44,0,0,1,.77-.26c.11.13,10.87,12.87,16,10.71,4.79-2,10-20.59,10.92-24l-5.3-.18c-3.85,9.43-7.69,15.63-8.57,15.63h0c-.3,0-.3,0-2.21-2.66-2.54-3.53-7.83-10.88-10-11.87-1.72-.78-7.68-1-7.74-1a.41.41,0,0,1-.31-.14.47.47,0,0,1-.11-.31,2.36,2.36,0,0,0-1.42-1.6l-.17,0a25.4,25.4,0,0,0-9.92.47,2.35,2.35,0,0,0-.93,1.44l-.12.34a.44.44,0,0,1-.41.28h0c-2,0-7.6.2-9.11,1.94l-.44.51C44.52,92.57,44.34,92.57,44,92.58s-.59,0-8-15.07l-5.2.14c.91,3.45,6.23,22.73,11.14,24.4,3.41,1.17,12.28-7.9,15.41-11.49a.41.41,0,0,1,.32-.15.54.54,0,0,1,.21,0,.44.44,0,0,1,.21.5c0,.11-2.91,10.72-.55,29.29Z"/><path d="M109.05,137a13.76,13.76,0,0,0-8.51-2c-10.09,1-23.9,2.39-30.42.45a15.13,15.13,0,0,1-7.64-5.61A29.5,29.5,0,0,1,58,121l-.66.19-.13,0,0,0a29.3,29.3,0,0,0,4.6,9.12,15.94,15.94,0,0,0,8.07,5.91c6.68,2,20.6.6,30.75-.42a12.86,12.86,0,0,1,7.93,1.87l27.06,19.66a.38.38,0,0,0,.25.08.42.42,0,0,0,.31-.13l.13-.13a9.67,9.67,0,0,0-.65-.86Z"/><path d="M118.83,125.13a20.78,20.78,0,0,0-3.33-2.78c-4.71-3.27-15-8.37-30.76-5.65a.43.43,0,0,0-.35.5.43.43,0,0,0,.5.35c15.5-2.66,25.52,2.31,30.11,5.51a21.85,21.85,0,0,1,3.2,2.65l23.2,24.74c.29-.1.58-.22.87-.34Z"/><circle cx="79.03" cy="55.29" r="0.42"/><circle cx="73.42" cy="55.2" r="0.42"/><path d="M47.78,41.37H46.1a.43.43,0,0,1-.43-.43.44.44,0,0,1,.43-.44h1.68a.44.44,0,0,1,.43.44A.43.43,0,0,1,47.78,41.37Z"/><path d="M46.1,41.37H42.32a.43.43,0,0,1-.38-.23.41.41,0,0,1,0-.44L45.74,35a.45.45,0,0,1,.49-.17.42.42,0,0,1,.3.41v5.68A.43.43,0,0,1,46.1,41.37Zm-3-.87h2.54V36.69Z"/><path d="M46.1,44.72a.43.43,0,0,1-.43-.43V40.94a.43.43,0,1,1,.86,0v3.35A.43.43,0,0,1,46.1,44.72Z"/><path d="M59.59,41.38H57.91a.44.44,0,0,1-.43-.44.43.43,0,0,1,.43-.43h1.68a.43.43,0,0,1,.43.43A.44.44,0,0,1,59.59,41.38Z"/><path d="M57.91,41.38H54.12a.45.45,0,0,1-.38-.23.48.48,0,0,1,0-.45L57.55,35a.44.44,0,0,1,.48-.18.43.43,0,0,1,.31.41v5.68A.44.44,0,0,1,57.91,41.38Zm-3-.87h2.55V36.69Z"/><path d="M57.91,44.73a.44.44,0,0,1-.43-.44V40.94a.43.43,0,0,1,.86,0v3.35A.44.44,0,0,1,57.91,44.73Z"/><path d="M50.93,44.74c-1.48,0-2.59-2.14-2.59-5s1.11-5,2.59-5,2.6,2.14,2.6,5S52.41,44.74,50.93,44.74Zm0-9.09c-.81,0-1.73,1.69-1.73,4.11s.92,4.11,1.73,4.11,1.74-1.69,1.74-4.11S51.75,35.65,50.93,35.65Z"/><path d="M75.66,66.67a6.7,6.7,0,0,1-5.37-3.56.42.42,0,0,1,.2-.58.43.43,0,0,1,.57.2c.81,1.65,3.26,3.38,5.1,3a2.11,2.11,0,0,0,.43-.12c1.08-.43,6-7.91,5.15-11.31-.66-2.6-3.32-7.92-6.72-9a4.63,4.63,0,0,0-4.54,1.12c-1.51,1.23-1.73,3-2,5l-.1.71a.44.44,0,0,1-.49.37.43.43,0,0,1-.36-.49l.09-.7c.25-2,.52-4.08,2.29-5.53a5.44,5.44,0,0,1,5.36-1.27c3.94,1.29,6.66,7.17,7.29,9.65.93,3.67-4.08,11.69-5.67,12.32a2.48,2.48,0,0,1-.59.17A3.68,3.68,0,0,1,75.66,66.67Z"/><path d="M66.55,56.88a2.29,2.29,0,0,1-1.89-.83c-.75-1-.32-3.32.81-4.37a1.89,1.89,0,0,1,2.74.07,5.52,5.52,0,0,1,.94,1.09.43.43,0,1,1-.72.48,4.68,4.68,0,0,0-.78-.92c-.59-.51-1.11-.54-1.59-.09-.86.8-1.16,2.63-.71,3.22a1.83,1.83,0,0,0,1.94.38,2.45,2.45,0,0,0,.46-.18.43.43,0,0,1,.42.75,2.85,2.85,0,0,1-.64.26A3.36,3.36,0,0,1,66.55,56.88Z"/><path d="M88.52,50.18h0a.44.44,0,0,1-.39-.47,7.94,7.94,0,0,1,1.72-4.8A4.44,4.44,0,0,1,93,43.23c1.35,0,2.83.74,4.3,2.28a17.46,17.46,0,0,1,1.76,2.2.43.43,0,0,1-.11.6.42.42,0,0,1-.6-.11,16.6,16.6,0,0,0-1.67-2.09,5.46,5.46,0,0,0-3.67-2,3.58,3.58,0,0,0-2.59,1.39A7.1,7.1,0,0,0,89,49.78.43.43,0,0,1,88.52,50.18Z"/><path d="M88.31,50.33,88.13,50a.49.49,0,0,1,.12-.55l.13-.09c.72-.37,4.58-2.33,8.47-4h0c7.44-3.11,8.91-2.51,9.36-1.63a1.13,1.13,0,0,1,0,1c-.74,1.71-5.37,3.21-7.32,3.78a44.2,44.2,0,0,1-10.3,1.76Zm16.33-6.39c-1,0-3,.4-7.45,2.27h0c-2.62,1.09-5.22,2.33-6.85,3.14a45.91,45.91,0,0,0,8.33-1.62c4.22-1.23,6.44-2.54,6.76-3.29a.28.28,0,0,0,0-.27C105.42,44.12,105.28,43.94,104.64,43.94Z"/><path d="M72,53.59a.42.42,0,0,1-.24-.07.44.44,0,0,1-.12-.6,2,2,0,0,1,1.6-.84,1.86,1.86,0,0,1,1.53.61.43.43,0,0,1-.07.61.42.42,0,0,1-.6-.07,1.13,1.13,0,0,0-.82-.29,1.15,1.15,0,0,0-.92.46A.44.44,0,0,1,72,53.59Z"/><path d="M77.35,53.71a.46.46,0,0,1-.24-.08A.43.43,0,0,1,77,53a2,2,0,0,1,1.6-.83,1.82,1.82,0,0,1,1.53.61.44.44,0,0,1-.06.61.43.43,0,0,1-.61-.07,1,1,0,0,0-.82-.29,1.17,1.17,0,0,0-.92.46A.44.44,0,0,1,77.35,53.71Z"/><path d="M74.19,63a.44.44,0,0,1-.38-.64,2.2,2.2,0,0,1,1.9-1,1.62,1.62,0,0,1,1.49.76.43.43,0,0,1-.15.59.43.43,0,0,1-.59-.16.86.86,0,0,0-.74-.32,1.35,1.35,0,0,0-1.15.58A.43.43,0,0,1,74.19,63Z"/><path d="M65.93,54.94h0a.43.43,0,1,1,0-.86h0a2,2,0,0,0,1.26-.51.43.43,0,1,1,.59.63A2.87,2.87,0,0,1,65.93,54.94Z"/><path d="M76.94,60.25a2,2,0,0,1-.67-.14.44.44,0,0,1-.26-.56.44.44,0,0,1,.56-.25c.24.09.43.1.51,0s.25-.39.08-1.55c0-.28-.1-.59-.16-.92a7,7,0,0,1-.08-3.71.43.43,0,1,1,.8.32,6.65,6.65,0,0,0,.13,3.23c.06.34.13.66.17.95.13.9.18,1.89-.4,2.36A1.05,1.05,0,0,1,76.94,60.25Z"/><path d="M59.39,130.91a.43.43,0,0,1-.43-.41.44.44,0,0,1,.41-.46,13.86,13.86,0,0,0,2.67-.38c2-.51,6.76-2.26,6.6-7.61a.43.43,0,0,1,.42-.44h0a.42.42,0,0,1,.43.42c.12,4.14-2.59,7.31-7.26,8.47a15.44,15.44,0,0,1-2.83.41Z"/><path d="M59.38,50.35H58.07a.44.44,0,0,1,0-.87h1.31a1.8,1.8,0,0,0,1.91-1.65V32.5a1.8,1.8,0,0,0-1.91-1.66H42.2a1.79,1.79,0,0,0-1.91,1.66V47.83a1.79,1.79,0,0,0,1.91,1.65h13a.44.44,0,1,1,0,.87h-13a2.66,2.66,0,0,1-2.78-2.52V32.5A2.67,2.67,0,0,1,42.2,30H59.38a2.66,2.66,0,0,1,2.77,2.53V47.83A2.65,2.65,0,0,1,59.38,50.35Z"/><path d="M57.21,54.69a.71.71,0,0,1-.45-.16C56.08,54,55.5,52.46,55,50c-.14-.71-.21-1.22-.21-1.22a.43.43,0,0,1,.37-.48.42.42,0,0,1,.49.37s.07.49.2,1.17a10.34,10.34,0,0,0,1.27,3.91,13.6,13.6,0,0,0,.35-3.8c0-1.16,0-2.09,0-2.1a.43.43,0,0,1,.42-.44.46.46,0,0,1,.45.41s0,1,0,2.14c0,4.3-.59,4.57-.88,4.71A.66.66,0,0,1,57.21,54.69Z"/><path d="M33.6,72.09a.43.43,0,0,1-.41-.31A13.22,13.22,0,0,0,27,68c-.92-.16-1.31-.07-1.43.32a.42.42,0,0,1-.53.3.45.45,0,0,1-.3-.54c.38-1.3,1.89-1,2.39-.93,2.8.51,6.64,3.44,6.92,4.4a.44.44,0,0,1-.3.53Z"/><path d="M30.2,71.51a.41.41,0,0,1-.33-.16A8.66,8.66,0,0,0,25,68.85c-1.09-.18-1.74,0-1.82.23a.65.65,0,0,0,.15.44.42.42,0,0,1,.1.6.43.43,0,0,1-.61.09,1.38,1.38,0,0,1-.46-1.4c.26-.77,1.25-1.06,2.78-.82a9.54,9.54,0,0,1,5.38,2.81.43.43,0,0,1-.07.61A.39.39,0,0,1,30.2,71.51Z"/><path d="M110.65,70.4l-.13,0a.44.44,0,0,1-.29-.54c.29-1,4.2-3.8,7-4.24.52-.08,2-.32,2.39,1a.43.43,0,1,1-.84.22c-.1-.39-.49-.5-1.39-.35a13.21,13.21,0,0,0-6.33,3.65A.42.42,0,0,1,110.65,70.4Z"/><path d="M114.05,69.9a.43.43,0,0,1-.28-.11.44.44,0,0,1,0-.61,9.51,9.51,0,0,1,5.44-2.69c1.54-.21,2.52.1,2.77.88a1.43,1.43,0,0,1-.5,1.4.43.43,0,0,1-.5-.71.6.6,0,0,0,.17-.43c-.08-.25-.73-.43-1.82-.28a8.71,8.71,0,0,0-4.9,2.39A.42.42,0,0,1,114.05,69.9Z"/><path d="M173.44,170H26.56a9,9,0,0,1-9-9V43.82a9,9,0,0,1,9-9H39.79a.44.44,0,1,1,0,.87H26.56a8.15,8.15,0,0,0-8.14,8.14V161a8.15,8.15,0,0,0,8.14,8.14H173.44a8.15,8.15,0,0,0,8.14-8.14V43.82a8.15,8.15,0,0,0-8.14-8.14H61.72a.47.47,0,0,1-.47-.43.4.4,0,0,1,.39-.44h111.8a9,9,0,0,1,9,9V161A9,9,0,0,1,173.44,170Z"/><path class="cls-1" d="M90.46,109c.35.65.67,1.24.94,1.82a.13.13,0,0,0,0,.06v-.06c-.27-.58-.59-1.17-.94-1.82-1.79-3.34-4.23-7.88-4-18.54h0C86.23,101.14,88.67,105.68,90.46,109Z"/><path class="cls-1" d="M69.75,72.8h0Z"/><path class="cls-1" d="M79.9,74.93c1.35.07,6.08.33,7.7,1.08,2.18,1,6.48,6.79,10.33,12.15.63.87,1.24,1.71,1.56,2.13h0c-.32-.42-.93-1.26-1.56-2.13C94.08,82.8,89.78,77,87.61,76c-1.63-.75-6.35-1-7.71-1.08A3.41,3.41,0,0,0,78.23,73h0A3.45,3.45,0,0,1,79.9,74.93Z"/><path class="cls-1" d="M86.4,89.12a.46.46,0,0,0-.3-.15.46.46,0,0,1,.3.15c.1.12,9.56,11.32,15,10.95C96,100.44,86.5,89.24,86.4,89.12Z"/><path class="cls-1" d="M36.59,76.71Z"/><path class="cls-1" d="M42.52,103c4.12.16,11.55-7.47,14.45-10.65h0C54.07,95.53,46.64,103.17,42.52,103Z"/><path class="cls-1" d="M36.33,76.64h0Z"/><path class="cls-1" d="M44.09,91.51h0c-1-1.73-4.82-9.42-7.36-14.63h0C39.27,82.09,43.08,89.78,44.09,91.51Z"/><path class="cls-1" d="M151,135.32l.44.31h0l0,0,.06.05h0c.32.24,1.21,1,2.08,1.66,1.45,1.16,3.09,2.49,3.42,2.72l.35.25h0l.25.18h0l1.8,1.23L173,122l-1.86-1.27a3.55,3.55,0,0,0-2.68-1.14,4.8,4.8,0,0,0-3.32,1.86c-2.08,2.4-5.81,4.77-7.81,6l-1.14.75a3.77,3.77,0,0,0-.38.31Zm6.9,4.86-.08-.06.08.06Zm13.84-18-12.51,18.35-.73-.5L171,121.65Zm-15.33,6.88c.13-.12.72-.49,1.34-.89,2-1.3,5.83-3.71,8-6.2a4,4,0,0,1,2.71-1.57,2.67,2.67,0,0,1,1.76.65l-12.55,18.41-.12-.09c-.31-.21-2-1.58-3.38-2.69-1.07-.86-1.64-1.32-2-1.57Z"/><path class="cls-1" d="M73.71,72.51h0Z"/><path class="cls-1" d="M71.07,72.65l-.17,0Z"/><path class="cls-1" d="M71.69,72.6h0Z"/><path class="cls-1" d="M70.4,72.72l-.15,0Z"/><path class="cls-1" d="M76.38,72.62h0Z"/><path class="cls-1" d="M77.05,72.71l.15,0h0Z"/><path class="cls-1" d="M75.88,72.58l-.2,0Z"/><path class="cls-1" d="M75.18,72.53h0Z"/><path class="cls-1" d="M74.23,72.51h0Z"/><path class="cls-1" d="M114.22,75.19a.41.41,0,0,1,.07.37c-.24.93-5.92,22.71-11.56,25.07a4.08,4.08,0,0,1-1.49.3,4.08,4.08,0,0,0,1.49-.3c5.64-2.36,11.32-24.14,11.56-25.07a.41.41,0,0,0-.07-.37.31.31,0,0,0-.11-.09h0A.31.31,0,0,1,114.22,75.19Z"/><path class="cls-1" d="M44,92.58c.31,0,.49,0,12.53-13.92l.44-.51c1.41-1.64,6.41-2,8.69-2-2.28,0-7.28.31-8.69,2l-.44.51C44.52,92.57,44.34,92.57,44,92.58h0Z"/><path class="cls-1" d="M155.58,144.16a4.86,4.86,0,0,0-3.62,1.19c-2.51,2-6.62,3.56-8.83,4.43-.6.23-1,.39-1.28.52a2.94,2.94,0,0,0-.41.22l-6,5.75.37.38h0l.18.21,1.61,1.9c1.2,1.44,2.57,3.07,2.85,3.36l.15.15h0l.15.15h0l.11.11.1.1h0l1.54,1.57,17.05-16.82L158,145.78A3.62,3.62,0,0,0,155.58,144.16Zm-14.5,17.37c-.26-.27-1.67-2-2.81-3.31-.87-1-1.34-1.59-1.62-1.9L142,151.2a15.41,15.41,0,0,1,1.48-.62c2.25-.88,6.43-2.52,9-4.55a4,4,0,0,1,2.95-1,2.58,2.58,0,0,1,1.61,1l-15.86,15.64Zm1.44,1.46-.62-.63,15.75-15.67.69.7Z"/><path class="cls-1" d="M66.53,75.93l.12-.34a2.35,2.35,0,0,1,.93-1.44,23.66,23.66,0,0,1,6.24-.78,23.66,23.66,0,0,0-6.24.78,2.35,2.35,0,0,0-.93,1.44l-.12.34a.44.44,0,0,1-.41.28h0A.44.44,0,0,0,66.53,75.93Z"/><path class="cls-1" d="M30.88,77.65l5.2-.14h0l-5.2.14c.91,3.45,6.23,22.73,11.14,24.4a2.19,2.19,0,0,0,.7.11,2.23,2.23,0,0,1-.7-.11C37.11,100.38,31.79,81.1,30.88,77.65Z"/><path class="cls-1" d="M91.4,111.21a.51.51,0,0,0,0-.17.51.51,0,0,1,0,.17.46.46,0,0,1-.28.23l-33.75,9.78-.12,0h0l.13,0,.25-.07,33.49-9.71A.41.41,0,0,0,91.4,111.21Z"/><path class="cls-1" d="M57.62,120.25c-2.36-18.57.52-29.18.55-29.29a.44.44,0,0,0-.21-.5.54.54,0,0,0-.21,0h0a.54.54,0,0,1,.21,0,.44.44,0,0,1,.21.5c0,.11-2.91,10.72-.55,29.29Z"/><path class="cls-1" d="M108,75.69h0c-3.85,9.43-7.69,15.63-8.57,15.63h0C100.33,91.32,104.17,85.12,108,75.69Z"/><path d="M77.7,72.83l-.5-.09h0l.5.09.26.08.27.12h0c-.09,0-.18-.09-.27-.12Z"/><path class="cls-1" d="M49.69,71.65s0,0,0,0l-.4.84s0,.07.05.06l.87-.35s0,0,.05,0l.41.85a0,0,0,0,0,.07,0l.28-.9s0,0,0,0l.91.2a0,0,0,0,0,0-.06l-.53-.77a0,0,0,0,1,0,0l.73-.59a0,0,0,0,0,0-.07l-.93-.07a0,0,0,0,1,0,0V69.8a0,0,0,0,0-.07,0l-.64.68s0,0,0,0l-.74-.58s-.06,0-.06,0l.14.93s0,0,0,0l-.91.22s0,0,0,.07Z"/><path class="cls-1" d="M113.89,75h0a.37.37,0,0,1,.22.08h0a14.89,14.89,0,0,1,4.23-3.91c1-.56,2.08-.92,2.7-1.35a.75.75,0,0,0-.14-1.33l.28-.1a1,1,0,0,0,.33-.91c-.18-.58-1.11-.74-2.29-.58l0-.23c-.25-.94-1.39-.74-1.9-.66-2.77.44-6.44,3.25-6.65,3.93l-.28.07c-.41-.33-.85-.45-.88-.53-.11-.24,1.24-3,0-3.29-.49-.11-1,.42-1.14.8-.37.71-1.23,3.46-.58,7.81h0Z"/><path class="cls-1" d="M67.16,56.39l.25-.06,0,.08.43,0a118.1,118.1,0,0,0-.23,12c0,1.55,0,3.12,0,4.72a17.85,17.85,0,0,1,2-.38h.07l.5-.06.15,0,.5,0,.17,0,.53-.05h.09c.6,0,1.23-.08,1.85-.09h.17c.18,0,.35,0,.52,0h1l.5,0,.2,0,.5,0h0l.75-.06a23.35,23.35,0,0,1-.89-4c-.13-.82-.26-1.59-.42-2.32l-.06-.23.84-.21.05.23.1,0c1.39-.55,6.29-8.35,5.41-11.81-1-3.71-5.86-13.16-12-8.16-1.82,1.5-1.91,3.69-2.23,6l0,0c-2.34-2-3.89,2.44-2.92,3.71a2,2,0,0,0,2,.62v0Z"/><path d="M67,56.37v0l.16,0Z"/><path d="M67.64,68.47a118.1,118.1,0,0,1,.23-12l-.43,0h0c-.49,5.82-.18,11.12-.18,16.94l.43-.16C67.69,71.59,67.67,70,67.64,68.47Z"/><path d="M75.76,66.05l.06.23c.16.73.29,1.5.42,2.32a23.35,23.35,0,0,0,.89,4l.43,0c-.7-1.91-.86-4.33-1.32-6.33a2.77,2.77,0,0,0,.41-.12l-.05-.23Z"/><path class="cls-1" d="M88.6,49.89a43,43,0,0,0,10.19-1.75c4.32-1.25,7.67-2.93,7-4.17s-4.73.13-8.81,1.84c-2.1-2.2-4.58-3.19-6.89-.61a7.49,7.49,0,0,0-1.61,4.55l0,0A.07.07,0,0,0,88.6,49.89Z"/><path class="cls-1" d="M94.26,63.25s0,0,0-.06l-.78-.14s0,0,0,0l.08-.79s0,0-.06,0l-.59.52h0l-.56-.55s-.06,0-.06,0l0,.79a0,0,0,0,1,0,0l-.79.1s0,0,0,.06l.64.46a.06.06,0,0,1,0,0l-.42.68s0,.06,0,0l.76-.21s0,0,0,0l.27.74a0,0,0,0,0,.06,0l.31-.73s0,0,0,0l.75.25a0,0,0,0,0,0,0l-.37-.69a0,0,0,0,1,0,0Z"/><path class="cls-1" d="M32.52,157a.12.12,0,0,1-.11-.08l-.49-2.16a.11.11,0,0,0-.2,0l-1.26,1.81a.11.11,0,0,1-.13.05l-2.11-.66a.12.12,0,0,0-.14.16l.94,2a.12.12,0,0,1,0,.14l-1.62,1.5a.11.11,0,0,0,.07.19l2.2.19a.13.13,0,0,1,.11.09l.48,2.16a.12.12,0,0,0,.21,0l1.26-1.82a.11.11,0,0,1,.13,0l2.11.65a.12.12,0,0,0,.14-.16l-.94-2a.12.12,0,0,1,0-.13l1.63-1.5a.12.12,0,0,0-.07-.2Z"/><path class="cls-1" d="M95.12,145.94a.07.07,0,0,1,0-.06l.11-1.12s0-.06-.07,0l-.85.75a.06.06,0,0,1-.07,0l-.8-.78a0,0,0,0,0-.08,0l.05,1.13a.07.07,0,0,1,0,0l-1.12.14a0,0,0,0,0,0,.08l.91.66a0,0,0,0,1,0,.07l-.58,1s0,.08,0,.07l1.08-.3a0,0,0,0,1,.06,0l.39,1.05s.07,0,.08,0l.45-1a.05.05,0,0,1,0,0l1.07.36s.08,0,.06-.06l-.54-1s0,0,0-.06l1-.61s0-.08,0-.08Z"/><path class="cls-1" d="M38.32,121a.08.08,0,0,1-.08-.07l-.39-1.72a.09.09,0,0,0-.16,0l-1,1.45a.09.09,0,0,1-.1,0l-1.68-.52a.09.09,0,0,0-.11.13l.75,1.59a.11.11,0,0,1,0,.11l-1.3,1.19a.1.1,0,0,0,.06.16l1.75.15a.08.08,0,0,1,.08.07l.39,1.72a.1.1,0,0,0,.17,0l1-1.45a.11.11,0,0,1,.11,0l1.68.52a.09.09,0,0,0,.11-.13l-.75-1.59a.09.09,0,0,1,0-.11l1.29-1.19a.09.09,0,0,0-.05-.16Z"/><path class="cls-1" d="M67.63,157.74a.08.08,0,0,1,0-.1l.52-1.68a.09.09,0,0,0-.13-.11l-1.59.75a.14.14,0,0,1-.11,0l-1.19-1.3a.09.09,0,0,0-.16.06l-.15,1.75a.08.08,0,0,1-.07.08l-1.72.39a.09.09,0,0,0,0,.17l1.45,1a.1.1,0,0,1,0,.1l-.52,1.69a.09.09,0,0,0,.12.11l1.6-.75a.08.08,0,0,1,.1,0l1.2,1.29a.09.09,0,0,0,.16-.05l.15-1.76a.08.08,0,0,1,.07-.08l1.71-.39a.09.09,0,0,0,0-.16Z"/><path class="cls-1" d="M122.89,162.28s0,0,0-.05l.12-1.12s0-.07-.08,0l-.85.74s-.05,0-.06,0l-.81-.79a0,0,0,0,0-.08,0l0,1.12a0,0,0,0,1,0,0l-1.12.14a.05.05,0,0,0,0,.09l.91.66a0,0,0,0,1,0,.06l-.59,1a0,0,0,0,0,0,.07l1.09-.3s0,0,0,0l.39,1.06s.07,0,.09,0l.44-1a0,0,0,0,1,.06,0l1.06.36a.05.05,0,0,0,.06-.07l-.53-1a0,0,0,0,1,0-.06l1-.61a.05.05,0,0,0,0-.09Z"/><path class="cls-1" d="M25.81,96.46a.1.1,0,0,1,0,0l-.2-.91a.05.05,0,0,0-.09,0l-.53.77s0,0-.05,0L24,96a.05.05,0,0,0-.06.07l.39.84a0,0,0,0,1,0,.06l-.68.63a0,0,0,0,0,0,.08l.93.08s0,0,0,0l.21.91s.06.05.08,0l.53-.76s0,0,.06,0l.89.28a.05.05,0,0,0,.06-.07l-.4-.84a.07.07,0,0,1,0-.06l.69-.63a.05.05,0,0,0,0-.09Z"/><path class="cls-1" d="M36.33,76.64h.05c.82-4.46,0-7.16-.36-7.89-.18-.38-.63-.92-1.12-.82-1.3.26,0,3-.13,3.29a6.7,6.7,0,0,0-1,.61l-.16-.18c-.2-.68-3.8-3.58-6.55-4.08-.51-.09-1.65-.32-1.92.62l0,.23c-1.17-.19-2.11,0-2.3.53a1,1,0,0,0,.31.92l.12.17a.77.77,0,0,0,0,1.26c.61.44,1.7.83,2.67,1.41,1.86,1.13,4,3.27,4.29,4.13a.33.33,0,0,1,.14,0Z"/><path class="cls-1" d="M24.74,49.53s0,0,0,0l-.4.84s0,.07,0,.06l.87-.35.05,0,.41.85a0,0,0,0,0,.07,0l.28-.89s0,0,.05,0l.91.2a0,0,0,0,0,0-.06l-.53-.77a0,0,0,0,1,0,0l.73-.59a0,0,0,0,0,0-.07l-.93-.07a0,0,0,0,1,0,0v-.94a0,0,0,0,0-.07,0l-.64.68s0,0-.05,0l-.74-.58s-.06,0-.06,0l.14.93s0,0,0,0l-.91.22s0,0,0,.07Z"/><path class="cls-1" d="M166.71,103.92l-1.12.14s-.05.06,0,.08l.91.66s0,0,0,.06l-.59,1a0,0,0,0,0,.05.07l1.09-.31s0,0,0,0l.39,1.06s.07,0,.09,0l.44-1a0,0,0,0,1,.06,0l1.06.36c.05,0,.08,0,.06-.07l-.53-1a0,0,0,0,1,0-.06l.95-.61a.05.05,0,0,0,0-.09l-1.11-.2a0,0,0,0,1,0,0l.12-1.12s-.05-.07-.08,0l-.85.74s-.05,0-.06,0l-.81-.78a0,0,0,0,0-.08,0l.05,1.13A.05.05,0,0,1,166.71,103.92Z"/><path class="cls-1" d="M173.23,145.91a0,0,0,0,1,0,0v-.94a0,0,0,0,0-.07,0l-.64.68s0,0,0,0l-.73-.58a0,0,0,0,0-.07,0l.14.93s0,0,0,0l-.91.21a0,0,0,0,0,0,.08l.81.47s0,0,0,.05l-.41.84s0,.07,0,.06l.87-.35s0,0,.05,0l.41.84a0,0,0,0,0,.08,0l.27-.9a0,0,0,0,1,.05,0l.91.2a0,0,0,0,0,0-.06l-.52-.77a0,0,0,0,1,0-.05l.73-.59a0,0,0,0,0,0-.07Z"/><path class="cls-1" d="M168.45,76.3a.06.06,0,0,1,.06.06l.08,1.51a.06.06,0,0,0,.11,0l1-1.16a.06.06,0,0,1,.08,0l1.23.89a.06.06,0,0,0,.1-.06l-.29-1.49s0-.07,0-.07l1.46-.41a.07.07,0,0,0,0-.12l-1.35-.7s0,0,0-.08l.59-1.4a.07.07,0,0,0-.09-.08l-1.38.62a.06.06,0,0,1-.08,0l-.73-1.34a.06.06,0,0,0-.11,0L168.76,74a.06.06,0,0,1-.07,0l-1.49-.26a.06.06,0,0,0-.06.1l.9,1.21a.08.08,0,0,1,0,.09l-1.14,1a.06.06,0,0,0,0,.11Z"/><path class="cls-1" d="M135.83,156.65l-.37-.38,6-5.75a2.94,2.94,0,0,1,.41-.22l-23.34-24.88a20.87,20.87,0,0,0-3.26-2.71l0-.06a6.3,6.3,0,0,1,5.24.31l30.85,12.88h.1l.09-.12h0l-.08.12-.07-.05.09-.12,0,0h0l-.44-.31,4.76-6.79a3.77,3.77,0,0,1,.38-.31c-2.61-1.9-20.86-15.2-27.76-19.29-7.77-4.6-16.38-5.4-37,1.95v0a.59.59,0,0,1,0,.14.51.51,0,0,1,0,.17.41.41,0,0,1-.28.23l-33.49,9.71a29.42,29.42,0,0,0,4.51,8.93A15.76,15.76,0,0,0,70,135.84c6.55,1.95,20.41.58,30.59-.44a13.35,13.35,0,0,1,8.23,1.95L135.86,157l.14-.14-.18-.21Z"/><path class="cls-1" d="M122.75,49.55a.06.06,0,0,1,0,.09l-.7,1.47a.07.07,0,0,0,.09.1l1.52-.6a.08.08,0,0,1,.09,0l.71,1.47a.07.07,0,0,0,.13,0l.48-1.56a.09.09,0,0,1,.08,0l1.6.36a.06.06,0,0,0,.07-.1l-.92-1.35a.08.08,0,0,1,0-.1l1.28-1a.07.07,0,0,0,0-.12L125.54,48a.07.07,0,0,1-.07-.06V46.33a.07.07,0,0,0-.12,0l-1.11,1.2a.08.08,0,0,1-.1,0l-1.28-1a.07.07,0,0,0-.11.07l.24,1.62a.05.05,0,0,1,0,.07l-1.59.37a.07.07,0,0,0,0,.13Z"/><path class="cls-1" d="M135.5,95.13a.11.11,0,0,1,.07.06l.33,1.46a.07.07,0,0,0,.13,0l.85-1.22a.08.08,0,0,1,.09,0l1.42.44a.07.07,0,0,0,.09-.1l-.63-1.35a.08.08,0,0,1,0-.09l1.09-1a.07.07,0,0,0-.05-.13l-1.48-.13a.09.09,0,0,1-.07-.06L137,91.54a.07.07,0,0,0-.13,0l-.85,1.22a.08.08,0,0,1-.09,0l-1.42-.44a.08.08,0,0,0-.09.11l.63,1.35a.08.08,0,0,1,0,.09l-1.09,1A.08.08,0,0,0,134,95Z"/><path class="cls-1" d="M160.85,47.84a.14.14,0,0,1,.11.09l.48,2.16a.12.12,0,0,0,.21,0l1.26-1.82a.11.11,0,0,1,.13,0l2.11.65a.11.11,0,0,0,.14-.15l-.94-2a.13.13,0,0,1,0-.13l1.63-1.5a.12.12,0,0,0-.07-.2l-2.2-.18a.14.14,0,0,1-.11-.09l-.48-2.16a.12.12,0,0,0-.21,0l-1.26,1.82a.11.11,0,0,1-.13,0l-2.11-.65a.11.11,0,0,0-.14.15l.94,2a.14.14,0,0,1,0,.14l-1.63,1.5a.12.12,0,0,0,.07.2Z"/><path class="cls-1" d="M142.58,69.15s0,0,0,0l-.4.84s0,.07.05.06l.87-.35,0,0,.41.85a0,0,0,0,0,.07,0l.28-.89s0,0,.05,0l.91.2a0,0,0,0,0,0-.06l-.53-.77a0,0,0,0,1,0,0l.73-.59a0,0,0,0,0,0-.07l-.93-.07a0,0,0,0,1,0,0V67.3a0,0,0,0,0-.07,0l-.64.68a0,0,0,0,1-.05,0l-.74-.58s-.06,0-.06,0l.14.93s0,0,0,0l-.91.22s0,0,0,.07Z"/><path d="M151.41,135.79l.07.05.08-.12-.06-.05Z"/><path d="M173.44,35.24H61.72V47.83a2.23,2.23,0,0,1-2.34,2.09H57.93c0,2.07-.18,4.84-.91,4.28s-1.3-2.88-1.57-4.31l-.22,0h-13a2.23,2.23,0,0,1-2.35-2.09V35.24H26.56A8.57,8.57,0,0,0,18,43.82V161a8.57,8.57,0,0,0,8.57,8.57H173.44A8.57,8.57,0,0,0,182,161V43.82A8.57,8.57,0,0,0,173.44,35.24Zm-6.54,40.9,1.14-1a.08.08,0,0,0,0-.09l-.9-1.21a.06.06,0,0,1,.06-.1l1.49.26a.06.06,0,0,0,.07,0l.39-1.47a.06.06,0,0,1,.11,0l.73,1.34a.06.06,0,0,0,.08,0l1.38-.62a.07.07,0,0,1,.09.08L171,74.7s0,.06,0,.08l1.35.7a.07.07,0,0,1,0,.12l-1.46.41s0,0,0,.07l.29,1.49a.06.06,0,0,1-.1.06l-1.23-.89a.06.06,0,0,0-.08,0l-1,1.16a.06.06,0,0,1-.11,0l-.08-1.51a.06.06,0,0,0-.06-.06l-1.51,0A.06.06,0,0,1,166.9,76.14Zm-.12,26.57.81.78s0,0,.06,0l.85-.74s.08,0,.08,0l-.12,1.12a0,0,0,0,0,0,0l1.11.2a.05.05,0,0,1,0,.09l-.95.61a0,0,0,0,0,0,.06l.53,1s0,.08-.06.07l-1.06-.36a0,0,0,0,0-.06,0l-.44,1s-.08,0-.09,0l-.39-1.06s0,0,0,0l-1.09.31a0,0,0,0,1-.05-.07l.59-1s0,0,0-.06l-.91-.66s0-.08,0-.08l1.12-.14a.05.05,0,0,0,0,0l-.05-1.13A0,0,0,0,1,166.78,102.71Zm-8.2-55.25,1.63-1.5a.14.14,0,0,0,0-.14l-.94-2a.11.11,0,0,1,.14-.15l2.11.65a.11.11,0,0,0,.13,0l1.26-1.82a.12.12,0,0,1,.21,0l.48,2.16a.14.14,0,0,0,.11.09l2.2.18a.12.12,0,0,1,.07.2l-1.63,1.5a.13.13,0,0,0,0,.13l.94,2a.11.11,0,0,1-.14.15L163,48.27a.11.11,0,0,0-.13,0l-1.26,1.82a.12.12,0,0,1-.21,0L161,47.93a.14.14,0,0,0-.11-.09l-2.2-.18A.12.12,0,0,1,158.58,47.46Zm-16.8,21.15.91-.22s0,0,0,0l-.14-.93s0,0,.06,0l.74.58a0,0,0,0,0,.05,0l.64-.68a0,0,0,0,1,.07,0v.94a0,0,0,0,0,0,0l.93.07a0,0,0,0,1,0,.07l-.73.59a0,0,0,0,0,0,0l.53.77a0,0,0,0,1,0,.06l-.91-.2s0,0-.05,0l-.28.89a0,0,0,0,1-.07,0l-.41-.85,0,0-.87.35s-.07,0-.05-.06l.4-.84s0,0,0,0l-.81-.47S141.74,68.61,141.78,68.61ZM134,94.88l1.09-1a.08.08,0,0,0,0-.09l-.63-1.35a.08.08,0,0,1,.09-.11l1.42.44a.08.08,0,0,0,.09,0l.85-1.22a.07.07,0,0,1,.13,0l.33,1.45a.09.09,0,0,0,.07.06l1.48.13a.07.07,0,0,1,.05.13l-1.09,1a.08.08,0,0,0,0,.09l.63,1.35a.07.07,0,0,1-.09.1L137,95.42a.08.08,0,0,0-.09,0L136,96.67a.07.07,0,0,1-.13,0l-.33-1.46a.11.11,0,0,0-.07-.06L134,95A.08.08,0,0,1,134,94.88ZM121.35,48.6l1.59-.37a.05.05,0,0,0,0-.07l-.24-1.62a.07.07,0,0,1,.11-.07l1.28,1a.08.08,0,0,0,.1,0l1.11-1.2a.07.07,0,0,1,.12,0V48a.07.07,0,0,0,.07.06l1.63.13a.07.07,0,0,1,0,.12l-1.28,1a.08.08,0,0,0,0,.1l.92,1.35a.06.06,0,0,1-.07.1l-1.6-.36a.09.09,0,0,0-.08,0l-.48,1.56a.07.07,0,0,1-.13,0l-.71-1.47a.08.08,0,0,0-.09,0l-1.52.6a.07.07,0,0,1-.09-.1l.7-1.47a.06.06,0,0,0,0-.09l-1.42-.82A.07.07,0,0,1,121.35,48.6ZM90.13,45.2c2.31-2.58,4.79-1.59,6.89.61,4.08-1.71,8.19-3.05,8.81-1.84s-2.72,2.92-7,4.17A43,43,0,0,1,88.6,49.89a.07.07,0,0,1-.06-.12l0,0A7.49,7.49,0,0,1,90.13,45.2ZM94,64.42a0,0,0,0,1,0,0l-.75-.25s0,0,0,0l-.31.73a0,0,0,0,1-.06,0l-.27-.74s0,0,0,0l-.76.21s0,0,0,0l.42-.68a.06.06,0,0,0,0,0l-.64-.46s0-.06,0-.06l.79-.1a0,0,0,0,0,0,0l0-.79s0,0,.06,0l.56.55h0l.59-.52s.06,0,.06,0l-.08.79s0,0,0,0l.78.14s0,.05,0,.06l-.66.43a0,0,0,0,0,0,0ZM48.89,71.11l.91-.22s0,0,0,0l-.14-.93s0-.06.06,0l.74.58s0,0,0,0l.64-.68a0,0,0,0,1,.07,0v.94a0,0,0,0,0,0,0l.93.07a0,0,0,0,1,0,.07l-.73.59a0,0,0,0,0,0,0l.53.77a0,0,0,0,1,0,.06l-.91-.2s0,0,0,0l-.28.9a0,0,0,0,1-.07,0l-.41-.85s0,0-.05,0l-.87.35s-.06,0-.05-.06l.4-.84s0,0,0,0l-.81-.47S48.85,71.11,48.89,71.11ZM23.94,49l.91-.22s0,0,0,0l-.14-.93s0,0,.06,0l.74.58s0,0,.05,0l.64-.68a0,0,0,0,1,.07,0v.94a0,0,0,0,0,0,0l.93.07a0,0,0,0,1,0,.07l-.73.59a0,0,0,0,0,0,0l.53.77a0,0,0,0,1,0,.06l-.91-.2s0,0-.05,0L25.8,51a0,0,0,0,1-.07,0l-.41-.85-.05,0-.87.35s-.06,0,0-.06l.4-.84s0,0,0,0l-.81-.47S23.9,49,23.94,49Zm2.83,47.63-.69.63a.07.07,0,0,0,0,.06l.4.84a.05.05,0,0,1-.06.07l-.89-.28s0,0-.06,0l-.53.76s-.08,0-.08,0l-.21-.91s0,0,0,0l-.93-.08a0,0,0,0,1,0-.08l.68-.63a0,0,0,0,0,0-.06l-.39-.84A.05.05,0,0,1,24,96l.89.28s0,0,.05,0l.53-.77a.05.05,0,0,1,.09,0l.2.91a.1.1,0,0,0,0,0l.93.07A.05.05,0,0,1,26.77,96.62Zm8,60.77-1.63,1.5a.12.12,0,0,0,0,.13l.94,2a.12.12,0,0,1-.14.16l-2.11-.65a.11.11,0,0,0-.13,0l-1.26,1.82a.12.12,0,0,1-.21,0l-.48-2.16a.13.13,0,0,0-.11-.09l-2.2-.19a.11.11,0,0,1-.07-.19l1.62-1.5a.12.12,0,0,0,0-.14l-.94-2a.12.12,0,0,1,.14-.16l2.11.66a.11.11,0,0,0,.13-.05l1.26-1.81a.11.11,0,0,1,.2,0l.49,2.16a.12.12,0,0,0,.11.08l2.2.19A.12.12,0,0,1,34.79,157.39Zm5.34-36.11-1.29,1.19a.09.09,0,0,0,0,.11l.75,1.59a.09.09,0,0,1-.11.13l-1.68-.52a.11.11,0,0,0-.11,0l-1,1.45a.1.1,0,0,1-.17,0l-.39-1.72a.08.08,0,0,0-.08-.07l-1.75-.15a.1.1,0,0,1-.06-.16l1.3-1.19a.11.11,0,0,0,0-.11l-.75-1.59a.09.09,0,0,1,.11-.13l1.68.52a.09.09,0,0,0,.1,0l1-1.45a.09.09,0,0,1,.16,0l.39,1.72a.08.08,0,0,0,.08.07l1.76.15A.09.09,0,0,1,40.13,121.28ZM69,158.91l-1.71.39a.08.08,0,0,0-.07.08l-.15,1.76a.09.09,0,0,1-.16.05l-1.2-1.29a.08.08,0,0,0-.1,0l-1.6.75a.09.09,0,0,1-.12-.11l.52-1.69a.1.1,0,0,0,0-.1l-1.45-1a.09.09,0,0,1,0-.17l1.72-.39a.08.08,0,0,0,.07-.08l.15-1.75a.09.09,0,0,1,.16-.06l1.19,1.3a.14.14,0,0,0,.11,0l1.59-.75a.09.09,0,0,1,.13.11l-.52,1.68a.08.08,0,0,0,0,.1l1.45,1A.09.09,0,0,1,69,158.91Zm27.21-12.69-1,.61s0,0,0,.06l.54,1s0,.08-.06.06l-1.07-.36a.05.05,0,0,0,0,0l-.45,1s-.07,0-.08,0l-.39-1.05a0,0,0,0,0-.06,0l-1.08.3s-.08,0,0-.07l.58-1a0,0,0,0,0,0-.07l-.91-.66a0,0,0,0,1,0-.08l1.12-.14a.07.07,0,0,0,0,0l-.05-1.13a0,0,0,0,1,.08,0l.8.78a.06.06,0,0,0,.07,0l.85-.75s.08,0,.07,0l-.11,1.12a.07.07,0,0,0,0,.06l1.11.2S96.28,146.2,96.25,146.22ZM124,162.57l-1,.61a0,0,0,0,0,0,.06l.53,1a.05.05,0,0,1-.06.07l-1.06-.36a0,0,0,0,0-.06,0l-.44,1s-.08,0-.09,0l-.39-1.06s0,0,0,0l-1.09.3a0,0,0,0,1,0-.07l.59-1a0,0,0,0,0,0-.06l-.91-.66a.05.05,0,0,1,0-.09l1.12-.14a0,0,0,0,0,0,0l0-1.12a0,0,0,0,1,.08,0l.81.79s0,0,.06,0l.85-.74s.08,0,.08,0l-.12,1.12s0,.05,0,.05l1.11.2A.05.05,0,0,1,124,162.57Zm18.49,1.65L141,162.65h0l-.1-.1-.11-.11h0l-.15-.15h0l-.15-.15c-.28-.29-1.65-1.92-2.85-3.36l-1.61-1.9-.14.14-27.05-19.66a13.35,13.35,0,0,0-8.23-1.95c-10.18,1-24,2.39-30.59.44a15.76,15.76,0,0,1-7.85-5.76,29.42,29.42,0,0,1-4.51-8.93l-.25.07-.13,0h0a.48.48,0,0,1-.23-.07.4.4,0,0,1-.19-.31c-1.95-14.86-.58-24.78.14-28.5-2.9,3.18-10.33,10.81-14.45,10.65a2.77,2.77,0,0,1-.78-.14c-5.8-2-11.59-24.57-11.84-25.53A.44.44,0,0,1,30,77a.36.36,0,0,1,.19-.13c-.28-.86-2.43-3-4.29-4.13-1-.58-2.06-1-2.67-1.41a.77.77,0,0,1,0-1.26l-.12-.17a1,1,0,0,1-.31-.92c.19-.58,1.13-.72,2.3-.53l0-.23c.27-.94,1.41-.71,1.92-.62,2.75.5,6.35,3.4,6.55,4.08l.16.18a6.7,6.7,0,0,1,1-.61c.11-.24-1.17-3,.13-3.29.49-.1.94.44,1.12.82.36.73,1.18,3.43.36,7.89h0a.31.31,0,0,1,.21.07h0a.46.46,0,0,1,.14.17h0c2.54,5.21,6.35,12.9,7.36,14.63C45.73,89.85,53,81.42,55.9,78.09l.45-.51c1.86-2.15,8-2.23,9.47-2.24v0a3.48,3.48,0,0,1,1-1.68h0c0-1.75,0-3.45,0-5.13A119.3,119.3,0,0,1,67,56.41a2,2,0,0,1-2-.62c-1-1.27.58-5.74,2.92-3.71l0,0c.32-2.27.41-4.46,2.23-6,6.1-5,11,4.45,12,8.16.88,3.46-4,11.26-5.41,11.81l-.1,0v0c.17.74.31,1.57.44,2.37A17.61,17.61,0,0,0,78.24,73h0a3.41,3.41,0,0,1,1.67,1.9c1.36.07,6.08.33,7.71,1.08,2.17,1,6.47,6.79,10.32,12.15.63.87,1.24,1.71,1.56,2.13,1-1.12,4.1-6,7.84-15.2a.37.37,0,0,1,.38-.27h0c-.65-4.35.21-7.1.58-7.81.19-.38.65-.91,1.14-.8,1.29.29-.06,3.05,0,3.29,0,.08.47.2.88.53l.28-.07c.21-.68,3.88-3.49,6.65-3.93.51-.08,1.65-.28,1.9.66l0,.23c1.18-.16,2.11,0,2.29.58a1,1,0,0,1-.33.91l-.28.1a.75.75,0,0,1,.14,1.33c-.62.43-1.72.79-2.7,1.35a14.89,14.89,0,0,0-4.23,3.91.31.31,0,0,1,.11.09.41.41,0,0,1,.07.37c-.24.93-5.92,22.71-11.56,25.07a4.08,4.08,0,0,1-1.49.3c-5.06.08-12.49-7.84-14.81-10.45-.2,10.66,2.24,15.2,4,18.54.35.65.67,1.24.94,1.82v0c20.63-7.35,29.24-6.55,37-1.95,6.9,4.09,25.15,17.39,27.76,19.29l1.14-.75c2-1.27,5.73-3.64,7.81-6a4.8,4.8,0,0,1,3.32-1.86,3.55,3.55,0,0,1,2.68,1.14L173,122l-13.49,19.78-1.8-1.23h0l-.25-.18h0l-.35-.25c-.33-.23-2-1.56-3.42-2.72-.87-.7-1.76-1.42-2.08-1.66l-.09.12h-.1L120.53,123a6.3,6.3,0,0,0-5.24-.31l0,.06a20.87,20.87,0,0,1,3.26,2.71l23.34,24.88c.29-.13.68-.29,1.28-.52,2.21-.87,6.32-2.48,8.83-4.43a4.86,4.86,0,0,1,3.62-1.19,3.62,3.62,0,0,1,2.39,1.62l1.59,1.62Zm31.67-18.17-.73.59a0,0,0,0,0,0,.05l.52.77a0,0,0,0,1,0,.06l-.91-.2a0,0,0,0,0-.05,0l-.27.9a0,0,0,0,1-.08,0l-.41-.84s0,0-.05,0l-.87.35s-.06,0,0-.06l.41-.84s0,0,0-.05l-.81-.47a0,0,0,0,1,0-.08l.91-.21s0,0,0,0l-.14-.93a0,0,0,0,1,.07,0l.73.58s0,0,0,0l.64-.68a0,0,0,0,1,.07,0v.94a0,0,0,0,0,0,0l.93.07A0,0,0,0,1,174.18,146.05Z"/><path d="M67.16,56.39l.28,0,0-.08Z"/><path d="M67.26,73.35c0-5.82-.31-11.12.18-16.94h0l-.28,0-.16,0a119.3,119.3,0,0,0-.22,12.08c0,1.68,0,3.38,0,5.13h0a2.76,2.76,0,0,1,.25-.21Z"/><path d="M77.56,72.52l-.43,0,.07.18.5.09.26.08c.09,0,.18.08.27.12h0a17.61,17.61,0,0,1-1.14-4.56c-.13-.8-.27-1.63-.44-2.37v0a2.77,2.77,0,0,1-.41.12C76.7,68.19,76.86,70.61,77.56,72.52Z"/><path d="M154.19,136.71c1.37,1.11,3.07,2.48,3.38,2.69l.12.09,12.55-18.41a2.67,2.67,0,0,0-1.76-.65,4,4,0,0,0-2.71,1.57c-2.16,2.49-6,4.9-8,6.2-.62.4-1.21.77-1.34.89l-4.23,6C152.55,135.39,153.12,135.85,154.19,136.71Z"/><polygon points="141.9 162.36 142.52 162.99 158.34 147.39 157.65 146.69 141.9 162.36"/><polygon points="159.26 140.56 171.77 122.2 170.96 121.65 158.53 140.06 159.26 140.56"/><path d="M58,90.46a.44.44,0,0,1,.21.5c0,.11-2.91,10.72-.55,29.29l32.77-9.5q-.31-.63-.69-1.32c-1.9-3.54-4.51-8.4-4.1-20.05h0a.43.43,0,0,1,.16-.31.4.4,0,0,1,.31-.1.46.46,0,0,1,.3.15c.1.12,9.56,11.32,15,10.95a3.17,3.17,0,0,0,1-.24c4.79-2,10-20.59,10.92-24l-5.3-.18c-3.85,9.43-7.69,15.63-8.57,15.63h0c-.3,0-.3,0-2.21-2.66-2.54-3.53-7.83-10.88-10-11.87-1.71-.78-7.67-1-7.73-1a.41.41,0,0,1-.31-.14.42.42,0,0,1-.11-.31,2.35,2.35,0,0,0-1.43-1.6l-.16,0a16.74,16.74,0,0,0-3.68-.31,23.66,23.66,0,0,0-6.24.78,2.35,2.35,0,0,0-.93,1.44l-.12.34a.44.44,0,0,1-.41.28h-.43c-2.28,0-7.28.31-8.69,2l-.44.51C44.52,92.57,44.34,92.57,44,92.58h0c-.34,0-.78-.44-7.91-15.08l-5.2.14c.91,3.45,6.23,22.73,11.14,24.4a2.23,2.23,0,0,0,.7.11c3.79,0,11.77-8.23,14.71-11.6a.41.41,0,0,1,.32-.15h0A.54.54,0,0,1,58,90.46Z"/><path d="M155.44,145a4,4,0,0,0-2.95,1c-2.61,2-6.79,3.67-9,4.55a15.41,15.41,0,0,0-1.48.62l-5.32,5.12c.28.31.75.86,1.62,1.9,1.14,1.35,2.55,3,2.81,3.31l.11.11L157.05,146A2.58,2.58,0,0,0,155.44,145Z"/><path class="cls-2" d="M157.93,140.18h0l-.08-.06Z"/><polygon class="cls-2" points="114.11 75.1 114.11 75.1 114.11 75.1 114.11 75.1"/><path class="cls-2" d="M107.74,74.82l6.15.2h0l-6.15-.2h0Z"/><path class="cls-2" d="M113.89,75a.37.37,0,0,1,.22.08A.37.37,0,0,0,113.89,75Z"/><path class="cls-2" d="M73.54,72.51c-.62,0-1.25,0-1.85.09C72.29,72.55,72.92,72.52,73.54,72.51Z"/><path class="cls-2" d="M75.68,72.56l-.5,0Z"/><path class="cls-2" d="M76.38,72.62l-.5,0Z"/><path class="cls-2" d="M73.71,72.51a4.51,4.51,0,0,1,.52,0C74.06,72.51,73.89,72.5,73.71,72.51Z"/><path class="cls-2" d="M67.69,73.2a15.18,15.18,0,0,1,2-.39,17.85,17.85,0,0,0-2,.38Z"/><path class="cls-2" d="M70.25,72.74l-.5.06Z"/><path class="cls-2" d="M75,72.52h0Z"/><path class="cls-2" d="M71.6,72.6l-.53.05Z"/><path class="cls-2" d="M70.9,72.67l-.5,0Z"/><path class="cls-2" d="M67.26,73.35h0a3.47,3.47,0,0,1,.43-.15h0Z"/><path class="cls-2" d="M30.31,76.8l6-.16h0l-6,.16a.33.33,0,0,0-.14,0h0A.33.33,0,0,1,30.31,76.8Z"/><path class="cls-2" d="M91.41,110.9a.59.59,0,0,1,0,.14A.59.59,0,0,0,91.41,110.9Z"/><path class="cls-2" d="M86.43,90.48h0c2.32,2.61,9.75,10.53,14.81,10.45C96.18,101,88.75,93.09,86.43,90.48Z"/><path class="cls-2" d="M55.9,78.09l.45-.51c1.86-2.15,8-2.23,9.47-2.24v0a3.48,3.48,0,0,1,1-1.68h0a3.48,3.48,0,0,0-1,1.68v0c-1.48,0-7.61.09-9.47,2.24l-.45.51C53,81.42,45.73,89.85,44.09,91.51h0C45.73,89.85,53,81.42,55.9,78.09Z"/><path class="cls-2" d="M107.33,75.09a.37.37,0,0,1,.38-.27.37.37,0,0,0-.38.27c-3.74,9.23-6.88,14.08-7.84,15.2h0C100.45,89.18,103.59,84.32,107.33,75.09Z"/><path class="cls-2" d="M29.9,77.34A.44.44,0,0,1,30,77a.36.36,0,0,1,.19-.13h0A.36.36,0,0,0,30,77a.44.44,0,0,0-.08.37c.25,1,6,23.55,11.84,25.53a2.77,2.77,0,0,0,.78.14,2.77,2.77,0,0,1-.78-.14C35.94,100.89,30.15,78.3,29.9,77.34Z"/><path class="cls-2" d="M36.59,76.71a.39.39,0,0,1,.14.17A.46.46,0,0,0,36.59,76.71Z"/><path class="cls-2" d="M36.38,76.64a.38.38,0,0,1,.21.07A.31.31,0,0,0,36.38,76.64Z"/><path class="cls-2" d="M77.05,72.71l-.65-.09Z"/><path class="cls-2" d="M56.83,120.86c-1.95-14.86-.57-24.78.14-28.5h0c-.72,3.72-2.09,13.64-.14,28.5a.4.4,0,0,0,.19.31.48.48,0,0,0,.23.07h0a.48.48,0,0,1-.23-.07A.4.4,0,0,1,56.83,120.86Z"/><path class="cls-2" d="M67.12,73.41l.14-.06h0l-.14.06a2.76,2.76,0,0,0-.25.21h0C67,73.55,67,73.48,67.12,73.41Z"/><path class="cls-2" d="M77.66,73.73a2.35,2.35,0,0,1,1.43,1.6.42.42,0,0,0,.11.31.41.41,0,0,0,.31.14c.06,0,6,.23,7.73,1,2.16,1,7.45,8.34,10,11.87,1.91,2.66,1.91,2.66,2.21,2.66h0c-.3,0-.3,0-2.21-2.66-2.54-3.53-7.83-10.88-10-11.87-1.72-.78-7.68-1-7.74-1a.41.41,0,0,1-.31-.14.47.47,0,0,1-.11-.31,2.36,2.36,0,0,0-1.42-1.6l-.17,0a16.74,16.74,0,0,0-3.68-.31,16.74,16.74,0,0,1,3.68.31Z"/><path class="cls-2" d="M57.43,90.56c-2.94,3.37-10.92,11.55-14.71,11.6,3.79,0,11.77-8.23,14.71-11.6a.41.41,0,0,1,.32-.15h0A.41.41,0,0,0,57.43,90.56Z"/><path class="cls-2" d="M102.4,99.83a3.17,3.17,0,0,1-1,.24,3.17,3.17,0,0,0,1-.24c4.79-2,10-20.59,10.92-24l-5.3-.18h0l5.3.18C112.4,79.24,107.19,97.82,102.4,99.83Z"/><path class="cls-2" d="M85.79,89.07a.43.43,0,0,0-.16.31h0c-.41,11.65,2.2,16.51,4.1,20.05q.38.69.69,1.32l-32.77,9.5h0l32.77-9.5q-.31-.63-.69-1.32c-1.9-3.54-4.51-8.4-4.1-20.05h0a.43.43,0,0,1,.16-.31.4.4,0,0,1,.31-.1A.4.4,0,0,0,85.79,89.07Z"/><path class="cls-2" d="M66.12,76.21Z"/><path class="cls-2" d="M44,92.59c-.34,0-.78-.45-7.91-15.08h0C43.21,92.15,43.65,92.6,44,92.59Z"/><path class="cls-1" d="M108.12,76.41H108a.44.44,0,0,1-.27-.09c-3.75,9.07-7.44,15-8.3,15h0c-.3,0-.3,0-2.21-2.66-2.54-3.53-7.83-10.88-10-11.87-1.72-.78-7.68-1-7.74-1a.41.41,0,0,1-.31-.14.47.47,0,0,1-.11-.31,2.36,2.36,0,0,0-1.42-1.6l-.17,0a25.4,25.4,0,0,0-9.92.47,2.35,2.35,0,0,0-.93,1.44l-.12.34a.44.44,0,0,1-.41.28h0c-2,0-7.6.2-9.11,1.94l-.44.51C44.52,92.57,44.34,92.57,44,92.58s-.58,0-7.62-14.38c0,0,0,.11,0,.16a.43.43,0,0,1-.4.27.51.51,0,0,1-.17,0,.43.43,0,0,1-.23-.56l.18-.52-4.86.13c.91,3.45,6.23,22.73,11.14,24.4,3.41,1.17,12.28-7.9,15.41-11.49a.41.41,0,0,1,.32-.15.54.54,0,0,1,.21,0,.44.44,0,0,1,.21.5c0,.11-2.91,10.72-.55,29.29l32.77-9.5q-.31-.63-.69-1.32c-1.9-3.54-4.51-8.4-4.1-20.05h0a.44.44,0,0,1,.77-.26c.11.13,10.87,12.87,16,10.71,4.79-2,10-20.59,10.92-24l-4.92-.17a1,1,0,0,0,0,.18A.45.45,0,0,1,108.12,76.41Z"/><path d="M30,77a.43.43,0,0,1,.33-.17h.29s0,0,0-.06c-.3-1-2.57-3.22-4.49-4.39a15,15,0,0,0-1.42-.74A7.7,7.7,0,0,1,23.47,71a.42.42,0,0,1-.15-.34.22.22,0,0,1,.12-.2,1.21,1.21,0,0,1,.71-.09A11.75,11.75,0,0,1,29,72.83a.42.42,0,0,0,.61,0,.43.43,0,0,0,0-.61,12.22,12.22,0,0,0-5.26-2.74,2.07,2.07,0,0,0-1.29.2,1.07,1.07,0,0,0-.54.9,1.27,1.27,0,0,0,.5,1.08,8,8,0,0,0,1.35.73c.44.22.91.44,1.34.7,1.92,1.16,3.92,3.25,4.11,3.9a.48.48,0,0,0,.14.2A.39.39,0,0,1,30,77Z"/><path d="M36.73,76.88l.05.09c.74-3.36,0-7.73-.39-8.44-.59-1-1.19-1.11-1.57-1a1.1,1.1,0,0,0-.73.5c-.4.65-.16,1.65.14,2.7a1.58,1.58,0,0,0,.08.28,2.93,2.93,0,0,0-.84.53,2.24,2.24,0,0,0-.72,2.11.43.43,0,1,0,.86-.12,1.41,1.41,0,0,1,.44-1.35,2.44,2.44,0,0,1,.7-.42.74.74,0,0,0,.42-.33c.09-.21,0-.42-.11-.94s-.46-1.63-.23-2a.19.19,0,0,1,.15-.1c.12,0,.37.12.67.62A17.69,17.69,0,0,1,36,76.65h.37A.38.38,0,0,1,36.73,76.88Z"/><path d="M35.79,78.6a.51.51,0,0,0,.17,0,.43.43,0,0,0,.4-.27s0-.11,0-.16l-.33-.69h-.34l-.18.52A.43.43,0,0,0,35.79,78.6Z"/><path d="M121.06,68.1A2.36,2.36,0,0,0,120,68a12.15,12.15,0,0,0-5.27,2.61.43.43,0,0,0,.59.63,11.61,11.61,0,0,1,4.81-2.39,1.51,1.51,0,0,1,.66.06c.17.06.2.15.2.21a.44.44,0,0,1-.15.37,8.2,8.2,0,0,1-1.23.62,13.54,13.54,0,0,0-1.43.71A14.55,14.55,0,0,0,113.67,75h.22a.43.43,0,0,1,.33.17.41.41,0,0,1,.07.37l0,.15s.07-.06.08-.1a13,13,0,0,1,4.23-4,13.16,13.16,0,0,1,1.36-.67,7.9,7.9,0,0,0,1.37-.71A1.31,1.31,0,0,0,121.8,69,1.14,1.14,0,0,0,121.06,68.1Z"/><path d="M107.75,76.33a.44.44,0,0,0,.27.09h.1a.45.45,0,0,0,.32-.53,1,1,0,0,1,0-.18H108Z"/><path d="M107.74,74.82h.47a14.13,14.13,0,0,1,.46-7.62c.16-.31.47-.63.66-.58a.25.25,0,0,1,.16.1c.22.39-.11,1.48-.28,2s-.22.73-.13.94a.75.75,0,0,0,.42.33,3.12,3.12,0,0,1,.59.36,1.41,1.41,0,0,1,.5,1.44.43.43,0,0,0,.36.5.42.42,0,0,0,.49-.36,2.28,2.28,0,0,0-.81-2.26,3.5,3.5,0,0,0-.68-.41c0-.09.06-.18.09-.29a3.7,3.7,0,0,0,.2-2.69,1.09,1.09,0,0,0-.72-.51,1.62,1.62,0,0,0-1.62,1,14.86,14.86,0,0,0-.53,8.21A.34.34,0,0,1,107.74,74.82Z"/></svg>