<svg id="Layer_1" data-name="Layer 1" xmlns="http://www.w3.org/2000/svg" viewBox="0 0 200 200"><defs><style>.cls-1{fill:none;}</style></defs><title>Larry_</title><path class="cls-1" d="M100.87,172.93H109c0-1.36,0-3.11.06-5.2.06-4.83.14-11.38.2-18.6h0a178.68,178.68,0,0,1-5.61-37.3.44.44,0,0,1,.42-.44.47.47,0,0,1,.45.42c.34,11.22,2.18,23.39,5.61,37.21,2.16,8.74,4.67,17,6.85,23.91h8.43l0-2.65c.12-13.5.31-36.05.21-55.28-4.22-1.33-6.57-4.31-6.46-8.24a.43.43,0,0,1,.44-.42.43.43,0,0,1,.42.44c-.13,4.67,3.52,6.59,5.6,7.31,0-3.49,0-6.86-.09-10L88.55,104C89.25,132.75,95.88,157.05,100.87,172.93Z"/><path class="cls-1" d="M107.3,69.47a10.32,10.32,0,0,0-3.86-.54,10.36,10.36,0,0,0-3.86.54,10.14,10.14,0,0,0,3.86.54A10.1,10.1,0,0,0,107.3,69.47Z"/><path class="cls-1" d="M102.68,19.68c-6.78-2.75-7.64-2-7.74-1.76a.46.46,0,0,0,0,.48c.73,1.34,5.41,2.45,6.63,2.66A14.8,14.8,0,0,1,102.68,19.68Z"/><path class="cls-1" d="M109.93,19.24a3.56,3.56,0,0,0-2.58-1.39,4.63,4.63,0,0,0-3.17,1.51c3,1.26,5.83,2.64,7.31,3.37A8,8,0,0,0,109.93,19.24Z"/><path class="cls-1" d="M103.34,84.59a11.69,11.69,0,0,0,2.42-.3l.21-1.85a15.47,15.47,0,0,1-2.22.18,11.31,11.31,0,0,1-2.8-.33l.23,2A8.38,8.38,0,0,0,103.34,84.59Z"/><path class="cls-1" d="M122.88,71.71l2-.49c-1.23-1.44-2-2.46-2.76-3.44l-.07-.08c.11.76.26,1.84.44,3.21l.17,0Z"/><rect class="cls-1" x="87.02" y="181.35" width="15.29" height="0.99"/><path class="cls-1" d="M109.62,80.59h0a5.69,5.69,0,0,1-.41-4.72l-.06,0a.28.28,0,0,0,0-.12.52.52,0,0,0-.1-.56.41.41,0,0,0-.16-.19h0a2.58,2.58,0,0,0-1.21-.75l-.07.62s0,0,0,.07h0l0,.06c-.45,1.19-2,1.48-3.36,1.48a12.73,12.73,0,0,1-2-.17,5.39,5.39,0,0,1-2.82-1.42.42.42,0,0,0-.22.13.63.63,0,0,0-.19.48,1.78,1.78,0,0,0,.94,1.25,6.66,6.66,0,0,0,4.45.77.43.43,0,1,1,.13.86,8.79,8.79,0,0,1-1.26.09,7.2,7.2,0,0,1-3.64-.92.64.64,0,0,0-.5.15A.35.35,0,0,0,99,78c0,.35.35.73.9,1a7.12,7.12,0,0,0,4.4.7.42.42,0,0,1,.48.37.43.43,0,0,1-.37.48,8.86,8.86,0,0,1-1.25.09,7.53,7.53,0,0,1-3.55-.82h0a.53.53,0,0,0-.44.07.38.38,0,0,0-.13.26c0,.18.41.69,1.61,1.1a11.3,11.3,0,0,0,5.69.22,19,19,0,0,0,3-.85l.25-.09Z"/><path class="cls-1" d="M74,39.67l-.11-.38a.43.43,0,0,0-.46-.35c-.22,0-.32.31-.28.69l0,.18c.13,1.31.27,2.54-.34,3.21l0,0a.4.4,0,0,1-.38.21,2,2,0,0,0-1.41.58.72.72,0,0,0-.11.7.43.43,0,0,1-.29.54l-.12,0a.44.44,0,0,1-.42-.31,1.62,1.62,0,0,1,.25-1.48,2.67,2.67,0,0,1,1.53-.86c-1-2.47-3-5.59-4.39-6.07a.6.6,0,0,0-.53,0c-.13.08-.17.15-.11.33a2.7,2.7,0,0,0,.69.92A9.29,9.29,0,0,1,70,41.17a.43.43,0,0,1-.24.56.44.44,0,0,1-.56-.25,8.49,8.49,0,0,0-2.3-3.24,3.72,3.72,0,0,1-.8-1s0,0-.06,0a1.45,1.45,0,0,0-1.17-.6c-.33,0-.38.09-.47.37s0,.41.43.77a22,22,0,0,1,3.45,4.5.43.43,0,0,1-.2.57.45.45,0,0,1-.19,0,.44.44,0,0,1-.39-.24,20.62,20.62,0,0,0-3.13-4.11h0a.37.37,0,0,0-.32,0,.51.51,0,0,0-.3.32c0,.42.52,1,.89,1.44l.24.28a13.75,13.75,0,0,1,2.76,4.35l0,.09c.89,2.56,1.7,3.93,2.41,4.08l4.08-1.78a.36.36,0,0,1,0-.09C75.6,45.08,74.51,41.43,74,39.67Z"/><polygon class="cls-1" points="103.22 182.33 125.43 182.33 125.43 181.45 103.22 181.35 103.22 182.33"/><path class="cls-1" d="M99.62,70.41l.44,3.86c.24.58,1.74,1.13,2.34,1.23,1.85.29,4,.24,4.41-.76l.51-4.38a13.14,13.14,0,0,1-3.88.52A13.59,13.59,0,0,1,99.62,70.41Z"/><path class="cls-1" d="M112.78,30a2.1,2.1,0,0,0,.45.19,1.81,1.81,0,0,0,1.94-.39c.45-.59.15-2.41-.7-3.22-.48-.45-1-.41-1.6.1a4.73,4.73,0,0,0-.78.92.43.43,0,0,1-.6.11.42.42,0,0,1-.11-.6,6.06,6.06,0,0,1,.72-.88v-.09c-.1-.72-.21-1.54-.37-2.37l-.5-.24c-1.49-.73-4.56-2.23-7.69-3.54a17.88,17.88,0,0,0-1.41,1.75,24.81,24.81,0,0,0-3.34,6.87C97.92,32,102.85,39.51,103.93,40a3.45,3.45,0,0,0,.43.12c1.84.34,4.3-1.38,5.1-3a.42.42,0,0,1,.58-.2.43.43,0,0,1,.2.57A6.71,6.71,0,0,1,104.86,41l-.22,0c-.13.64-.25,1.32-.36,2a23.7,23.7,0,0,1-.91,4.17,26.16,26.16,0,0,1,9.46.15c0-1.54,0-3,0-4.53.06-4,.12-7.79-.21-11.86-.11-.05-.22-.08-.31-.13a.43.43,0,0,1-.17-.59A.44.44,0,0,1,112.78,30Zm-.06-2.14a.44.44,0,0,1,.61,0,2,2,0,0,0,1.26.51h0a.43.43,0,0,1,.43.43.48.48,0,0,1-.44.44,2.84,2.84,0,0,1-1.85-.75A.44.44,0,0,1,112.72,27.89Zm-11.17,2.46a.42.42,0,1,1,.06-.83.42.42,0,0,1-.06.83Zm.84,2.44.16-.66c.26-1.12.66-2.81.35-3.56a.51.51,0,0,0-.28-.21,2.51,2.51,0,0,0-1.56,0,.43.43,0,0,1-.36-.78,3.22,3.22,0,0,1,2.23,0,1.28,1.28,0,0,1,.77.68c.41,1,0,2.72-.31,4.09-.06.23-.11.45-.15.64-.25,1.15-.12,1.47,0,1.56s.27.07.51,0a.43.43,0,0,1,.54.3.42.42,0,0,1-.29.53,2.21,2.21,0,0,1-.58.1,1.12,1.12,0,0,1-.77-.28C102.08,34.66,102.2,33.68,102.39,32.79Zm3.79,4.58a2.31,2.31,0,0,1-1.65.68,2,2,0,0,1-.48,0,1.71,1.71,0,0,1-1.31-1,.44.44,0,0,1,.81-.32.9.9,0,0,0,.67.44,1.52,1.52,0,0,0,1.34-.39.43.43,0,0,1,.61,0A.44.44,0,0,1,106.18,37.37ZM107,30.5a.42.42,0,0,1-.38-.45.4.4,0,0,1,.44-.38.42.42,0,0,1,.39.44A.43.43,0,0,1,107,30.5Zm2-2a.47.47,0,0,1-.33.14.42.42,0,0,1-.29-.11,2.31,2.31,0,0,0-2-.36.43.43,0,0,1-.57-.21.44.44,0,0,1,.21-.58,3.16,3.16,0,0,1,2.89.51A.44.44,0,0,1,109.06,28.54Z"/><path d="M107.1,29.67a.4.4,0,0,0-.44.38.42.42,0,0,0,.38.45.43.43,0,0,0,.45-.39A.42.42,0,0,0,107.1,29.67Z"/><path d="M101.61,29.52a.42.42,0,1,0-.06.83.42.42,0,0,0,.06-.83Z"/><path d="M106.13,27.42a.44.44,0,0,0-.21.58.43.43,0,0,0,.57.21,2.31,2.31,0,0,1,2,.36.42.42,0,0,0,.29.11.47.47,0,0,0,.33-.14.44.44,0,0,0,0-.61A3.16,3.16,0,0,0,106.13,27.42Z"/><path d="M114.59,29.25a.48.48,0,0,0,.44-.44.43.43,0,0,0-.43-.43h0a2,2,0,0,1-1.26-.51.43.43,0,0,0-.59.63A2.84,2.84,0,0,0,114.59,29.25Z"/><path d="M104,35.35a.42.42,0,0,0,.29-.53.43.43,0,0,0-.54-.3c-.24.08-.43.08-.51,0s-.22-.41,0-1.56c0-.19.09-.41.15-.64.32-1.37.72-3.08.31-4.09a1.28,1.28,0,0,0-.77-.68,3.22,3.22,0,0,0-2.23,0,.43.43,0,0,0,.36.78,2.51,2.51,0,0,1,1.56,0,.51.51,0,0,1,.28.21c.31.75-.09,2.44-.35,3.56l-.16.66c-.19.89-.31,1.87.23,2.38a1.12,1.12,0,0,0,.77.28A2.21,2.21,0,0,0,104,35.35Z"/><path d="M105.56,36.77a1.52,1.52,0,0,1-1.34.39.9.9,0,0,1-.67-.44.44.44,0,0,0-.81.32,1.71,1.71,0,0,0,1.31,1,2,2,0,0,0,.48,0,2.31,2.31,0,0,0,1.65-.68.44.44,0,0,0,0-.61A.43.43,0,0,0,105.56,36.77Z"/><path d="M106.34,81.52a11.3,11.3,0,0,1-5.69-.22c-1.2-.41-1.61-.92-1.61-1.1a.38.38,0,0,1,.13-.26.53.53,0,0,1,.44-.07h0a7.53,7.53,0,0,0,3.55.82,8.86,8.86,0,0,0,1.25-.09.43.43,0,0,0,.37-.48.42.42,0,0,0-.48-.37,7.12,7.12,0,0,1-4.4-.7c-.55-.32-.88-.7-.9-1a.35.35,0,0,1,.12-.26.64.64,0,0,1,.5-.15,7.2,7.2,0,0,0,3.64.92,8.79,8.79,0,0,0,1.26-.09.43.43,0,1,0-.13-.86,6.66,6.66,0,0,1-4.45-.77A1.78,1.78,0,0,1,99,75.54a.63.63,0,0,1,.19-.48.42.42,0,0,1,.22-.13,5.39,5.39,0,0,0,2.82,1.42,12.73,12.73,0,0,0,2,.17c1.39,0,2.91-.29,3.36-1.48l0-.06h0s0,0,0-.07l.07-.62a2.58,2.58,0,0,1,1.21.75c3.23-1.76,8.31-2.91,11.67-3.68l1.65-.38.25-.06c-.18-1.37-.33-2.45-.44-3.21l.07.08c.75,1,1.53,2,2.76,3.44l-2,.49h0l-.42.1-1.66.38c-3.32.76-8.33,1.9-11.45,3.6l-.14.08a5.69,5.69,0,0,0,.41,4.72h0c1.89.55,8.61.43,14.33-.52,4.25-.77,9.12-1.87,10.68-2.76,2.66-1.53,3.21-3.57,1.79-6.6C132.8,63,125.53,53,125.46,52.88l-.08-.08c-2.24-1.85-9.1-3-10.53-3.23l0-.11a3.73,3.73,0,0,0-1.11-1.74c0-1.67,0-3.31,0-4.92.06-3.93.11-7.64-.2-11.64.14,0,.28,0,.42,0a2.3,2.3,0,0,0,1.89-.83c.75-1,.32-3.32-.8-4.38a1.81,1.81,0,0,0-2.17-.32c-.1-.7-.2-1.45-.36-2.24a9.82,9.82,0,0,0-2-4.76,4.41,4.41,0,0,0-3.2-1.68,5.83,5.83,0,0,0-4.06,2c-7.23-3-8.69-2.35-9.14-1.47a1.32,1.32,0,0,0,0,1.29c.89,1.62,5.17,2.66,6.86,3a25.69,25.69,0,0,0-3.11,6.6C97,32.09,102,40.11,103.61,40.75l.18,0c-.14.67-.25,1.37-.36,2.05a19.07,19.07,0,0,1-1.13,4.69,3.48,3.48,0,0,0-1.55,2c-1.28,0-5.16.08-7.73,1.49a81.64,81.64,0,0,0-13,9.75c-1.77-4-4.41-10.89-5.14-13.08,1.69-2.46.52-6.37,0-8.25l-.11-.37a1.3,1.3,0,0,0-1.46-1,1.36,1.36,0,0,0-1,1.63l0,.18a13.67,13.67,0,0,1,.1,1.66c-1-2.39-3.06-5.43-4.67-6a1.41,1.41,0,0,0-1.27.09,1.07,1.07,0,0,0-.4.42,2.13,2.13,0,0,0-1.28-.37,1.33,1.33,0,0,0-1.09,2l-.09,0a1.34,1.34,0,0,0-.77,1,3.2,3.2,0,0,0,1.1,2.08l.23.25a13.1,13.1,0,0,1,2.6,4.08l0,.1c.67,1.95,1.61,4.17,2.92,4.59.54,3.4,1.28,7.37,2.07,11.56.58,3.11,1.18,6.29,1.71,9.36a.45.45,0,0,0,.18.27h0a2.71,2.71,0,0,0,1.83.46c4.17,0,13.39-3.3,16-4.26-1.57,9.9-4.4,29.25-4.53,36.31a.42.42,0,0,0,.12.31.44.44,0,0,0,.31.13h.33c.69,28.79,7.33,53.15,12.33,69.09l-1.08.46a34.62,34.62,0,0,1-8.8,2.83,4.86,4.86,0,0,0-3.41,1.69,3.59,3.59,0,0,0-.57,2.81h0v1.87a.43.43,0,0,0,.43.43h39.27a.43.43,0,0,0,.43-.43v-1.91h0c0-.71,0-3.55,0-7.49l0-3.08c.12-13.45.32-35.88.22-55.07a14.7,14.7,0,0,0,2.76.42h0a.44.44,0,0,0,.43-.41.44.44,0,0,0-.41-.46,12.79,12.79,0,0,1-2.81-.44c0-3.57,0-7-.1-10.24h.14a.41.41,0,0,0,.31-.14.41.41,0,0,0,.12-.32c-.09-1.7-1.08-8.49-2.23-16.36-.3-2.08-.61-4.21-.91-6.32a67,67,0,0,1-10.09.83,15.14,15.14,0,0,1-4.85-.51.37.37,0,0,1-.23-.39M74.09,47.29,70,49.07c-.71-.15-1.52-1.52-2.41-4.08l0-.09a13.75,13.75,0,0,0-2.76-4.35l-.24-.28c-.37-.41-.92-1-.89-1.44a.51.51,0,0,1,.3-.32.37.37,0,0,1,.32,0h0a20.62,20.62,0,0,1,3.13,4.11.44.44,0,0,0,.39.24.45.45,0,0,0,.19,0,.43.43,0,0,0,.2-.57,22,22,0,0,0-3.45-4.5c-.38-.36-.5-.57-.43-.77s.14-.35.47-.37a1.45,1.45,0,0,1,1.17.6s0,0,.06,0a3.72,3.72,0,0,0,.8,1,8.49,8.49,0,0,1,2.3,3.24.44.44,0,0,0,.56.25.43.43,0,0,0,.24-.56,9.29,9.29,0,0,0-2.49-3.54,2.7,2.7,0,0,1-.69-.92c-.06-.18,0-.25.11-.33a.6.6,0,0,1,.53,0c1.34.48,3.43,3.6,4.39,6.07a2.67,2.67,0,0,0-1.53.86A1.62,1.62,0,0,0,70,44.78a.44.44,0,0,0,.42.31l.12,0a.43.43,0,0,0,.29-.54.72.72,0,0,1,.11-.7,2,2,0,0,1,1.41-.58.4.4,0,0,0,.38-.21l0,0c.61-.67.47-1.9.34-3.21l0-.18c0-.38.06-.65.28-.69a.43.43,0,0,1,.46.35l.11.38c.53,1.76,1.62,5.41.15,7.53A.36.36,0,0,0,74.09,47.29Zm28.23,135H87v-1h15.3Zm23.11,0H103.22v-1h-.89v-.26c0-3.82,2-4.57,4-4.8a20.35,20.35,0,0,0,3.57-.81c0-.65,0-1.69,0-2.11,0-1.41,0-3.33.06-5.63.06-4.12.12-9.48.18-15.44,2,7.52,4.11,14.6,6,20.71l.27.81c-.27.1-.55.23-1,.44a34.68,34.68,0,0,1-9,2.89c-2,.23-3.24,1-3.21,3.92l0,.28,22.21.1ZM103.75,82.62a15.47,15.47,0,0,0,2.22-.18l-.21,1.85a11.69,11.69,0,0,1-2.42.3,8.38,8.38,0,0,1-2.16-.29l-.23-2A11.31,11.31,0,0,0,103.75,82.62Zm21.87,21.47c0,3.14.07,6.51.09,10-2.08-.72-5.73-2.64-5.6-7.31a.43.43,0,0,0-.42-.44.43.43,0,0,0-.44.42c-.11,3.93,2.24,6.91,6.46,8.24.1,19.23-.09,41.78-.21,55.28l0,2.65h-8.43c-2.18-6.93-4.69-15.17-6.85-23.91-3.43-13.82-5.27-26-5.61-37.21a.47.47,0,0,0-.45-.42.44.44,0,0,0-.42.44,178.68,178.68,0,0,0,5.61,37.3h0c-.06,7.22-.14,13.77-.2,18.6,0,2.09,0,3.84-.06,5.2h-8.17c-5-15.88-11.62-40.18-12.32-68.91ZM107.35,17.85a3.56,3.56,0,0,1,2.58,1.39,8,8,0,0,1,1.56,3.49c-1.48-.73-4.33-2.11-7.31-3.37A4.63,4.63,0,0,1,107.35,17.85ZM95,18.4a.46.46,0,0,1,0-.48c.1-.2,1-1,7.74,1.76a14.8,14.8,0,0,0-1.1,1.38C100.36,20.85,95.68,19.74,95,18.4Zm7.71,41.33a.43.43,0,1,1,.61.61c-1.14,1.12-1.4,2-.94,3a5.21,5.21,0,0,0,.34.59,4,4,0,0,1,.55,1.12,3,3,0,0,1-.82,2.4.41.41,0,0,1-.32.15.46.46,0,0,1-.29-.11.43.43,0,0,1,0-.61,2.16,2.16,0,0,0,.62-1.63,3.29,3.29,0,0,0-.43-.86,5.64,5.64,0,0,1-.4-.7C100.76,61.92,101.73,60.64,102.66,59.73Zm.78,9.2a10.32,10.32,0,0,1,3.86.54,10.1,10.1,0,0,1-3.86.54,10.14,10.14,0,0,1-3.86-.54A10.36,10.36,0,0,1,103.44,68.93Zm1.43-5.59a5.07,5.07,0,0,0,.33.59,3.89,3.89,0,0,1,.55,1.12,3,3,0,0,1-.81,2.4.44.44,0,0,1-.33.15.44.44,0,0,1-.32-.72,2.16,2.16,0,0,0,.62-1.63,3.19,3.19,0,0,0-.44-.86,5.52,5.52,0,0,1-.39-.7c-.78-1.77.18-3,1.11-4a.43.43,0,1,1,.61.61C104.67,61.46,104.41,62.3,104.87,63.34Zm1.94,11.4c-.45,1-2.56,1.05-4.41.76-.6-.1-2.1-.65-2.34-1.23l-.44-3.86a13.59,13.59,0,0,0,3.82.47,13.14,13.14,0,0,0,3.88-.52Zm5.55-43.95c.09.05.2.08.31.13.33,4.07.27,7.86.21,11.86,0,1.49,0,3,0,4.53a26.16,26.16,0,0,0-9.46-.15,23.7,23.7,0,0,0,.91-4.17c.11-.71.23-1.39.36-2l.22,0a6.71,6.71,0,0,0,5.38-3.57.43.43,0,0,0-.2-.57.42.42,0,0,0-.58.2c-.8,1.65-3.26,3.37-5.1,3a3.45,3.45,0,0,1-.43-.12c-1.08-.44-6-7.92-5.15-11.31a24.81,24.81,0,0,1,3.34-6.87A17.88,17.88,0,0,1,103.53,20c3.13,1.31,6.2,2.81,7.69,3.54l.5.24c.16.83.27,1.65.37,2.37v.09a6.06,6.06,0,0,0-.72.88.42.42,0,0,0,.11.6.43.43,0,0,0,.6-.11,4.73,4.73,0,0,1,.78-.92c.6-.51,1.12-.55,1.6-.1.85.81,1.15,2.63.7,3.22a1.81,1.81,0,0,1-1.94.39,2.1,2.1,0,0,1-.45-.19.44.44,0,0,0-.59.17A.43.43,0,0,0,112.36,30.79Z"/></svg>