<svg id="Layer_1" data-name="Layer 1" xmlns="http://www.w3.org/2000/svg" viewBox="0 0 200 200"><defs><style>.cls-1{fill:none;}</style></defs><title>Larry_</title><path class="cls-1" d="M87.25,28.22h0a3.62,3.62,0,0,0-2.6,1.36A8.09,8.09,0,0,0,83,33c1.5-.7,4.36-2,7.36-3.26A4.75,4.75,0,0,0,87.25,28.22Z"/><path class="cls-1" d="M99.62,29a.46.46,0,0,0,0-.48c-.1-.2-.94-1-7.77,1.64A16.61,16.61,0,0,1,93,31.52C94.14,31.33,98.88,30.28,99.62,29Z"/><polygon class="cls-1" points="155.12 145.88 135.53 156.51 135.98 157.34 155.59 146.75 155.12 145.88"/><path class="cls-1" d="M154.82,151.14h-5.55L136,158.3a.42.42,0,0,1-.21.06.45.45,0,0,1-.38-.23l-.82-1.54h0l-.07-.14a.42.42,0,0,1,.11-.52l-2.74-4.79H118.47c.06,2.13.13,4.4.21,6.83.25.09.58.23,1,.43h35.11Z"/><path class="cls-1" d="M82.21,40.51a.42.42,0,0,1-.18.58,2.23,2.23,0,0,1-.31.12c-.39,4-.38,7.73-.38,11.66,0,1.53,0,3.07,0,4.65a27.55,27.55,0,0,1,9.42-.07,25.57,25.57,0,0,1-.81-4c-.1-.72-.2-1.39-.32-2h-.17a6.7,6.7,0,0,1-5.38-3.64.43.43,0,1,1,.78-.37c.78,1.67,3.22,3.43,5,3.11a3.17,3.17,0,0,0,.44-.12c1.09-.42,6.13-7.83,5.31-11.23a24.5,24.5,0,0,0-3.24-6.91A16,16,0,0,0,91,30.45c-3.17,1.28-6.27,2.73-7.77,3.44l-.48.22c-.16.79-.28,1.58-.39,2.28l0,.18a5.16,5.16,0,0,1,.72.89.44.44,0,0,1-.12.6.44.44,0,0,1-.6-.13,5,5,0,0,0-.8-1A1.06,1.06,0,0,0,80,36.89c-.86.8-1.18,2.61-.74,3.2a1.77,1.77,0,0,0,1.7.47l.23-.05a2.75,2.75,0,0,0,.46-.18A.43.43,0,0,1,82.21,40.51Zm11.3,1.37a.4.4,0,0,1,0-.8.4.4,0,0,1,0,.8Zm-3.25,3.39a.43.43,0,0,1,.55-.26.72.72,0,0,0,.55,0c.09-.08.22-.35.08-1.36,0-.25-.09-.53-.15-.83a5.87,5.87,0,0,1,0-3.42.43.43,0,0,1,.2-.2h.06A4.53,4.53,0,0,1,94.2,39a.43.43,0,0,1,.37.48.42.42,0,0,1-.48.37,4,4,0,0,0-2.08.14,6.06,6.06,0,0,0,.13,2.75c.06.31.12.61.15.88.12.81.17,1.7-.38,2.15a1.13,1.13,0,0,1-.7.23,2,2,0,0,1-.69-.13A.43.43,0,0,1,90.26,45.27Zm-3.85-5.68a1.93,1.93,0,0,1,1.45-.69,2.19,2.19,0,0,1,1.66.47.43.43,0,1,1-.61.61,1.47,1.47,0,0,0-1-.22,1.16,1.16,0,0,0-.82.33.44.44,0,0,1-.35.18.38.38,0,0,1-.25-.08A.42.42,0,0,1,86.41,39.59Zm2.64,1.89a.4.4,0,1,1-.4-.4A.4.4,0,0,1,89.05,41.48Zm-3,4.24a.44.44,0,0,1,.53.31,1.45,1.45,0,0,0,1.12,1,1.42,1.42,0,0,0,1.14-.13.43.43,0,0,1,.61,0,.44.44,0,0,1,0,.61,1.75,1.75,0,0,1-1.32.48,2.93,2.93,0,0,1-.67-.07,2.22,2.22,0,0,1-1.77-1.62A.43.43,0,0,1,86,45.72Zm-6.17-6.2h0a.44.44,0,0,1-.43-.44.43.43,0,0,1,.44-.43h0a2,2,0,0,0,1.25-.49.43.43,0,0,1,.61,0,.44.44,0,0,1,0,.61A2.93,2.93,0,0,1,79.86,39.52Z"/><path class="cls-1" d="M86.15,82.32a5.55,5.55,0,0,0,1.29.73l.7-4.75H83.71a.21.21,0,0,0-.14.07.55.55,0,0,0-.12.39l.15,2.82A3,3,0,0,1,86.15,82.32Z"/><path class="cls-1" d="M85.33,77.44a2.11,2.11,0,1,0-2.67,2.62l-.07-1.26a1.41,1.41,0,0,1,.35-1,1.05,1.05,0,0,1,.77-.34Z"/><path class="cls-1" d="M117.85,128.38c0,.44,0,.89,0,1.37l.06,1.88c0,1.35.08,2.84.12,4.48h4.37l-1.59-2.6Q118.92,130.32,117.85,128.38Z"/><path class="cls-1" d="M125.27,66.53h0a3.63,3.63,0,0,0,2.79-3.43,9.67,9.67,0,0,0-.13-3c-.21-1.21-.77-1.7-1-1.7h0c-.13,0-.25.21-.3.54a3.6,3.6,0,0,0,.12.66,5.76,5.76,0,0,1-.46,4.71,3.26,3.26,0,0,1-.22.34.43.43,0,0,1-.61.09s0,0,0-.06h0l0,0,0,0a.42.42,0,0,1,.05-.55,1,1,0,0,0,.16-.21c.71-1.11.54-3.76-.09-5.14-.22-.47-.48-.78-.7-.81a.44.44,0,0,0-.19,0c-.4.16-.42.32-.19,1.3a5.23,5.23,0,0,1-.44,4.23h0a.1.1,0,0,1,0,0,2.33,2.33,0,0,1-.2.34.44.44,0,0,1-.6.13.42.42,0,0,1-.18-.3s0,0,0,0a.21.21,0,0,1,0-.11.43.43,0,0,1,.06-.18,3.53,3.53,0,0,0,.21-.32,3.14,3.14,0,0,0,.33-2.26,4.22,4.22,0,0,0-1-2,.48.48,0,0,0-.45.09s-.14.13,0,.41c.77,2.1.65,3.32-.39,4.05a4.45,4.45,0,0,1-.55.33c-.37.2-.6.33-.68.56l-.09.26A5.14,5.14,0,0,0,125.27,66.53Z"/><rect class="cls-1" x="109.44" y="166.19" width="22.28" height="1.04"/><path class="cls-1" d="M126.09,58a1.12,1.12,0,0,1,.84-.49h0c.85,0,1.62,1,1.88,2.42a11.83,11.83,0,0,1,.18,2.72,8.11,8.11,0,0,1,5.22.9c.68-3.39,2.78-13.68,3.26-15.9a9.32,9.32,0,0,0-6.87-1.43A6.44,6.44,0,0,0,126,48.83a0,0,0,0,0,0,0l-.68,8.3A2,2,0,0,1,126.09,58Z"/><path class="cls-1" d="M121.27,59.48a1.2,1.2,0,0,1,.25-1.33,1.34,1.34,0,0,1,1.39-.25,1.31,1.31,0,0,1,.47.39,1.24,1.24,0,0,1,.89-1.22l.17,0,.67-8.34c-1-1.06-5.43-5.18-12.86-1.94-.06,1.78-.4,11.78-.76,16.72,1.61-.8,5.69-2.46,9.91-1.11C121.69,62.06,122,61.39,121.27,59.48Z"/><path class="cls-1" d="M118.21,141.81c.07,2.53.14,5.35.23,8.47h13l-.19-.34-1.38-2.13c-1.1-1.7-2.4-3.7-3.7-5.77-1.15-1.82-2.19-3.5-3.16-5.06h-4.88v.29Z"/><path class="cls-1" d="M89.1,84.09a3.87,3.87,0,0,1-.48,0,3.93,3.93,0,0,1-.92-.1,5.25,5.25,0,0,1-2-1c-.7-.48-1.19-.81-2-.56l.11,2a1.84,1.84,0,0,0,1.49.93,6.76,6.76,0,0,0,4.93-1.3l0-.41a2.75,2.75,0,0,1-.92.41A.58.58,0,0,1,89.1,84.09Z"/><path class="cls-1" d="M117.43,121.27c.14,1.28.25,2.91.34,5.12.62,1.25,1.9,3.49,3.82,6.68,1.45,2.39,3.22,5.26,5.27,8.51,1.3,2.07,2.59,4.06,3.69,5.76l1,1.61,7.21-3.84L137.62,142l-.63-1.64h0l-4.61-12.1c-2-5.38-3.22-8.42-3.46-9l-.49-1.21c-3.85-9.65-5-12.61-23.26-12.9l-.65,0-2.51,0H100.7l-3,0C110.07,107,116.42,112.24,117.43,121.27Z"/><path class="cls-1" d="M82.08,91.67l-.09,0a18.85,18.85,0,0,0,2,.61,10.43,10.43,0,0,0,6.19-.21c1-.41,1.36-.92,1.36-1.14a.55.55,0,0,0-.2-.4.42.42,0,0,0-.35-.1.31.31,0,0,1-.16,0,6.93,6.93,0,0,1-3.45.88,7.64,7.64,0,0,1-1.26-.1.43.43,0,0,1-.36-.49.42.42,0,0,1,.49-.36,6.44,6.44,0,0,0,4.33-.77,1.86,1.86,0,0,0,1-1.31.64.64,0,0,0-.21-.49.54.54,0,0,0-.44-.14h-.06a6.08,6.08,0,0,1-3.56,1.12A6.75,6.75,0,0,1,86,88.7a.43.43,0,0,1,.17-.85,5.32,5.32,0,0,0,4.34-1,2.53,2.53,0,0,0,1-1.8.72.72,0,0,0-.2-.55.64.64,0,0,0-.31-.15,1.1,1.1,0,0,1-.09.14c-.81,1-3,1.76-4.92,1.76a6.62,6.62,0,0,1-.91-.06,2.57,2.57,0,0,1-2.18-1.5l0,0h0v0h0l0-.46a2.6,2.6,0,0,0-1.57,1.1l.26-.05a.43.43,0,0,1,.5.35.42.42,0,0,1-.35.5l-.77.13s0,.1,0,.15l.1,4.75.76-.24Z"/><path class="cls-1" d="M85.27,158.4h23.32v-.17q-.61-3.55-1.35-7.09h-22Z"/><path class="cls-1" d="M48.28,131.2a1.18,1.18,0,1,0,1.18,1.18A1.18,1.18,0,0,0,48.28,131.2Z"/><path class="cls-1" d="M54,131.2a1.18,1.18,0,1,0,1.18,1.18A1.18,1.18,0,0,0,54,131.2Z"/><path class="cls-1" d="M89.72,82.92a1.59,1.59,0,0,0,.56-.61l.19-3.56a.53.53,0,0,0-.09-.33Z"/><path class="cls-1" d="M102.38,131.71h0l-.24-.84c-.23-.8-.5-1.78-.66-2.36H82.23c-.42,0-.85,0-1.27,0H38.67v7.61h65C103.18,134.52,102.77,133.06,102.38,131.71Zm-59.79,2.72a2.05,2.05,0,1,1,2-2.05A2,2,0,0,1,42.59,134.43Zm5.69,0a2.05,2.05,0,1,1,2-2.05A2.05,2.05,0,0,1,48.28,134.43Zm5.69,0a2.05,2.05,0,1,1,2-2.05A2.05,2.05,0,0,1,54,134.43Z"/><polygon class="cls-1" points="136.31 136.11 161.36 136.11 161.36 128.5 133.41 128.5 136.31 136.11"/><path class="cls-1" d="M137.79,140l0,0,0,0,.64,1.66c.57,1.5,1,2.62,1.2,3.15.27,0,.69-.08,1.36-.13l1.11-.09A29.91,29.91,0,0,0,150,143c2-.8,3.78-.56,4.86.66a4.27,4.27,0,0,1,.74,1.29l.06.07.9,1.67a.42.42,0,0,1-.17.58l-5.51,3h4.81v9h-34a27,27,0,0,0,6.86,2c2.15.25,3.6,1.31,4,2.89a4.34,4.34,0,0,1,0,1.49.29.29,0,0,1,0,.09v1.9a.43.43,0,0,1-.43.43H109a.43.43,0,0,1-.43-.43v-1.47h-.18l.19-.53v-6.4H44.39v-9h62.68c-.58-2.76-1.22-5.53-1.93-8.35-.44-1.77-.87-3.41-1.29-5H38.67v34.81H161.36V137H136.64Z"/><path class="cls-1" d="M42.59,131.2a1.18,1.18,0,1,0,1.19,1.18A1.18,1.18,0,0,0,42.59,131.2Z"/><path class="cls-1" d="M84.7,95.08h4.84c.12,0,.25-.16.26-.38l.09-1.57a9.59,9.59,0,0,1-2.9.41,13.88,13.88,0,0,1-2.63-.27l.08,1.43C84.45,94.93,84.58,95.08,84.7,95.08Z"/><path class="cls-1" d="M94.9,72.72H89.85L88.29,83.23a2.86,2.86,0,0,0,.51,0l1.42-9.68a.43.43,0,0,1,.42-.37l4.22,0Z"/><path class="cls-1" d="M102.07,127.63v0h.06l.09.32c.12.45.48,1.69.74,2.62h0l.19.66c.83,2.91,1.81,6.37,2.83,10.47,1.37,5.46,2.48,10.71,3.4,16h8.43c-.21-6.31-.35-11.55-.46-15.93l-.12-4.55c0-2.11-.1-4-.14-5.64l-.06-1.84c0-1.23-.07-2.31-.11-3.28h.35l0,0-.39,0c-.1-2.24-.21-3.88-.35-5.15-1.23-11-10.9-16.13-30.43-16.22H83.83L67,105.25c-.07,5.6.65,10.26,2.14,13.87,2.1-.83,5.16-2.8,5-7.09a.44.44,0,0,1,.42-.45h0A.44.44,0,0,1,75,112c.1,3.59-1.93,6.44-5.56,7.9,2.27,4.89,6.07,7.5,11.31,7.73Z"/><path d="M133.08,127.63c-2-5.2-3.12-8.15-3.36-8.75l-.48-1.21c-3.9-9.76-5.23-13.09-23.75-13.44-.09-.44-.27-1.29-.6-2.78C103.7,96,100.22,80,100.18,76.82c3.59,3,7.7,6.14,11.46,7.54,4.45,1.63,12.68-14.29,14.06-17a4.42,4.42,0,0,0,3.2-3.8,7,7,0,0,1,5.32,1l.05,0a.37.37,0,0,0,.18.08h.08a.05.05,0,0,0,0,0,.3.3,0,0,0,.16-.05.39.39,0,0,0,.1-.08h0a.44.44,0,0,0,.13-.2c.59-3,3.09-15.25,3.44-16.76v-.15a.19.19,0,0,0,0-.07.42.42,0,0,0,0-.1h0a.39.39,0,0,0-.08-.1c-1.76-1.54-4.81-2.24-7.77-1.78a7.48,7.48,0,0,0-4.93,2.56c-1.32-1.35-6.15-5.36-13.91-1.84a.46.46,0,0,0-.26.38c0,.13-.41,12.79-.83,17.75a.43.43,0,0,0,.21.4.41.41,0,0,0,.22.07.39.39,0,0,0,.23-.07s4.51-2.7,9.19-1.62a1.64,1.64,0,0,0-.77.88c0,.16-.11.32-.17.48-1.59,4.17-5.75,8.35-6.82,9.18-2.74-3-6.35-7.16-9.84-11.24l-.18-.22c-1.39-1.62-7.8-2.49-9.48-2.69a2.47,2.47,0,0,0-1.38-1.57,20.3,20.3,0,0,1-1-4.51c-.1-.69-.21-1.4-.33-2.07l.18,0c1.6-.62,6.72-8.56,5.84-12.24a25.33,25.33,0,0,0-3-6.64c1.68-.32,6-1.28,6.91-2.91a1.34,1.34,0,0,0,0-1.29c-.44-.89-1.89-1.53-9.17,1.33a5.82,5.82,0,0,0-4-2.07h0A4.39,4.39,0,0,0,84,29a9.82,9.82,0,0,0-2,4.73c-.17.79-.29,1.54-.39,2.24a1.8,1.8,0,0,0-2.19.3c-1.13,1-1.58,3.36-.85,4.35a2.29,2.29,0,0,0,1.91.86,2.58,2.58,0,0,0,.39,0c-.36,3.93-.37,7.59-.36,11.44,0,1.64,0,3.3,0,5a3.23,3.23,0,0,0-1.15,1.52c-5.82,1.14-9.81,2.06-12,4.18-3.09,3-8.93,18.76-8.6,26.6.08,2.06.58,3.48,1.49,4.24a6.45,6.45,0,0,0,4.07,1,24.91,24.91,0,0,0,2.7-.18h0c2.58-.59,11.35-3.3,14-4.14l-.1-4.75s0-.1,0-.15c-3.07.52-10.5,1.64-12.83,2l-.25,0L67.71,88c-.41-.55,1.38-8.08,3.81-13.5a.44.44,0,0,1,.58-.22.43.43,0,0,1,.21.57,55.66,55.66,0,0,0-3.77,12.39c2.91-.42,10.32-1.53,12.77-2a2.6,2.6,0,0,1,1.57-1.1l0,.46h0v0h0l0,0a2.57,2.57,0,0,0,2.18,1.5,6.62,6.62,0,0,0,.91.06c1.88,0,4.11-.76,4.92-1.76a1.1,1.1,0,0,0,.09-.14.64.64,0,0,1,.31.15.72.72,0,0,1,.2.55,2.53,2.53,0,0,1-1,1.8,5.32,5.32,0,0,1-4.34,1,.43.43,0,0,0-.17.85,6.75,6.75,0,0,0,1.27.12,6.08,6.08,0,0,0,3.56-1.12h.06a.54.54,0,0,1,.44.14.64.64,0,0,1,.21.49,1.86,1.86,0,0,1-1,1.31,6.44,6.44,0,0,1-4.33.77.42.42,0,0,0-.49.36.43.43,0,0,0,.36.49,7.64,7.64,0,0,0,1.26.1,6.93,6.93,0,0,0,3.45-.88.31.31,0,0,0,.16,0,.42.42,0,0,1,.35.1.55.55,0,0,1,.2.4c0,.22-.37.73-1.36,1.14a10.43,10.43,0,0,1-6.19.21,18.85,18.85,0,0,1-2-.61c-1.07.34-12.49,3.91-15.13,4.44a68.44,68.44,0,0,0-.74,8.67c-.12,5.89.63,10.79,2.19,14.6a14.15,14.15,0,0,1-3.43.61.43.43,0,0,0,0,.86h0a14.57,14.57,0,0,0,3.73-.67,13.36,13.36,0,0,0,7.59,7.42H37.81v45H162.22v-45ZM126,48.84a0,0,0,0,1,0,0,6.44,6.44,0,0,1,4.64-2.63,9.32,9.32,0,0,1,6.87,1.43c-.48,2.22-2.58,12.51-3.26,15.9a8.11,8.11,0,0,0-5.22-.9,11.83,11.83,0,0,0-.18-2.72c-.26-1.43-1-2.42-1.88-2.42h0a1.12,1.12,0,0,0-.84.49,2,2,0,0,0-.8-.84ZM111.49,63.47c.36-4.94.7-14.94.76-16.72,7.43-3.24,11.88.88,12.86,1.94L124.44,57l-.17,0a1.24,1.24,0,0,0-.89,1.22,1.31,1.31,0,0,0-.47-.39,1.34,1.34,0,0,0-1.39.25,1.2,1.2,0,0,0-.25,1.33c.69,1.91.42,2.58.13,2.88C117.18,61,113.1,62.67,111.49,63.47Zm9,.66c.08-.23.31-.36.68-.56a4.45,4.45,0,0,0,.55-.33c1-.73,1.16-2,.39-4.05-.1-.28,0-.38,0-.41a.48.48,0,0,1,.45-.09,4.22,4.22,0,0,1,1,2A3.14,3.14,0,0,1,123.2,63a3.53,3.53,0,0,1-.21.32.43.43,0,0,0-.06.18.21.21,0,0,0,0,.11s0,0,0,0a.42.42,0,0,0,.18.3.44.44,0,0,0,.6-.13,2.33,2.33,0,0,0,.2-.34.1.1,0,0,0,0,0h0a5.23,5.23,0,0,0,.44-4.23c-.23-1-.21-1.14.19-1.3a.44.44,0,0,1,.19,0c.22,0,.48.34.7.81.63,1.38.8,4,.09,5.14a1,1,0,0,1-.16.21.42.42,0,0,0-.05.55l0,0,0,0h0s0,0,0,.06a.43.43,0,0,0,.61-.09,3.26,3.26,0,0,0,.22-.34,5.76,5.76,0,0,0,.46-4.71,3.6,3.6,0,0,1-.12-.66c0-.33.17-.54.3-.54h0c.25,0,.81.49,1,1.7a9.67,9.67,0,0,1,.13,3,3.63,3.63,0,0,1-2.79,3.43h0a5.14,5.14,0,0,1-4.9-2.14ZM100.7,105.07H102l2.51,0,.65,0c18.22.29,19.41,3.25,23.26,12.9l.49,1.21c.24.61,1.41,3.65,3.46,9l4.61,12.1h0l.63,1.64,1.19,3.14L131.6,149l-1-1.61c-1.1-1.7-2.39-3.69-3.69-5.76-2-3.25-3.82-6.12-5.27-8.51-1.92-3.19-3.2-5.43-3.82-6.68-.09-2.21-.2-3.84-.34-5.12-1-9-7.36-14.29-19.75-16.18Zm17.37,31c0-1.64-.08-3.13-.12-4.48l-.06-1.88c0-.48,0-.93,0-1.37q1.07,1.94,3,5.13l1.59,2.6Zm4.9.87c1,1.56,2,3.24,3.16,5.06,1.3,2.07,2.6,4.07,3.7,5.77l1.38,2.13.19.34h-13c-.09-3.12-.16-5.94-.23-8.47l-.11-4.54V137Zm8.76,29.21v1H109.44v-1Zm-13-8.22c-.08-2.43-.15-4.7-.21-6.83h13.42l2.74,4.79a.42.42,0,0,0-.11.52l.07.14h0l.82,1.54a.45.45,0,0,0,.38.23.42.42,0,0,0,.21-.06l13.26-7.16h5.55v7.26H119.71C119.26,158.2,118.93,158.06,118.68,158Zm17.3-.63-.44-.83,19.58-10.63.47.87ZM99.64,28.48a.46.46,0,0,1,0,.48c-.74,1.32-5.48,2.37-6.66,2.56a16.61,16.61,0,0,0-1.09-1.4C98.7,27.47,99.54,28.28,99.64,28.48Zm-15,1.1a3.62,3.62,0,0,1,2.6-1.36h0a4.75,4.75,0,0,1,3.13,1.56C87.38,31,84.52,32.34,83,33A8.09,8.09,0,0,1,84.63,29.58Zm-3.69,11a1.77,1.77,0,0,1-1.7-.47c-.44-.59-.12-2.4.74-3.2a1.06,1.06,0,0,1,1.57.09,5,5,0,0,1,.8,1,.44.44,0,0,0,.6.13.44.44,0,0,0,.12-.6,5.16,5.16,0,0,0-.72-.89l0-.18c.11-.7.23-1.49.39-2.28l.48-.22c1.5-.71,4.6-2.16,7.77-3.44a16,16,0,0,1,1.38,1.78,24.5,24.5,0,0,1,3.24,6.91c.82,3.4-4.22,10.81-5.31,11.23a3.17,3.17,0,0,1-.44.12c-1.83.32-4.27-1.44-5-3.11a.43.43,0,1,0-.78.37,6.7,6.7,0,0,0,5.38,3.64h.17c.12.64.22,1.31.32,2a25.57,25.57,0,0,0,.81,4,27.55,27.55,0,0,0-9.42.07c0-1.58,0-3.12,0-4.65,0-3.93,0-7.65.38-11.66a2.23,2.23,0,0,0,.31-.12.42.42,0,0,0,.18-.58.43.43,0,0,0-.58-.18,2.75,2.75,0,0,1-.46.18Zm2,37.22a1.41,1.41,0,0,0-.35,1l.07,1.26a2.11,2.11,0,1,1,2.67-2.62H83.71A1.05,1.05,0,0,0,82.94,77.78Zm.51,1a.55.55,0,0,1,.12-.39.21.21,0,0,1,.14-.07h4.43l-.7,4.75a5.55,5.55,0,0,1-1.29-.73,3,3,0,0,0-2.55-.74Zm6.73,5.3a6.76,6.76,0,0,1-4.93,1.3,1.84,1.84,0,0,1-1.49-.93l-.11-2c.82-.25,1.31.08,2,.56a5.25,5.25,0,0,0,2,1,3.93,3.93,0,0,0,.92.1,3.87,3.87,0,0,0,.48,0,.58.58,0,0,0,.19,0,2.75,2.75,0,0,0,.92-.41Zm.1-1.75a1.59,1.59,0,0,1-.56.61l.66-4.5a.53.53,0,0,1,.09.33Zm.36-9.12a.43.43,0,0,0-.42.37L88.8,83.24a2.86,2.86,0,0,1-.51,0l1.56-10.51H94.9l0,.45ZM87,93.54a9.59,9.59,0,0,0,2.9-.41L89.8,94.7c0,.22-.14.38-.26.38H84.7c-.12,0-.25-.15-.26-.38l-.08-1.43A13.88,13.88,0,0,0,87,93.54ZM69.46,119.9c3.63-1.46,5.66-4.31,5.56-7.9a.44.44,0,0,0-.43-.42h0a.44.44,0,0,0-.42.45c.13,4.29-2.93,6.26-5,7.09-1.49-3.61-2.21-8.27-2.14-13.87l16.85-.09h2.31c19.53.09,29.2,5.24,30.43,16.22.14,1.27.25,2.91.35,5.15l.39,0,0,0h-.35c0,1,.07,2.05.11,3.28l.06,1.84c0,1.67.09,3.53.14,5.64l.12,4.55c.11,4.38.25,9.62.46,15.93h-8.43c-.92-5.33-2-10.58-3.4-16-1-4.1-2-7.56-2.83-10.47l-.19-.66h0c-.26-.93-.62-2.17-.74-2.62l-.09-.32h-.06v0H80.77C75.53,127.4,71.73,124.79,69.46,119.9Zm39.13,38.33v.17H85.27v-7.26h22Q108,154.68,108.59,158.23ZM38.67,128.5H81c.42,0,.85,0,1.27,0h19.25c.16.58.43,1.56.66,2.36l.24.84h0c.39,1.35.8,2.81,1.24,4.4H38.67Zm122.69,43.29H38.67V137h65.18c.42,1.54.85,3.18,1.29,5,.71,2.82,1.35,5.59,1.93,8.35H44.39v9h64.2v6.4l-.19.53h.18v1.47a.43.43,0,0,0,.43.43h23.15a.43.43,0,0,0,.43-.43v-1.9a.29.29,0,0,0,0-.09,4.34,4.34,0,0,0,0-1.49c-.36-1.58-1.81-2.64-4-2.89a27,27,0,0,1-6.86-2h34v-9h-4.81l5.51-3a.42.42,0,0,0,.17-.58l-.9-1.67-.06-.07a4.27,4.27,0,0,0-.74-1.29c-1.08-1.22-2.85-1.46-4.86-.66a29.91,29.91,0,0,1-7.89,1.56l-1.11.09c-.67,0-1.09.09-1.36.13-.21-.53-.63-1.65-1.2-3.15l-.64-1.66,0,0,0,0-1.15-3h24.72Zm0-35.68H136.31l-2.9-7.61h28Z"/><path d="M54,130.33a2.05,2.05,0,1,0,2,2A2.05,2.05,0,0,0,54,130.33Zm0,3.23a1.18,1.18,0,1,1,1.18-1.18A1.18,1.18,0,0,1,54,133.56Z"/><path d="M48.28,130.33a2,2,0,1,0,2,2A2.05,2.05,0,0,0,48.28,130.33Zm0,3.23a1.18,1.18,0,1,1,1.18-1.18A1.18,1.18,0,0,1,48.28,133.56Z"/><path d="M42.59,130.33a2,2,0,1,0,2,2A2,2,0,0,0,42.59,130.33Zm0,3.23a1.18,1.18,0,1,1,1.19-1.18A1.18,1.18,0,0,1,42.59,133.56Z"/><path d="M86.76,40.27a.44.44,0,0,0,.35-.18,1.16,1.16,0,0,1,.82-.33,1.47,1.47,0,0,1,1,.22.43.43,0,1,0,.61-.61,2.19,2.19,0,0,0-1.66-.47,1.93,1.93,0,0,0-1.45.69.42.42,0,0,0,.1.6A.38.38,0,0,0,86.76,40.27Z"/><path d="M81.72,38.19a.43.43,0,0,0-.61,0,2,2,0,0,1-1.25.49h0a.43.43,0,0,0-.44.43.44.44,0,0,0,.43.44h0a2.93,2.93,0,0,0,1.83-.72A.44.44,0,0,0,81.72,38.19Z"/><path d="M90.52,45.82a2,2,0,0,0,.69.13,1.13,1.13,0,0,0,.7-.23c.55-.45.5-1.34.38-2.15,0-.27-.09-.57-.15-.88A6.06,6.06,0,0,1,92,39.94a4,4,0,0,1,2.08-.14.42.42,0,0,0,.48-.37A.43.43,0,0,0,94.2,39a4.53,4.53,0,0,0-2.68.26h-.06a.43.43,0,0,0-.2.2,5.87,5.87,0,0,0,0,3.42c.06.3.11.58.15.83.14,1,0,1.28-.08,1.36a.72.72,0,0,1-.55,0,.43.43,0,0,0-.55.26A.43.43,0,0,0,90.52,45.82Z"/><path d="M87.49,47.86a2.93,2.93,0,0,0,.67.07,1.75,1.75,0,0,0,1.32-.48.44.44,0,0,0,0-.61.43.43,0,0,0-.61,0,1.42,1.42,0,0,1-1.14.13,1.45,1.45,0,0,1-1.12-1,.44.44,0,0,0-.53-.31.43.43,0,0,0-.31.52A2.22,2.22,0,0,0,87.49,47.86Z"/><path d="M93.51,41.08a.4.4,0,0,0,0,.8.4.4,0,0,0,0-.8Z"/><path d="M88.25,41.48a.4.4,0,1,0,.4-.4A.4.4,0,0,0,88.25,41.48Z"/></svg>