<svg id="Layer_1" data-name="Layer 1" xmlns="http://www.w3.org/2000/svg" viewBox="0 0 200 200"><defs><style>.cls-1{fill:none;}</style></defs><title>Larry_</title><rect class="cls-1" x="97.57" y="181.46" width="15.29" height="0.99"/><path class="cls-1" d="M120.7,41.12a10.13,10.13,0,0,0-.31-1.43c-.11-.37-.23-.72-.36-1s-.65-.43-1-.33a.57.57,0,0,0-.51.61h0c.13.58.29,1.17.46,1.76A2.27,2.27,0,0,1,120.7,41.12Z"/><path class="cls-1" d="M74.11,114.23c2.11-.7,5.84-2.61,5.71-7.34a.42.42,0,0,1,.42-.44.4.4,0,0,1,.44.42c.11,4-2.28,7-6.58,8.27-.07,19.51.18,43.1.31,55.8l0,2.1h8.44c2.17-6.91,4.69-15.17,6.85-23.91,3.43-13.82,5.27-26,5.61-37.21a.43.43,0,0,1,.43-.42h0a.42.42,0,0,1,.41.44c-.34,11.26-2.18,23.46-5.6,37.3h0c.06,7.24.14,13.81.2,18.65,0,2.07,0,3.8.06,5.15h8.17c5-15.9,11.63-40.23,12.32-69l-37.19.06C74.15,107.34,74.12,110.72,74.11,114.23Z"/><path class="cls-1" d="M84.92,173.69a48.87,48.87,0,0,0,5.13,2c0-.43,0-1.16,0-2.19,0-1.4,0-3.3-.07-5.58,0-4.12-.11-9.51-.17-15.49-2,7.57-4.14,14.69-6.06,20.81h0l0,0C84,173.3,84.43,173.47,84.92,173.69Z"/><path class="cls-1" d="M92.48,17.74a3.58,3.58,0,0,0-2.57,1.39,8,8,0,0,0-1.57,3.49c1.48-.73,4.33-2.11,7.31-3.37A4.83,4.83,0,0,0,92.48,17.74Z"/><path class="cls-1" d="M91.22,97.87c1.74.3,3.93-1.15,5.51-2.38h-.58c-2,0-4-.19-4.82-.9a2.79,2.79,0,0,1-.52-2.31,1.93,1.93,0,0,1,1-1.59l1-.4a13.68,13.68,0,0,0,1.51-.63.64.64,0,0,0,.38-.65.59.59,0,0,0-.55-.44,11.55,11.55,0,0,0-2.2,0,8.71,8.71,0,0,0-1.79.52,10.61,10.61,0,0,1-3.25.75c-.1,1.69-.36,3.9-1,4.93C87.25,95.84,90.07,97.67,91.22,97.87Z"/><path class="cls-1" d="M100.68,71.12a3.69,3.69,0,0,1,1,2.7l-1,19.66a3.33,3.33,0,0,0,.84-2l.93-18.72a3.33,3.33,0,0,0-3.15-3.48l-20.7-1-.65.7,20.12,1A3.75,3.75,0,0,1,100.68,71.12Z"/><path class="cls-1" d="M68.92,89.84a.44.44,0,1,1,.46-.74l.07.05c-.93-.62-1.82-1.26-2.66-1.93l-.13,2.49a3.32,3.32,0,0,0,3.15,3.47l6.53.33A41.91,41.91,0,0,1,68.92,89.84Z"/><polygon class="cls-1" points="74.45 182.44 96.67 182.44 96.67 181.46 74.45 181.56 74.45 182.44"/><path class="cls-1" d="M87.06,29.93a.42.42,0,0,1,.58.16.44.44,0,0,1-.16.59l-.31.13A117.73,117.73,0,0,0,87,42.67c0,1.52,0,3.06,0,4.64a26.47,26.47,0,0,1,9.43-.09A25.7,25.7,0,0,1,95.54,43c-.11-.74-.22-1.44-.35-2.11l-.22,0a6.69,6.69,0,0,1-5.37-3.56.43.43,0,1,1,.77-.38c.8,1.65,3.26,3.38,5.1,3a2.7,2.7,0,0,0,.43-.12c1.08-.44,6-7.92,5.15-11.31a24.09,24.09,0,0,0-3.34-6.86,16.94,16.94,0,0,0-1.41-1.76c-3.14,1.32-6.2,2.81-7.7,3.54l-.49.24c-.15.81-.26,1.61-.36,2.32l0,.14a6.82,6.82,0,0,1,.73.88.43.43,0,0,1-.12.6.42.42,0,0,1-.6-.11A4.73,4.73,0,0,0,87,26.6c-.59-.51-1.11-.54-1.59-.09-.86.8-1.16,2.63-.71,3.21a1.82,1.82,0,0,0,1.94.39A2.45,2.45,0,0,0,87.06,29.93Zm5.73.46a.42.42,0,0,1-.44-.39.4.4,0,0,1,.38-.44.42.42,0,0,1,.45.38A.43.43,0,0,1,92.79,30.39Zm5.49-.15a.41.41,0,0,1-.44-.38.42.42,0,0,1,.38-.45.42.42,0,0,1,.45.39A.41.41,0,0,1,98.28,30.24Zm-2.71,4.47a.44.44,0,0,1,.54-.3c.25.08.44.08.51,0s.22-.41,0-1.56l-.14-.64c-.33-1.37-.73-3.08-.32-4.09a1.32,1.32,0,0,1,.77-.68,3.25,3.25,0,0,1,2.24,0,.44.44,0,1,1-.37.79,2.34,2.34,0,0,0-1.55,0,.49.49,0,0,0-.29.2c-.31.75.09,2.44.36,3.56q.08.36.15.66c.19.89.32,1.87-.23,2.38a1.11,1.11,0,0,1-.76.28,1.87,1.87,0,0,1-.59-.1A.42.42,0,0,1,95.57,34.71Zm-1.29,1.95a1.47,1.47,0,0,0,1.33.39.93.93,0,0,0,.68-.44.43.43,0,1,1,.8.33,1.74,1.74,0,0,1-1.31,1,2.59,2.59,0,0,1-.48,0,2.28,2.28,0,0,1-1.64-.68.43.43,0,0,1,0-.61A.45.45,0,0,1,94.28,36.66Zm-3.47-8.84a3.14,3.14,0,0,1,2.9-.5.43.43,0,0,1,.21.57.44.44,0,0,1-.58.21,2.35,2.35,0,0,0-2,.36.42.42,0,0,1-.29.11.43.43,0,0,1-.29-.75Zm-5.57,1.32h0a.44.44,0,0,1,0-.87h0a1.94,1.94,0,0,0,1.26-.51.44.44,0,0,1,.61,0,.43.43,0,0,1,0,.62A2.87,2.87,0,0,1,85.24,29.14Z"/><circle class="cls-1" cx="131.2" cy="25.28" r="2.23"/><path class="cls-1" d="M104.88,18.29a.46.46,0,0,0,0-.48c-.11-.19-1-1-7.75,1.76A14.8,14.8,0,0,1,98.25,21C99.47,20.74,104.16,19.61,104.88,18.29Z"/><path class="cls-1" d="M72.52,79.32a.44.44,0,0,1,0-.61.43.43,0,0,1,.61,0c3.81,4.15,11.11,8.76,13.5,9.34a.43.43,0,0,1,.32.43c0,.14,0,.29,0,.45a9.5,9.5,0,0,0,2.92-.7,10.22,10.22,0,0,1,2-.56,13.4,13.4,0,0,1,2.45,0,1.44,1.44,0,0,1,1.25,1.13,1.5,1.5,0,0,1-.79,1.56,14.8,14.8,0,0,1-1.64.69c-.37.14-.72.27-1,.39a1.13,1.13,0,0,0-.5.92,2.11,2.11,0,0,0,.24,1.52c.63.55,2.79.79,5.77.66l.32,0a3.33,3.33,0,0,0,1.79-.4l1-20.4A2.85,2.85,0,0,0,100,71.7a2.9,2.9,0,0,0-2-1l-20.85-1a77.19,77.19,0,0,0-5.72,7,1.23,1.23,0,0,0,.06,1.13,10.52,10.52,0,0,0,2.8,3.26C73.67,80.5,73.07,79.9,72.52,79.32Z"/><path class="cls-1" d="M122,45.43l-.27,0a1.6,1.6,0,0,1-.72-.34,1.45,1.45,0,0,1-.76.5c0,.07.06.14.08.22a.43.43,0,0,1-.31.52.43.43,0,0,1-.53-.31,3,3,0,0,0-.23-.61c-.13-.29-.52-1-1.08-1.06l-.36-.06,0-.4c0-.55,1-.89,1.23-.95a5.35,5.35,0,0,0,1.17-.39c.26-.13.14-.46.1-.56-.1-.26-.38-.58-1.59-.38a7.15,7.15,0,0,0-.81.17l-.21,0a4.61,4.61,0,0,0-1.16.43,2.07,2.07,0,0,0-1.08,2.43c.3,1.52,1.64,3,2.49,3.1l.06,0,4.68-.34a7.57,7.57,0,0,0,.07-2.21A1.47,1.47,0,0,1,122,45.43Z"/><path class="cls-1" d="M119.17,43.77l-.11,0a3,3,0,0,1,.82,1c.17,0,.4-.06.6-.46a3.18,3.18,0,0,0,.28-1.16,1.12,1.12,0,0,1-.21.17A7,7,0,0,1,119.17,43.77Z"/><path class="cls-1" d="M121.79,38.71a.7.7,0,0,0-.55.81v0a8.8,8.8,0,0,1,.18,4.73h0a.6.6,0,0,0,.43.27.72.72,0,0,0,.49-.08.88.88,0,0,0,.2-.25c.38-.69.55-2.39-.15-5.09A.51.51,0,0,0,121.79,38.71Z"/><path class="cls-1" d="M117.45,41l.2,0,.42-.1c-.17-.59-.33-1.18-.46-1.75s-.28-1.21-.4-1.77c-.4-1.85-.78-3.59-1.31-3.92a.24.24,0,0,0-.22,0s0,0-.07.08c-.61,1.11.36,6.07.89,7.84A5.88,5.88,0,0,1,117.45,41Z"/><path d="M131.81,20.83H116.06a4.26,4.26,0,0,0-4.26,4.26v.4a4.26,4.26,0,0,0,4.26,4.26h15.75a4.27,4.27,0,0,0,4.27-4.26v-.4A4.27,4.27,0,0,0,131.81,20.83Zm-.61,6.68a2.23,2.23,0,1,1,2.23-2.23A2.23,2.23,0,0,1,131.2,27.51Z"/><path d="M98.22,29.41a.42.42,0,0,0-.38.45.42.42,0,0,0,.83-.06A.42.42,0,0,0,98.22,29.41Z"/><path d="M92.73,29.56a.4.4,0,0,0-.38.44.42.42,0,0,0,.44.39.43.43,0,0,0,.39-.45A.42.42,0,0,0,92.73,29.56Z"/><path d="M123.48,47.58a7.61,7.61,0,0,0-.08-3.18c.49-1.14.44-3.11-.17-5.49a1.37,1.37,0,0,0-1.59-1,1.56,1.56,0,0,0-.82.45,1.75,1.75,0,0,0-2-.83,1.48,1.48,0,0,0-.58.27l-.15-.63c-.49-2.3-.86-3.95-1.69-4.47a1.11,1.11,0,0,0-.89-.14,1,1,0,0,0-.62.51c-.87,1.59.49,7.37.88,8.67a2.92,2.92,0,0,0-1.18,3.14,5.15,5.15,0,0,0,3,3.71A89,89,0,0,1,118,59.28,74.58,74.58,0,0,0,106.66,51c-2.58-1.41-6.47-1.49-7.73-1.49a3.49,3.49,0,0,0-1.44-1.9,20.67,20.67,0,0,1-1.09-4.82c-.11-.71-.23-1.44-.36-2.14l.18,0c1.59-.64,6.6-8.66,5.67-12.32a25,25,0,0,0-3.11-6.6c1.68-.35,6-1.38,6.86-3a1.34,1.34,0,0,0,0-1.29c-.46-.88-1.92-1.5-9.15,1.47a6,6,0,0,0-4-2,4.47,4.47,0,0,0-3.21,1.68,9.82,9.82,0,0,0-2,4.76c-.15.79-.26,1.54-.36,2.25a1.77,1.77,0,0,0-2.16.32c-1.13,1.05-1.56,3.38-.81,4.37a2.32,2.32,0,0,0,1.89.83,2.86,2.86,0,0,0,.42,0c-.3,4-.25,7.71-.19,11.63,0,1.63,0,3.27,0,5a3.38,3.38,0,0,0-1.27,1.86l0,.1c-1.43.23-8.28,1.39-10.53,3.24S63.39,66.06,61.93,69.07l-.45.9c-1,2.13-2,4.14-1.89,6.66.25,3.92,3.56,7.52,6.37,9.91l-.16,3.12a4.2,4.2,0,0,0,4,4.39l3.62.18c-.14,2.92-.29,4.34-.44,5.7-.12,1.07-.23,2.08-.32,3.74a.45.45,0,0,0,.12.32.43.43,0,0,0,.31.14h.27c0,3.25-.07,6.73-.09,10.34a13.22,13.22,0,0,1-2.7.41.44.44,0,0,0,0,.87h0a15.36,15.36,0,0,0,2.66-.39c-.08,19.47.17,42.93.31,55.59l0,2.53c0,3.8.06,6.4,0,7.31a.53.53,0,0,0,0,.18v1.9a.44.44,0,0,0,.43.44h39.27a.44.44,0,0,0,.43-.44v-1.71s0,0,0-.06a3.6,3.6,0,0,0-.56-2.9,4.86,4.86,0,0,0-3.41-1.69,34.62,34.62,0,0,1-8.8-2.83l-1.08-.46c5-16,11.65-40.35,12.33-69.16h.08a.44.44,0,0,0,.31-.13.48.48,0,0,0,.13-.31c-.11-5.51-2.33-22.05-4.23-34.84,2.48.69,11.32,3.06,15.85,3.06a3.76,3.76,0,0,0,2.47-.56c2.29-2.27-.55-14.07-3.33-23.57ZM104.9,17.81a.46.46,0,0,1,0,.48c-.72,1.32-5.41,2.45-6.63,2.66a14.8,14.8,0,0,0-1.1-1.38C103.94,16.82,104.79,17.62,104.9,17.81Zm-15,1.32a3.58,3.58,0,0,1,2.57-1.39,4.83,4.83,0,0,1,3.17,1.51c-3,1.26-5.83,2.64-7.31,3.37A8,8,0,0,1,89.91,19.13ZM84.66,29.72c-.45-.58-.15-2.41.71-3.21.48-.45,1-.42,1.59.09a4.73,4.73,0,0,1,.78.92.42.42,0,0,0,.6.11.43.43,0,0,0,.12-.6,6.82,6.82,0,0,0-.73-.88l0-.14c.1-.71.21-1.51.36-2.32l.49-.24c1.5-.73,4.56-2.22,7.7-3.54a16.94,16.94,0,0,1,1.41,1.76,24.09,24.09,0,0,1,3.34,6.86c.87,3.39-4.07,10.87-5.15,11.31a2.7,2.7,0,0,1-.43.12c-1.84.35-4.3-1.38-5.1-3a.43.43,0,1,0-.77.38A6.69,6.69,0,0,0,95,40.87l.22,0c.13.67.24,1.37.35,2.11a25.7,25.7,0,0,0,.89,4.26,26.47,26.47,0,0,0-9.43.09c0-1.58,0-3.12,0-4.64a117.73,117.73,0,0,1,.22-11.86l.31-.13a.44.44,0,0,0,.16-.59.42.42,0,0,0-.58-.16,2.45,2.45,0,0,1-.46.18A1.82,1.82,0,0,1,84.66,29.72ZM78.6,68.21l20.7,1a3.33,3.33,0,0,1,3.15,3.48l-.93,18.72a3.33,3.33,0,0,1-.84,2l1-19.66a3.69,3.69,0,0,0-1-2.7,3.75,3.75,0,0,0-2.61-1.23L78,68.91Zm-8.79,25a3.32,3.32,0,0,1-3.15-3.47l.13-2.49c.84.67,1.73,1.31,2.66,1.93C74.81,92.5,81.06,94.64,85,94.48c.43,0,1-2.52,1.1-5.66-2.41-.78-7.87-4.17-11.79-7.73a10.52,10.52,0,0,1-2.8-3.26,1.23,1.23,0,0,1-.06-1.13,77.19,77.19,0,0,1,5.72-7l20.85,1a2.9,2.9,0,0,1,2,1,2.85,2.85,0,0,1,.75,2.08l-1,20.4a3.33,3.33,0,0,1-1.79.4l-.32,0c-3,.13-5.14-.11-5.77-.66a2.11,2.11,0,0,1-.24-1.52,1.13,1.13,0,0,1,.5-.92c.26-.12.61-.25,1-.39a14.8,14.8,0,0,0,1.64-.69,1.5,1.5,0,0,0,.79-1.56,1.44,1.44,0,0,0-1.25-1.13,13.4,13.4,0,0,0-2.45,0,10.22,10.22,0,0,0-2,.56A9.5,9.5,0,0,1,87,89c0,.27,0,.56,0,.87a10.61,10.61,0,0,0,3.25-.75A8.71,8.71,0,0,1,92,88.55a11.55,11.55,0,0,1,2.2,0,.59.59,0,0,1,.55.44.64.64,0,0,1-.38.65,13.68,13.68,0,0,1-1.51.63l-1,.4a1.93,1.93,0,0,0-1,1.59,2.79,2.79,0,0,0,.52,2.31c.82.71,2.84.9,4.82.9h.58c-1.58,1.23-3.77,2.68-5.51,2.38-1.15-.2-4-2-5.33-3.12a1.1,1.1,0,0,1-.85.59h-.45a24.58,24.58,0,0,1-8.25-1.84Zm26.86,89.26H74.45v-.88l22.22-.1Zm0-1.18c0-3-1.2-3.7-3.21-3.94a33.86,33.86,0,0,1-8.88-2.84c-.48-.21-.87-.38-1.14-.48l.29-.78h0c1.92-6.12,4.09-13.24,6.06-20.81.06,6,.12,11.37.17,15.49,0,2.28.06,4.18.07,5.58,0,1,0,1.76,0,2.19a20.6,20.6,0,0,0,3.51.8c2,.23,4,1,4,4.8Zm16.19.2v1H97.57v-1Zm-1.48-77.4c-.69,28.75-7.33,53.08-12.32,69H90.89c0-1.35,0-3.08-.06-5.15-.06-4.84-.14-11.41-.2-18.65h0c3.42-13.84,5.26-26,5.6-37.3a.42.42,0,0,0-.41-.44h0a.43.43,0,0,0-.43.42c-.34,11.22-2.18,23.39-5.61,37.21-2.16,8.74-4.68,17-6.85,23.91H74.44l0-2.1c-.13-12.7-.38-36.29-.31-55.8,4.3-1.3,6.69-4.3,6.58-8.27a.4.4,0,0,0-.44-.42.42.42,0,0,0-.42.44c.13,4.73-3.6,6.64-5.71,7.34,0-3.51,0-6.89.08-10.11Zm7.09-65.13a.57.57,0,0,1,.51-.61c.4-.1.91,0,1,.33s.25.67.36,1a10.13,10.13,0,0,1,.31,1.43,2.27,2.27,0,0,0-1.77-.42c-.17-.59-.33-1.18-.46-1.76Zm2.29,4.2a3.18,3.18,0,0,1-.28,1.16c-.2.4-.43.46-.6.46a3,3,0,0,0-.82-1l.11,0a7,7,0,0,0,1.38-.47A1.12,1.12,0,0,0,120.76,43.13Zm-5.15-9.7c0-.06.06-.08.07-.08a.24.24,0,0,1,.22,0c.53.33.91,2.07,1.31,3.92.12.56.25,1.16.4,1.77s.29,1.16.46,1.75l-.42.1-.2,0a5.88,5.88,0,0,0-1,.31C116,39.5,115,34.54,115.61,33.43Zm7,14-4.68.34-.06,0c-.85-.1-2.19-1.58-2.49-3.1a2.07,2.07,0,0,1,1.08-2.43,4.61,4.61,0,0,1,1.16-.43l.21,0a7.15,7.15,0,0,1,.81-.17c1.21-.2,1.49.12,1.59.38,0,.1.16.43-.1.56a5.35,5.35,0,0,1-1.17.39c-.25.06-1.25.4-1.23.95l0,.4.36.06c.56.09,1,.77,1.08,1.06a3,3,0,0,1,.23.61.43.43,0,0,0,.53.31.43.43,0,0,0,.31-.52c0-.08-.06-.15-.08-.22a1.45,1.45,0,0,0,.76-.5,1.6,1.6,0,0,0,.72.34l.27,0a1.47,1.47,0,0,0,.72-.2A7.57,7.57,0,0,1,122.63,47.44Zm-.09-3.22a.88.88,0,0,1-.2.25.72.72,0,0,1-.49.08.6.6,0,0,1-.43-.27h0a8.8,8.8,0,0,0-.18-4.73v0a.7.7,0,0,1,.55-.81.51.51,0,0,1,.6.42C123.09,41.83,122.92,43.53,122.54,44.22Z"/><path d="M91.1,28.57a.42.42,0,0,0,.29-.11,2.35,2.35,0,0,1,2-.36.44.44,0,0,0,.58-.21.43.43,0,0,0-.21-.57,3.14,3.14,0,0,0-2.9.5.43.43,0,0,0,.29.75Z"/><path d="M87.11,27.78a.44.44,0,0,0-.61,0,1.94,1.94,0,0,1-1.26.51h0a.44.44,0,0,0,0,.87h0a2.87,2.87,0,0,0,1.85-.74A.43.43,0,0,0,87.11,27.78Z"/><path d="M95.86,35.24a1.87,1.87,0,0,0,.59.1,1.11,1.11,0,0,0,.76-.28c.55-.51.42-1.49.23-2.38q-.07-.3-.15-.66c-.27-1.12-.67-2.81-.36-3.56a.49.49,0,0,1,.29-.2,2.34,2.34,0,0,1,1.55,0,.44.44,0,1,0,.37-.79,3.25,3.25,0,0,0-2.24,0,1.32,1.32,0,0,0-.77.68c-.41,1,0,2.72.32,4.09l.14.64c.25,1.15.13,1.47,0,1.56s-.26.07-.51,0a.44.44,0,0,0-.54.3A.42.42,0,0,0,95.86,35.24Z"/><path d="M93.66,37.26a2.28,2.28,0,0,0,1.64.68,2.59,2.59,0,0,0,.48,0,1.74,1.74,0,0,0,1.31-1,.43.43,0,1,0-.8-.33.93.93,0,0,1-.68.44,1.47,1.47,0,0,1-1.33-.39.45.45,0,0,0-.62,0A.43.43,0,0,0,93.66,37.26Z"/><path d="M135.38,20.64a.42.42,0,0,0,.34-.17L137.61,18a.42.42,0,0,0-.08-.6.43.43,0,0,0-.61.08L135,19.94a.44.44,0,0,0,.34.7Z"/><path d="M140.2,21.53a.43.43,0,0,0,.18-.58.44.44,0,0,0-.59-.18l-2.58,1.36a.43.43,0,0,0-.18.58.43.43,0,0,0,.39.23.39.39,0,0,0,.2-.05Z"/><path d="M140.91,24.68H138a.44.44,0,0,0,0,.87h2.92a.44.44,0,0,0,0-.87Z"/></svg>