<svg id="Layer_1" data-name="Layer 1" xmlns="http://www.w3.org/2000/svg" viewBox="0 0 200 200"><title>Larry_</title><path d="M101.42,33.92a.73.73,0,0,0,.88,1.16.73.73,0,1,0-.88-1.16Z"/><path d="M95.8,34.13a.42.42,0,0,0,.12-.58.41.41,0,0,0-.57-.12.42.42,0,0,0-.13.58A.43.43,0,0,0,95.8,34.13Z"/><path d="M146,169.61l-.62-1.8a.43.43,0,0,0-.14-.19,3.57,3.57,0,0,0-1.44-2.41,4.8,4.8,0,0,0-3.74-.49,39.53,39.53,0,0,1-8.41.48,20,20,0,0,0-3,.06c-.16-3.36-2.7-17.35-5.37-32.13l-.64-3.52c-.2-1.1-6.47-14.45-11.46-24h1a.41.41,0,0,0,.31-.14.41.41,0,0,0,.12-.32c-.22-3.47-4.7-31.14-5.64-36.94,4.69,3.3,13.82,9.36,15.34,7.75,3.58-3.78,1.68-23,.88-29.83a.89.89,0,0,0,.32.08,1.13,1.13,0,0,0,.32-.05,1,1,0,0,0,.59-.52l.43-.86a1,1,0,0,0-.46-1.38l-1.15-.56-.54-.24a3.6,3.6,0,0,0-1.86-3.12,1.78,1.78,0,0,0-1.18-.14,1.05,1.05,0,0,0-.18-.44,1.63,1.63,0,0,0-1.57-.5,1.88,1.88,0,0,0-1.3-.7,2.38,2.38,0,0,0-1.79.63,2.81,2.81,0,0,0-.26.3l-1.5-.75a1,1,0,0,0-.86,0,.55.55,0,0,0-.17-.13L110.48,37h0a6.26,6.26,0,0,0-.24-4.91,6.33,6.33,0,0,0-4.57-3.43h0a6.27,6.27,0,0,0-1.73,0,31,31,0,0,0-1.62-3.65,17,17,0,0,0-1.38-2.24c-1.46-2-3-2.88-4.47-2.65-1.91.3-3.49,1.7-4.7,4.15-7.88-.05-9,1-9.11,1.85A1.34,1.34,0,0,0,83,27.21a5.57,5.57,0,0,0,3.4.76,27.34,27.34,0,0,0,4-.35q-.07.28-.12.51a1.79,1.79,0,0,0-2.18.1c-1.23.94-1.89,3.22-1.24,4.27a2.43,2.43,0,0,0,2.15,1h.07c-.74,4.06-1.08,7.74-1.43,11.63-.12,1.31-.25,2.64-.39,4a2.67,2.67,0,0,0-1.52,2.15L78,52.67a.19.19,0,0,0-.1,0C58.58,61.29,52.67,83.15,58.14,99.31a.49.49,0,0,0,.26.27,6.81,6.81,0,0,0,.13,2.66,7.73,7.73,0,0,1-.43,5.35,1.91,1.91,0,0,0,.18,2.22,1.14,1.14,0,0,0,.82.33,1.62,1.62,0,0,0,.76-.21,1.7,1.7,0,0,0,.49.7,1.19,1.19,0,0,0,.67.23,1.93,1.93,0,0,0,1.35-.8,1.89,1.89,0,0,0,.72.17,2,2,0,0,0,1.26-.47A5.58,5.58,0,0,0,66,105.69a1.69,1.69,0,0,0,1-.51,2.07,2.07,0,0,0,.48-1.61l0-.13a8.6,8.6,0,0,0-.77-2.73,9.13,9.13,0,0,0-1.89-2.92c.51-.27.48-.46.46-.65-2.56-19.5,9-29.16,12.15-31.39-2.26,14.8-4.9,33.34-5,39.69a.42.42,0,0,0,.12.31.43.43,0,0,0,.31.12h.91s0,0,0,0c0,2.76,0,5.71,0,8.69a13.86,13.86,0,0,1-3.89-.45.41.41,0,0,0-.52.3.42.42,0,0,0,.3.53,14.73,14.73,0,0,0,3.73.5h.37c-.18,10.26-.86,16.48-2.08,19-3.9,8-12.81,30.47-13.23,31.53,0,0,0,.05-.06.09l-3.22,6.41h0l-1.09,2a.45.45,0,0,0,0,.34.42.42,0,0,0,.23.26l10.4,4.81a.48.48,0,0,0,.18,0l12.56,0h0a.43.43,0,0,0,.43-.43l0-1.9a.27.27,0,0,0,0-.12.32.32,0,0,0,0-.17c-.27-1.87-2.92-4.5-6.45-4.38-.68,0-1.05-.38-1.78-1.23a11.55,11.55,0,0,0-2.77-2.5C70,166.5,84,151.16,89.78,143.32c2.18-2.94,4.15-10.35,6-17.87,2.44,3.19,10.59,14.11,10.93,14.78,1.27,2.73,4.92,10.31,8.14,17,2.71,5.61,5,10.46,5.45,11.36l.12.19,2.28,6.67,0,0a.41.41,0,0,0,0,.19l0,0,.6,1.76a.49.49,0,0,0,.22.25.58.58,0,0,0,.19,0,.35.35,0,0,0,.14,0l21.74-7.53A.45.45,0,0,0,146,169.61ZM101.7,40.34a6,6,0,0,0,1.56.57,5.92,5.92,0,0,0,1.32.14,6.2,6.2,0,0,0,4.68-2.15.79.79,0,0,0,.17.14l1.54.78a.65.65,0,0,0,.2,0,1,1,0,0,0,.52.71l1.45.74a2.07,2.07,0,0,0,.24,1.95,3.22,3.22,0,0,0,.92,2.59,3.38,3.38,0,0,0,2.3.74c.22,0,.44,0,.65,0,.08,7.18-.12,13.9-.28,16.21-.38-.49-.91-1.21-1.43-1.92-1.65-2.26-3.9-5.35-6.08-7.76-1.95-2.18-8.07-2-9.56-1.95l0-.05a3.36,3.36,0,0,0-1.37-1.92,1.36,1.36,0,0,0-.35-.13,9,9,0,0,1-.39-4.14c0-.24,0-.51,0-.78l.24,0C98.9,43.83,100.47,42.06,101.7,40.34Zm14.45.6h.11c.15,0,.29.1.3.38a1.88,1.88,0,0,1-.33.38,4,4,0,0,0-.81,1,2.49,2.49,0,0,0-.24,1.27.43.43,0,0,0,.45.41.42.42,0,0,0,.32-.18,1.34,1.34,0,0,0,.8.28l.19,0a1.25,1.25,0,0,0,.9.59l.2,0a1.33,1.33,0,0,0,1.21-.77l1.37.62a6.41,6.41,0,0,1-1.85.39l-.14,0a7.24,7.24,0,0,1-1,.26,3.4,3.4,0,0,1-2.7-.43,2.47,2.47,0,0,1-.63-2.09,2.82,2.82,0,0,1,1.08-1.92A1.35,1.35,0,0,1,116.15,40.94ZM124,44.17c.08,0,.11.13,0,.28l-.4.8a.2.2,0,0,1-.09.08.17.17,0,0,1-.12,0l-3.94-1.81c.1-.41.24-.88.47-1,0,0,.13-.07.39,0h0l1.7.73Zm-3.53-3.91a2.7,2.7,0,0,1,1.33,2l-1.21-.53v0a1.31,1.31,0,0,0-1,0c-.62.34-.81,1.18-1,1.86l-.08.36a.49.49,0,0,1-.54.29c-.23,0-.34-.21-.34-.51a9.58,9.58,0,0,1,1.47-3C119.63,40.06,120,40.05,120.46,40.26Zm-1.7-.85c.1.13,0,.32-.11.47l-.24.34h0a10.06,10.06,0,0,0-1.63,3.39h0v0a.93.93,0,0,1-.3-.11.52.52,0,0,1-.17-.53v0a3.62,3.62,0,0,1,.57-.7,1.46,1.46,0,0,0,.57-1,1.2,1.2,0,0,0-.64-1.09,2.32,2.32,0,0,1,.88-.89l.15-.06A.88.88,0,0,1,118.76,39.41Zm-3.35-.48a1.51,1.51,0,0,1,1.1-.38,1.09,1.09,0,0,1,.5.19,3.3,3.3,0,0,0-1.12,1.35,2.2,2.2,0,0,0-1.06.41,3,3,0,0,0-.8.86,7.44,7.44,0,0,1,1-1.93A5,5,0,0,1,115.41,38.93Zm-2.76-.28,1.39.68a9,9,0,0,0-.61,1.16l-1.35-.69c-.07,0-.11-.14,0-.29l0-.06.3-.59.05-.12v0A.15.15,0,0,1,112.65,38.65Zm-1.06-.16-.27.54-1.49-.72.25-.57Zm-2.18-6.07a5.37,5.37,0,0,1-.08,4.89,5.31,5.31,0,0,1-2.4,2.33,5.39,5.39,0,0,1-2.91.5c1.17-1.74,3.24-5.22,2.87-7.62a18.82,18.82,0,0,0-.75-2.89A5.39,5.39,0,0,1,109.41,32.42Zm-4.85-3a4.3,4.3,0,0,1,.61.05,20,20,0,0,1,.87,3.21c.24,1.58-.86,4.31-3,7.31a5.2,5.2,0,0,1-1.31-.55,5.29,5.29,0,0,1-2.07-2.25,5.39,5.39,0,0,1,2.48-7.22,5.73,5.73,0,0,1,1.2-.43l.23,0A4.9,4.9,0,0,1,104.56,29.39Zm-8-8.49c1.17-.18,2.39.6,3.65,2.31a16.42,16.42,0,0,1,.92,1.44c-3.35-.25-6.19-.4-8.44-.45C93.7,22.25,95,21.13,96.52,20.9ZM83.61,26.56a.45.45,0,0,1-.17-.43c0-.05.21-1.07,7.87-1.07-.09.21-.19.43-.27.64s-.24.69-.34,1C89.19,27,84.67,27.52,83.61,26.56ZM90,33.38a2.45,2.45,0,0,0,.32-.09.43.43,0,0,0,.23-.57.44.44,0,0,0-.57-.23,2,2,0,0,1-.48.14,1.81,1.81,0,0,1-1.88-.58c-.39-.63.1-2.42,1-3.13.52-.4,1-.32,1.57.25a5.4,5.4,0,0,1,.69,1,.42.42,0,0,0,.58.17.43.43,0,0,0,.18-.58,5.8,5.8,0,0,0-.64-1v-.06c.07-.29.19-.85.39-1.55.11-.37.24-.78.4-1.2s.25-.62.39-.94q3.62,0,9.35.5a29.27,29.27,0,0,1,1.4,3.17,6.17,6.17,0,0,0-1.18.43,6.27,6.27,0,0,0-3.41,6.75h0c0,1.17-.23,1.46-.35,1.52s-.27,0-.5-.13a.42.42,0,0,0-.59.15.43.43,0,0,0,.16.59,1.71,1.71,0,0,0,.85.27,1.08,1.08,0,0,0,.5-.12,1.21,1.21,0,0,0,.5-.59,6.17,6.17,0,0,0,2,2.28c-1.51,2.1-2.76,3.24-3.15,3.35a2.36,2.36,0,0,1-.45.08c-1.87.15-4.13-1.81-4.76-3.53a.42.42,0,0,0-.55-.25.43.43,0,0,0-.26.55,6.64,6.64,0,0,0,5.15,4.08c0,.23,0,.46,0,.67a10.51,10.51,0,0,0,.27,4,44.69,44.69,0,0,0-9,.11q.19-1.91.36-3.72C88.91,41.27,89.25,37.52,90,33.38ZM64,98.21a8.2,8.2,0,0,1,1.89,2.86,7.61,7.61,0,0,1,.7,2.48l0,.13a1.19,1.19,0,0,1-.25.91.79.79,0,0,1-.42.23,10,10,0,0,0-.5-2.6.43.43,0,0,0-.55-.27.44.44,0,0,0-.27.55c1,2.87.33,5.65-.84,6.58a1.06,1.06,0,0,1-.89.25,7.33,7.33,0,0,0,.87-6.24.43.43,0,0,0-.83.23,6.52,6.52,0,0,1-.91,5.77l-.14.19c-.26.34-.74.87-1,.65-.09-.06-.41-.5-.17-.84a.35.35,0,0,0,0-.13c.85-1.46,1.41-4.07,1-5.4a.44.44,0,0,0-.54-.28.43.43,0,0,0-.28.55c.48,1.51-.69,5-1.43,5.32-.19.11-.45.2-.61,0a1.11,1.11,0,0,1,0-1.2,8.65,8.65,0,0,0,.52-5.9,4.28,4.28,0,0,1,0-2.67A46.89,46.89,0,0,0,64,98.15Zm13,80.92-12,0-9.89-4.57.68-1.27,9.39,4.56a.39.39,0,0,0,.18,0l11.69.23Zm30.5-39.27c-.36-.77-9.84-13.42-11.45-15.48l.63-2.6c.91-3.79,1.77-7.36,2.61-10.33a.43.43,0,1,0-.83-.24c-.85,3-1.71,6.57-2.62,10.36l-.57,2.37a.25.25,0,0,0-.12.08.43.43,0,0,0,0,.56c-1.78,7.33-3.85,15.32-6,18.23-6.32,8.54-20.89,24.29-23,26l-.24-.13L59.35,166c1.12-2.81,9.39-23.56,13.1-31.2,1.29-2.68,2-8.86,2.16-19.44C78.38,115,81,113,82,109.58a.43.43,0,0,0-.29-.54.45.45,0,0,0-.54.3,7.17,7.17,0,0,1-6.51,5.19c0-3,0-5.9,0-8.64v0l35.49-.25c5,9.59,11.42,23.23,11.59,24.16l.64,3.52c2.62,14.46,5.32,29.4,5.36,32.24-.77.34-3.81,1.37-6.83,2.35-.68-1.46-2.83-5.93-5.29-11C112.4,150.17,108.75,142.59,107.48,139.86Zm16.6,36.88-.34-1,20.92-7.26.34,1Z"/><path d="M100.61,31.35a.61.61,0,0,0-.31.81.62.62,0,0,0,.82.31,2.2,2.2,0,0,1,1.77.2.61.61,0,0,0,.42.16.65.65,0,0,0,.46-.2.63.63,0,0,0,0-.87A3.29,3.29,0,0,0,100.61,31.35Z"/><path d="M89.67,30.29a2,2,0,0,1-1.31.38.42.42,0,0,0-.48.38.43.43,0,0,0,.39.47l.24,0A2.92,2.92,0,0,0,90.19,31a.43.43,0,0,0,.08-.61A.42.42,0,0,0,89.67,30.29Z"/><path d="M94.21,31.4a2.35,2.35,0,0,1,2,0,.38.38,0,0,0,.25.08.43.43,0,0,0,.25-.78,3.15,3.15,0,0,0-2.94,0,.43.43,0,1,0,.45.74Z"/><path d="M95.53,40a.43.43,0,0,0-.6-.12.44.44,0,0,0-.12.6,2.34,2.34,0,0,0,2,1h0a1.73,1.73,0,0,0,1.46-.7.45.45,0,0,0-.14-.6.42.42,0,0,0-.59.14.93.93,0,0,1-.74.3A1.46,1.46,0,0,1,95.53,40Z"/></svg>