<svg id="Layer_1" data-name="Layer 1" xmlns="http://www.w3.org/2000/svg" viewBox="0 0 200 200"><defs><style>.cls-1{fill:none;}</style></defs><title>Larry_</title><path class="cls-1" d="M103.24,46.37c.25.94.53,1.93.82,2.92l4.06-.57c-.42-.92-.82-1.84-1.18-2.73Z"/><rect class="cls-1" x="66.39" y="183.94" width="22.28" height="1.04"/><path class="cls-1" d="M97.35,45.75c.72-.62,1.29-3.94,1.36-5.47,0-.45,0-1.08-.27-1.24-.08,0-.23.14-.3.28a4.11,4.11,0,0,0-.31,1.22l0,.35c-.07.51-.15,1.08-.22,1.56a.43.43,0,1,1-.85-.11c0-.21.05-.43.09-.65-.1-2-.11-3.49-.08-5.21,0-.08,0-.2,0-.33,0-.45.1-1.81-.21-2.09,0,0,0,0-.14,0s-.8.44-.51,5.73l0,.42a.44.44,0,0,1-.87,0l0-.4c-.15-2.92-.06-4.74.33-5.73-.11-.64-.33-.69-.64-.69a.19.19,0,0,0-.15.08c-.63.64-.6,3.6-.58,5.37,0,.52,0,1,0,1.41a.43.43,0,0,1-.43.42h0a.42.42,0,0,1-.42-.44c0-.39,0-.87,0-1.37a23,23,0,0,1,.25-4.74v0l0-.08a.56.56,0,0,0-.42.18c-.9.81-.78,7.35,0,11.14a7.47,7.47,0,0,1,4.4.43Z"/><path class="cls-1" d="M37.47,117.34c3.3-.43,6.18-2.23,6.87-5.92a.44.44,0,0,1,.51-.34.42.42,0,0,1,.34.5c-.79,4.22-4.09,6.24-7.81,6.65-2.33,22-7.39,50.66-7.91,53.6l6.37,2.53c2.45-2.51,14.44-23.17,21.78-43.18a.39.39,0,0,1,.1-.28A108.07,108.07,0,0,0,62.57,114a.43.43,0,0,1,.5-.35.44.44,0,0,1,.35.51,108.88,108.88,0,0,1-4.92,17.13c1.85,10.1,7.07,39.64,7.84,44.32,3.08.06,6.41.08,7.24,0,1.25-3.8,2.08-34.24,1.31-69.27l-36.52.06C38.19,109.67,37.88,113.39,37.47,117.34Z"/><path class="cls-1" d="M101.57,38.92h0Z"/><path class="cls-1" d="M149.62,26v-1.1a.94.94,0,0,0-.94-.94c-.09,0-4.37-.44-6.7-.44-2.14,0-6.5.43-6.54.43a1,1,0,0,0-1,.95V26a1,1,0,0,0,1,.94c.11,0,3.93-.47,6.56-.47s6.38.43,6.74.47A.94.94,0,0,0,149.62,26Z"/><path class="cls-1" d="M143.33,62.78h0c2.39,0,5.36-4.46,8.39-12.5l-.6-.14c-.9,2.85-5,10.56-7,11.67a1,1,0,0,1-.8.15c-2-.61-4.52-9.37-5-11.26l-.87,0C138.73,55.55,141.34,62.78,143.33,62.78Z"/><path class="cls-1" d="M133.59,51.3l-.56.12c.82,11.47-2.29,15.51-3.69,16.73-.06.4-.13.84-.21,1.3C134.51,64.68,133.78,53.47,133.59,51.3Z"/><path class="cls-1" d="M161.19,73.77a30,30,0,0,1-4.1-22l-.9-.3a29.57,29.57,0,0,0,5.06,23.58Q161.22,74.34,161.19,73.77Z"/><path class="cls-1" d="M35.32,183.54l-9.45-4.45-.66,1.27,9.94,4.47,12-.1v-1l-11.69-.11A.37.37,0,0,1,35.32,183.54Z"/><path class="cls-1" d="M110.56,42.74a.4.4,0,0,1,0-.38.42.42,0,0,1,.28-.27l7-2.17-6.16-3.56a.42.42,0,0,1-.22-.34.44.44,0,0,1,.16-.37l8.46-7-10.85,1.79a.41.41,0,0,1-.38-.12.44.44,0,0,1-.12-.38l1.39-7.37-6.26,4.25a.44.44,0,0,1-.66-.25l-2.87-10.61L97.42,26.55a.44.44,0,0,1-.71.21l-8.15-7.37,3.32,10.48a.44.44,0,0,1-.09.41.41.41,0,0,1-.4.14l-9.7-1.63L89,35.67a.43.43,0,0,1,.14.38.45.45,0,0,1-.25.33l-9,4.15,6.47,3.35a.42.42,0,0,1,.2.54l-3.1,7.65L91,48.43l.07,0c.37-.81.72-1.63,1.05-2.44-.76-3.43-1.2-11.12.22-12.39a1.33,1.33,0,0,1,1.27-.36l.06,0a1.44,1.44,0,0,1,.26-.37,1.09,1.09,0,0,1,.76-.34h0a1.33,1.33,0,0,1,1.26.75,1.17,1.17,0,0,1,.24-.09,1,1,0,0,1,.88.21c.59.51.58,1.7.51,2.79,0,.12,0,.22,0,.29,0,.74,0,1.42,0,2.13a1,1,0,0,1,1.24-.35c.83.4.79,1.43.76,2,0,.82-.47,5.14-1.65,6.15a1,1,0,0,1-.29.17C97.12,48.42,96,52.49,94.53,57c0,0,0,0,0,0l0,1.35,5.18-7.48a.48.48,0,0,1,.35-.19.37.37,0,0,1,.35.17l4.2,5.29.34-.87c-1.21-3.9-2.15-7.27-2.56-8.77a.43.43,0,0,1,0-.25.12.12,0,0,1-.05-.05h0a.32.32,0,0,1-.13.42.32.32,0,0,1-.14,0,.3.3,0,0,1-.27-.16,11.54,11.54,0,0,1-1.31-5.7c0-.16,0-.31,0-.45,0-.61-.06-1.62.77-2a1,1,0,0,1,1.21.37c0-.24,0-.47,0-.71,0-.46,0-1,0-1.64,0-.08,0-.18,0-.31-.06-1.07-.08-2.24.49-2.73a.89.89,0,0,1,.8-.19.79.79,0,0,1,.3.12,1.23,1.23,0,0,1,1.31-.76,1.07,1.07,0,0,1,.78.35,2.22,2.22,0,0,1,.22.34l0,0a1.28,1.28,0,0,1,1.32.25c1.49,1.29,1.14,7.92.57,11.8a.32.32,0,0,1-.31.27h0a.31.31,0,0,1-.27-.35l.06-.41c0,.23-.08.46-.12.67a.44.44,0,0,1,.17.19c.35.9.74,1.8,1.16,2.7a.4.4,0,0,1,.41,0l7.4,3.59Z"/><path class="cls-1" d="M57.06,20.08a3.27,3.27,0,0,0-3.35,1.3,8.2,8.2,0,0,0-1.57,3.49c2.89-1.41,5.3-2.51,7.3-3.36A5.58,5.58,0,0,0,57.06,20.08Z"/><path class="cls-1" d="M58.57,40.31c.71,0,1.43-.83,1.8-1.47a6.21,6.21,0,0,1-3.64-.07A2.39,2.39,0,0,0,58.57,40.31Z"/><path class="cls-1" d="M101.54,168.78a9.69,9.69,0,0,0-2.67,6.38,32.8,32.8,0,0,0,7.23,1.53C106.33,172.25,105,169.91,101.54,168.78Z"/><path class="cls-1" d="M68.68,20.55a.48.48,0,0,0,0-.49c-.17-.32-1.24-.9-7.73,1.75a17.25,17.25,0,0,1,1.1,1.39C63.28,23,68,21.87,68.68,20.55Z"/><path class="cls-1" d="M51.45,32.34a.44.44,0,0,1-.17.59l-.31.14c-.33,4.08-.28,7.86-.22,11.86,0,1.52,0,3.06,0,4.63a26.28,26.28,0,0,1,9.39-.09,28.34,28.34,0,0,1-1.25-6.36h-.16a6.84,6.84,0,0,1-5.38-3.57.41.41,0,0,1,.2-.57.43.43,0,0,1,.58.2c.91,1.89,3.7,3.63,5.52,2.91,1.08-.44,6-7.92,5.15-11.31a24,24,0,0,0-4.75-8.61c-2.05.86-4.58,2-7.71,3.54l-.48.23c-.15.82-.26,1.63-.36,2.36l0,.09a6.21,6.21,0,0,1,.73.89.44.44,0,0,1-.72.49c-.62-.92-1.22-1.39-1.75-1.33s-.89.48-1.2,1.18A2.8,2.8,0,0,0,48.46,32a2,2,0,0,0,2.4.2A.44.44,0,0,1,51.45,32.34Zm10.64.15a.42.42,0,1,1-.06-.83.42.42,0,0,1,.06.83ZM59.37,37a.45.45,0,0,1,.54-.3c.25.08.44.08.51,0s.23-.41,0-1.56q-.07-.28-.15-.63c-.33-1.38-.73-3.09-.32-4.1a1.34,1.34,0,0,1,.78-.68,3.22,3.22,0,0,1,2.23,0,.44.44,0,0,1,.21.58.44.44,0,0,1-.58.2,2.41,2.41,0,0,0-1.55,0,.49.49,0,0,0-.29.2c-.3.75.1,2.45.36,3.57.06.23.11.45.15.65.19.89.32,1.87-.23,2.38a1.09,1.09,0,0,1-.76.28,1.81,1.81,0,0,1-.58-.1A.43.43,0,0,1,59.37,37Zm1.37.8a.48.48,0,0,1,.59.05c.31.27.12.75,0,.95-.38,1-1.46,2.42-2.77,2.42h-.06C57,41.12,56,39.57,55.72,38.55c0-.19-.19-.69.16-.92a.52.52,0,0,1,.62.06A4.82,4.82,0,0,0,60.74,37.76Zm-4.59-5.51a.4.4,0,0,1,.38-.44.42.42,0,0,1,.45.38.42.42,0,0,1-.39.45A.42.42,0,0,1,56.15,32.25Zm-1.53-2.18a3.12,3.12,0,0,1,2.89-.5.43.43,0,1,1-.37.78,2.35,2.35,0,0,0-2,.36.41.41,0,0,1-.29.11.45.45,0,0,1-.32-.14A.43.43,0,0,1,54.62,30.07ZM49,31.39h0a.44.44,0,0,1,0-.87h0A1.94,1.94,0,0,0,50.3,30a.44.44,0,0,1,.6.64A2.92,2.92,0,0,1,49,31.39Z"/><path class="cls-1" d="M55,86a5.81,5.81,0,0,0,1.3.72l.7-4.74H52.56a.21.21,0,0,0-.14.07.49.49,0,0,0-.12.38l.15,2.82A3,3,0,0,1,55,86Z"/><path class="cls-1" d="M58.56,86.56a1.45,1.45,0,0,0,.56-.61l.2-3.56a.49.49,0,0,0-.1-.34Z"/><path class="cls-1" d="M54.17,81.07a2.11,2.11,0,1,0-2.67,2.62l-.07-1.25a1.4,1.4,0,0,1,.36-1,1.05,1.05,0,0,1,.77-.34Z"/><path class="cls-1" d="M63.75,76.35h-5L57.13,86.86a3,3,0,0,0,.52,0l1.41-9.68a.43.43,0,0,1,.43-.37l4.22,0Z"/><path class="cls-1" d="M57.46,87.75a4.91,4.91,0,0,1-3-1.08c-.7-.49-1.18-.82-2-.57l.1,2c.44,1,2.49,1.09,4.3.78A5.4,5.4,0,0,0,59,87.75l0-.47a2.51,2.51,0,0,1-1.11.45Z"/><path class="cls-1" d="M53.4,97.58h4.85c.11,0,.25-.16.26-.39l.1-1.82a11,11,0,0,1-3.09.41,14.88,14.88,0,0,1-2.47-.21l.1,1.63C53.16,97.42,53.29,97.58,53.4,97.58Z"/><path class="cls-1" d="M107,176.77c.6,0,1.21.07,1.85.08V165.56a10.46,10.46,0,0,0-6.56,2.55C105.77,169.42,107.2,172.08,107,176.77Z"/><path class="cls-1" d="M153.83,176.26l.13.37-.36.16A43.9,43.9,0,0,1,143.28,180a4,4,0,0,0-2.81,1.35,2.61,2.61,0,0,0-.43,1.94c1-1.25,2.81-1,5-.7a23.33,23.33,0,0,0,6.3.24,21.85,21.85,0,0,0,4.39-1.2,18.12,18.12,0,0,1,6.73-1.4c0-2.62.06-6.06.09-10.09H151.82C152.48,172.16,153.16,174.22,153.83,176.26Z"/><path class="cls-1" d="M154.75,106.2l-30.45,0c-6.83,2.86-16.57,8-18.56,11.15,7.3,5.49,13.54,9.94,14.88,10.89,0,0,0-.05.06-.06,4.42-3.77,12.12-6.22,19.24-6.15-.25-2.66-.43-5.33-.51-8l.86,0a156.47,156.47,0,0,0,4.11,29.79c3.81.09,7.38.15,10.37.18Z"/><path class="cls-1" d="M110.05,148.64c1.13,4.16,2,7,2,7.13l.13.43-.43.11c-.52.14-1.27.43-2.14.77a34.63,34.63,0,0,1-8.22,2.34,4,4,0,0,0-2.81,1.35A2.79,2.79,0,0,0,98.2,163l0,.29c1-1.22,2.7-1,4.78-.67a21.46,21.46,0,0,0,6,.24,20.57,20.57,0,0,0,4.21-1.21,17.62,17.62,0,0,1,6.18-1.4c-.11-3.19-.22-7.34-.27-11.61Z"/><path class="cls-1" d="M109.67,176.85c.46,0,.92,0,1.4,0-.26-4.8,1.23-7.48,4.9-8.77a10.46,10.46,0,0,0-6.3-2.48Z"/><path class="cls-1" d="M155.61,106.21v37.7h1.57V106.21Z"/><path class="cls-1" d="M164,78c-.51-.69-1.17-1.59-1.9-2.69.07,1.31.17,3,.29,4.88l.13,2.19a7.23,7.23,0,0,0,2.17-2.42,1,1,0,0,0,0-1Z"/><path class="cls-1" d="M162.28,92.5a29.11,29.11,0,0,1-10,2.08h-.14a.31.31,0,0,1,.29.33.29.29,0,0,1-.33.29l-1.05-.11c-1.2.25-2.29.42-3.29.55v.6a2.43,2.43,0,0,1-2.42,2.43h-3.2a2.43,2.43,0,0,1-2.43-2.43V95a2.34,2.34,0,0,1-1.23-1.33,1,1,0,0,1,.29-1,.56.56,0,0,1,.2-.12,1.85,1.85,0,0,1-.52-1.09,1.28,1.28,0,0,1,.48-1.08.75.75,0,0,1,.15-.09,2.21,2.21,0,0,1-.68-1.36,1.33,1.33,0,0,1,1-1.34,1.46,1.46,0,0,1,.36,0V80.3a2.43,2.43,0,0,1,.72-1.72.94.94,0,0,1-.52-1,3.88,3.88,0,0,1,3.2-3.16v-.21a.59.59,0,0,1-.36-.54.58.58,0,0,1,.59-.59H144a.58.58,0,0,1,.25,1.11v.22a3.87,3.87,0,0,1,3.28,3.17.94.94,0,0,1-.52,1,2.43,2.43,0,0,1,.72,1.72v6.5a4.06,4.06,0,0,1,2.9,1.65l.08.17a47.09,47.09,0,0,0,11-5.65l-.16-2.76c-.08-1.35-.16-2.56-.22-3.62h0a30.43,30.43,0,0,1-6-25.36c-1-.3-2-.55-2.79-.75-3.27,8.72-6.37,13.15-9.23,13.18h0c-3.21,0-6.06-10.22-6.73-12.82-.65.07-1.4.17-2.16.3.22,2.17,1.17,14.79-5.48,19.57h0c-1.49,9.52-4,27.38-4.24,34.58l38.36.06c-.09-1.57-.29-4.84-.53-8.74Z"/><path class="cls-1" d="M142.71,89c2.3.33,3.65.07,4.12-.77,0,0,0,0,.08-.06V80.3a1.56,1.56,0,0,0-1.56-1.56h-3.2a1.56,1.56,0,0,0-1.57,1.56v7.6l.15.1A6.65,6.65,0,0,0,142.71,89Z"/><path class="cls-1" d="M142.15,97.8h3.2a1.56,1.56,0,0,0,1.56-1.56v-.5c-.91.09-1.76.14-2.5.14a12.06,12.06,0,0,1-3.83-.52v.88A1.56,1.56,0,0,0,142.15,97.8Z"/><path class="cls-1" d="M158,106.21v37.72h4.63c0-13.09,0-26.93-.12-37.72Z"/><path class="cls-1" d="M116.56,182.24a9.59,9.59,0,0,0,2.85-6.3,27.37,27.37,0,0,1-7.44,1.67C112.29,180.56,113.71,182,116.56,182.24Z"/><path class="cls-1" d="M106.06,177.55a34.55,34.55,0,0,1-7.17-1.47,9.66,9.66,0,0,0,2.82,6.13C104.41,181.91,105.77,180.46,106.06,177.55Z"/><path class="cls-1" d="M111.12,177.66c-.49,0-1,.05-1.45.05v7.55a10.53,10.53,0,0,0,6.06-2.27C113,182.52,111.44,180.77,111.12,177.66Z"/><path class="cls-1" d="M102.53,183a10.45,10.45,0,0,0,6.28,2.3v-7.55c-.65,0-1.28,0-1.89-.08C106.61,180.67,105.17,182.43,102.53,183Z"/><path class="cls-1" d="M111.93,176.75a26.53,26.53,0,0,0,7.49-1.73,9.58,9.58,0,0,0-2.73-6.3C113.09,169.82,111.69,172.18,111.93,176.75Z"/><path d="M54.9,30.82a.41.41,0,0,0,.29-.11,2.35,2.35,0,0,1,2-.36.43.43,0,1,0,.37-.78,3.12,3.12,0,0,0-2.89.5.43.43,0,0,0,0,.61A.45.45,0,0,0,54.9,30.82Z"/><path d="M50.92,30a.44.44,0,0,0-.62,0,1.94,1.94,0,0,1-1.26.51h0a.44.44,0,0,0,0,.87h0a2.92,2.92,0,0,0,1.86-.74A.44.44,0,0,0,50.92,30Z"/><path d="M56.59,32.64a.42.42,0,0,0,.39-.45.42.42,0,0,0-.45-.38.4.4,0,0,0-.38.44A.42.42,0,0,0,56.59,32.64Z"/><path d="M62,31.66a.42.42,0,1,0,.06.83.42.42,0,0,0-.06-.83Z"/><path d="M59.67,37.49a1.81,1.81,0,0,0,.58.1,1.09,1.09,0,0,0,.76-.28c.55-.51.42-1.49.23-2.38,0-.2-.09-.42-.15-.65-.26-1.12-.66-2.82-.36-3.57a.49.49,0,0,1,.29-.2,2.41,2.41,0,0,1,1.55,0,.44.44,0,0,0,.58-.2.44.44,0,0,0-.21-.58,3.22,3.22,0,0,0-2.23,0,1.34,1.34,0,0,0-.78.68c-.41,1,0,2.72.32,4.1q.07.35.15.63c.25,1.15.12,1.47,0,1.56s-.26.07-.51,0a.45.45,0,0,0-.54.3A.43.43,0,0,0,59.67,37.49Z"/><path d="M146.91,96.24a1.56,1.56,0,0,1-1.56,1.56h-3.2a1.56,1.56,0,0,1-1.57-1.56v-.88a6.32,6.32,0,0,1-.86-.38v1.26a2.43,2.43,0,0,0,2.43,2.43h3.2a2.43,2.43,0,0,0,2.42-2.43v-.6l-.86.1Z"/><path d="M174.71,72.22l-.44-.9c-1.5-3.09-11.2-16.82-13.34-18.58s-8.21-3.15-9.69-3.46c0-3.8-.41-7.27-.8-10.92-.18-1.63-.36-3.32-.51-5.06a3.17,3.17,0,0,1-1.05-.37.31.31,0,0,1-.1-.42.3.3,0,0,1,.42-.11,2,2,0,0,0,2.56-.26,3.56,3.56,0,0,0-.22-2.95c-.33-.7-.79-1.11-1.24-1.14s-1.2.49-1.84,1.5a.3.3,0,0,1-.42.1.31.31,0,0,1-.1-.43,4.68,4.68,0,0,1,1.31-1.44v0A1.81,1.81,0,0,0,150.49,26v-1.1a1.8,1.8,0,0,0-1.77-1.81h0l-.47,0a6.55,6.55,0,0,0-1.31-2.28,5.83,5.83,0,0,0-5-2.23c-2.13.24-4.18,1.87-5.64,4.47l-.9.08a1.81,1.81,0,0,0-1.81,1.81V26a1.77,1.77,0,0,0,1,1.59.33.33,0,0,1,.38-.34.32.32,0,0,1,.24.37,15.08,15.08,0,0,0-.33,3.14c0,3.59,4,11,5.23,11.5,1.88.75,4.76-1,5.7-3a.31.31,0,0,1,.42-.14.31.31,0,0,1,.14.41,6.72,6.72,0,0,1-5.28,3.49H141c-.22.81-.53,1.86-.84,2.91-.47,1.6-1.05,3.6-1.06,3.91a.45.45,0,0,1-.43.43h0a.44.44,0,0,1-.43-.43s0,0,0-.06c-1.36.07-5.65.39-7.88,1.66-3,1.73-11.65,9-13.52,10.54a87.51,87.51,0,0,1-7.51-12.8l8.44,4.09a.41.41,0,0,0,.18.05.45.45,0,0,0,.33-.15.44.44,0,0,0,0-.53l-6.7-10,7.4-2.28a.44.44,0,0,0,.31-.37.43.43,0,0,0-.22-.42l-6.49-3.75,9.22-7.64a.44.44,0,0,0,.11-.52.41.41,0,0,0-.46-.24l-11.81,1.95,1.47-7.78a.45.45,0,0,0-.19-.44.46.46,0,0,0-.48,0l-6.62,4.49-3.13-11.57a.46.46,0,0,0-.84,0l-3.1,11.48-8.82-8a.43.43,0,0,0-.7.46l3.59,11.32L80.42,27.69a.44.44,0,0,0-.46.24.44.44,0,0,0,.09.51L88,35.86l-9.25,4.26a.43.43,0,0,0,0,.78l6.9,3.56-3.37,8.32a.43.43,0,0,0,.58.55l7.68-3.7a83.06,83.06,0,0,1-7.35,12.43c-1.76-1.31-9.66-7.12-12.69-8.77-2.57-1.41-6.46-1.48-7.72-1.49a3.56,3.56,0,0,0-1.45-1.92h0A24.46,24.46,0,0,1,59.79,43l.24-.07c1.59-.64,6.6-8.66,5.66-12.32a25.08,25.08,0,0,0-3.1-6.6c1.73-.35,5.9-1.41,6.82-3a1.34,1.34,0,0,0,.06-1.34c-.48-.93-2.07-1.43-9.14,1.47a6.9,6.9,0,0,0-3.06-1.9,4.12,4.12,0,0,0-4.21,1.56c-1.52,1.71-2,4.69-2.32,7a1.8,1.8,0,0,0-1-.22,2.51,2.51,0,0,0-1.92,1.69,3.56,3.56,0,0,0,0,3.23,2.28,2.28,0,0,0,1.88.83,3.25,3.25,0,0,0,.44,0c-.31,4-.26,7.72-.2,11.64,0,1.62,0,3.26,0,5a3.43,3.43,0,0,0-1.27,1.86l0,.11c-1.43.22-8.28,1.38-10.53,3.23S27.19,68.31,25.73,71.32l-.44.9c-1.06,2.13-2.06,4.14-1.9,6.66.18,2.71,1.81,5.5,4.73,8.07a31.91,31.91,0,0,0,9.13,5.38h0a29.07,29.07,0,0,0,11.38,1.34c.32,0,.71-1.88.65-4.46-3-.88-13.31-5.43-14.8-9a1.83,1.83,0,0,1,.05-1.73A86.8,86.8,0,0,1,46.59,65.24a.43.43,0,0,1,.61.06.44.44,0,0,1-.06.61A87.15,87.15,0,0,0,35.26,79a1,1,0,0,0,0,.94C36.58,83,46.82,87.74,49.8,88.46a.38.38,0,0,1,.25.18,2.81,2.81,0,0,1,1.66-1.13l0,.79h0c.45,1.26,2,1.57,3.35,1.57a12.14,12.14,0,0,0,1.94-.17,5.72,5.72,0,0,0,2.74-1.54s0,0,0,0a.67.67,0,0,1,.25.16.58.58,0,0,1,.19.41,1.57,1.57,0,0,1-.65,1,6.42,6.42,0,0,1-4.75,1,.43.43,0,0,0-.49.36.44.44,0,0,0,.36.49,8,8,0,0,0,1.28.1,7.09,7.09,0,0,0,3.61-.93.72.72,0,0,1,.52.15.35.35,0,0,1,.12.27,1.17,1.17,0,0,1-.5.77,6.56,6.56,0,0,1-4.8,1,.45.45,0,0,0-.49.37.44.44,0,0,0,.38.49,9.83,9.83,0,0,0,1.21.08,7.87,7.87,0,0,0,3.6-.81s0,0,0,0a.5.5,0,0,1,.44.07.34.34,0,0,1,.13.26c0,.08-.12.31-.53.59-1.29.86-4.85,1.76-10.11-.22a1.17,1.17,0,0,1-.92.8c-.73,0-1.54.08-2.41.08a28.4,28.4,0,0,1-9.07-1.39c-.15,3-.33,5.68-.48,8-.11,1.66-.22,3.19-.3,4.66a.47.47,0,0,0,.12.32.43.43,0,0,0,.32.14h.64c-.18,3.33-.5,7.07-.92,11a13.27,13.27,0,0,1-3-.17.44.44,0,0,0-.5.36.43.43,0,0,0,.36.5,15.47,15.47,0,0,0,2.45.2h.61c-2.33,22-7.36,50.46-7.88,53.38a.42.42,0,0,0-.17.18l-3.15,6.45h0l-1.07,2a.45.45,0,0,0,0,.34.4.4,0,0,0,.23.26l10.44,4.69a.39.39,0,0,0,.18,0h0l12.56-.1a.43.43,0,0,0,.43-.43v-1.9a.5.5,0,0,0,0-.12,1.09,1.09,0,0,0,0-.18c-.29-1.86-3-4.46-6.49-4.3-.67,0-1.06-.37-1.8-1.21a11.38,11.38,0,0,0-3.13-2.68c2.88-3.4,14.05-22.78,21.29-41.92,2.05,11.27,6.9,38.78,7.59,43v7.51h0a.33.33,0,0,0,0,.17.3.3,0,0,0,0,.1v1.83a.43.43,0,0,0,.43.43H89.11a.43.43,0,0,0,.43-.43v-1.9a.45.45,0,0,0-.07-.23,3.56,3.56,0,0,0-.57-2.72,4.83,4.83,0,0,0-3.41-1.7,40.43,40.43,0,0,1-8.17-2.3,21.6,21.6,0,0,0-2.86-.92c1.26-4.91,2.07-34.38,1.29-69.33h.38a.44.44,0,0,0,.43-.44c-.12-6.12-2.74-25-4.53-36.86,3.38,1.82,10.35,5.37,13.77,5.64h.08c2.19,0,5.27-7.54,7.76-14.94v.07a.44.44,0,0,0,.3.42l.13,0a.44.44,0,0,0,.36-.19l5.65-8.17,4.31,5.43a.45.45,0,0,0,.41.16.45.45,0,0,0,.34-.27l.22-.57c2.6,8.21,6.25,18,8.76,18h.08c3.56-.28,11-4.11,14.16-5.85-1.43,9-4.32,29-4.53,36.61-5.18,2.19-17.78,8.22-19.18,12.14-2.59,7.29,5.32,34.22,6.48,38.06-.5.16-1.09.39-1.8.66a33.34,33.34,0,0,1-8,2.29,4.83,4.83,0,0,0-3.41,1.7,3.54,3.54,0,0,0-.56,2.87l.33,2.46,7,0A10.75,10.75,0,0,0,98,175.41a11.17,11.17,0,0,0,22.32,0,10.76,10.76,0,0,0-6.82-9.89l7,0,0-.45c-.57-13.29-.87-34.89.74-36.25,4.22-3.61,11.92-6,18.77-5.94,1.84,18.6,7.31,36.46,12.88,53.31a42.51,42.51,0,0,1-9.71,2.93,4.86,4.86,0,0,0-3.41,1.69,3.62,3.62,0,0,0-.56,2.89l.38,2.38h23.66v-.43c0-.51.55-50.69.16-79.4h.11a.43.43,0,0,0,.31-.14.45.45,0,0,0,.12-.32c-.07-1.31-.29-4.87-.56-9.2l-.27-4.4a31.65,31.65,0,0,0,8.77-5.24c2.91-2.56,4.54-5.34,4.72-8C176.77,76.36,175.77,74.35,174.71,72.22Zm-25.53-42.1a.3.3,0,0,1,.43,0,2.14,2.14,0,0,0,1.35.55h0a.3.3,0,0,1,.31.3c0,.18-.16.34-.31.31a2.77,2.77,0,0,1-1.77-.7A.31.31,0,0,1,149.18,30.12ZM68.7,20.06a.48.48,0,0,1,0,.49C68,21.87,63.28,23,62.07,23.2A17.25,17.25,0,0,0,61,21.81C67.46,19.16,68.53,19.74,68.7,20.06Zm-15,1.32a3.27,3.27,0,0,1,3.35-1.3,5.58,5.58,0,0,1,2.38,1.43c-2,.85-4.41,1.95-7.3,3.36A8.2,8.2,0,0,1,53.71,21.38ZM48.46,32a2.8,2.8,0,0,1,.13-2.35c.31-.7.76-1.14,1.2-1.18s1.13.41,1.75,1.33a.44.44,0,0,0,.72-.49,6.21,6.21,0,0,0-.73-.89l0-.09c.1-.73.21-1.54.36-2.36l.48-.23c3.13-1.53,5.66-2.68,7.71-3.54a24,24,0,0,1,4.75,8.61c.87,3.39-4.07,10.87-5.15,11.31-1.82.72-4.61-1-5.52-2.91a.43.43,0,0,0-.58-.2.41.41,0,0,0-.2.57,6.84,6.84,0,0,0,5.38,3.57h.16a28.34,28.34,0,0,0,1.25,6.36,26.28,26.28,0,0,0-9.39.09c0-1.57,0-3.11,0-4.63-.06-4-.11-7.78.22-11.86l.31-.14a.43.43,0,0,0-.42-.76A2,2,0,0,1,48.46,32Zm3.33,49.44a1.4,1.4,0,0,0-.36,1l.07,1.25a2.11,2.11,0,1,1,2.67-2.62H52.56A1.05,1.05,0,0,0,51.79,81.41Zm.51,1a.49.49,0,0,1,.12-.38.21.21,0,0,1,.14-.07H57l-.7,4.74A5.81,5.81,0,0,1,55,86a3,3,0,0,0-2.54-.75ZM59,87.75a5.4,5.4,0,0,1-2.13,1.1c-1.81.31-3.86.25-4.3-.78l-.1-2c.82-.25,1.3.08,2,.57a4.91,4.91,0,0,0,3,1.08l.48,0a2.51,2.51,0,0,0,1.11-.45Zm.09-1.8a1.45,1.45,0,0,1-.56.61l.66-4.51a.49.49,0,0,1,.1.34Zm.37-9.13a.43.43,0,0,0-.43.37l-1.41,9.68a3,3,0,0,1-.52,0L58.7,76.35h5l0,.45Zm-4,19a11,11,0,0,0,3.09-.41l-.1,1.82c0,.23-.15.39-.26.39H53.4c-.11,0-.24-.16-.25-.38l-.1-1.63A14.88,14.88,0,0,0,55.52,95.78Zm-8.33,87.91v1l-12,.1-9.94-4.47.66-1.27,9.45,4.45a.37.37,0,0,0,.18,0Zm41.49.25v1H66.39v-1ZM74.89,106.31c.77,35-.06,65.47-1.31,69.27-.83.08-4.16.06-7.24,0-.77-4.68-6-34.22-7.84-44.32a108.88,108.88,0,0,0,4.92-17.13.44.44,0,0,0-.35-.51.43.43,0,0,0-.5.35,108.07,108.07,0,0,1-4.85,16.93.39.39,0,0,0-.1.28c-7.34,20-19.33,40.67-21.78,43.18l-6.37-2.53c.52-2.94,5.58-31.56,7.91-53.6,3.72-.41,7-2.43,7.81-6.65a.42.42,0,0,0-.34-.5.44.44,0,0,0-.51.34c-.69,3.69-3.57,5.49-6.87,5.92.41-4,.72-7.67.9-11Zm18-60.95c-.75-3.79-.87-10.33,0-11.14a.56.56,0,0,1,.42-.18l0,.08v0a23,23,0,0,0-.25,4.74c0,.5,0,1,0,1.37a.42.42,0,0,0,.42.44h0a.43.43,0,0,0,.43-.42c0-.41,0-.89,0-1.41,0-1.77,0-4.73.58-5.37a.19.19,0,0,1,.15-.08c.31,0,.53.05.64.69-.39,1-.48,2.81-.33,5.73l0,.4a.44.44,0,0,0,.87,0l0-.42c-.29-5.29.38-5.7.51-5.73s.12,0,.14,0c.31.28.24,1.64.21,2.09,0,.13,0,.25,0,.33,0,1.72,0,3.2.08,5.21,0,.22-.07.44-.09.65a.43.43,0,1,0,.85.11c.07-.48.15-1.05.22-1.56l0-.35a4.11,4.11,0,0,1,.31-1.22c.07-.14.22-.31.3-.28.31.16.29.79.27,1.24-.07,1.53-.64,4.85-1.36,5.47l-.07,0A7.47,7.47,0,0,0,92.88,45.36Zm11.18,3.93c-.29-1-.57-2-.82-2.92l3.7-.38c.36.89.76,1.81,1.18,2.73Zm4.82-1c-.42-.9-.81-1.8-1.16-2.7a.44.44,0,0,0-.17-.19c0-.21.08-.44.12-.67.63-4.6.62-9.93-.42-10.83a.66.66,0,0,0-.63-.17.3.3,0,0,1,0,.16,21.09,21.09,0,0,1,.26,5.42l0,.8a.3.3,0,0,1-.31.3h0a.31.31,0,0,1-.3-.32l0-.8c.07-1.94.18-5.19-.6-6a.52.52,0,0,0-.36-.16c-.52,0-.72.17-.81.71.46.94.58,2.86.42,6l0,.35a.33.33,0,0,1-.32.3.32.32,0,0,1-.3-.32l0-.36c.28-5.29-.39-6-.69-6.06a.3.3,0,0,0-.28.05c-.38.34-.31,1.67-.27,2.24,0,.13,0,.25,0,.33,0,.68,0,1.17,0,1.64,0,.79,0,1.49,0,2.82,0,0,0,0,0,0,0,.42,0,.86,0,1.26v.39a.31.31,0,0,1-.31.31h0a.31.31,0,0,1-.31-.3v-.39a13.48,13.48,0,0,0-.08-1.58,4,4,0,0,0-.36-1.3s-.2-.35-.45-.36h-.12c-.42.2-.44.78-.42,1.35,0,.21,0,.37,0,.53a11.06,11.06,0,0,0,1.24,5.41.12.12,0,0,0,.05.05.43.43,0,0,0,0,.25c.41,1.5,1.35,4.87,2.56,8.77l-.34.87-4.2-5.29a.37.37,0,0,0-.35-.17.48.48,0,0,0-.35.19l-5.18,7.48,0-1.35s0,0,0,0c1.44-4.5,2.59-8.57,3.1-10.42a1,1,0,0,0,.29-.17c1.18-1,1.62-5.33,1.65-6.15,0-.55.07-1.58-.76-2a1,1,0,0,0-1.24.35c0-.71,0-1.39,0-2.13,0-.07,0-.17,0-.29.07-1.09.08-2.28-.51-2.79a1,1,0,0,0-.88-.21,1.17,1.17,0,0,0-.24.09,1.33,1.33,0,0,0-1.26-.75h0a1.09,1.09,0,0,0-.76.34,1.44,1.44,0,0,0-.26.37l-.06,0a1.33,1.33,0,0,0-1.27.36c-1.42,1.27-1,9-.22,12.39-.33.81-.68,1.63-1.05,2.44l-.07,0-7.54,3.64,3.1-7.65a.42.42,0,0,0-.2-.54l-6.47-3.35,9-4.15a.45.45,0,0,0,.25-.33.43.43,0,0,0-.14-.38l-7.33-6.88,9.7,1.63a.41.41,0,0,0,.4-.14.44.44,0,0,0,.09-.41L88.56,19.39l8.15,7.37a.44.44,0,0,0,.71-.21l2.87-10.61,2.87,10.61a.44.44,0,0,0,.66.25l6.26-4.25-1.39,7.37a.44.44,0,0,0,.12.38.41.41,0,0,0,.38.12L120,28.63l-8.46,7a.44.44,0,0,0-.16.37.42.42,0,0,0,.22.34l6.16,3.56-7,2.17a.42.42,0,0,0-.28.27.4.4,0,0,0,0,.38l6.13,9.12-7.4-3.59A.4.4,0,0,0,108.88,48.3Zm47.31,3.18.9.3a30,30,0,0,0,4.1,22q0,.57.06,1.29A29.57,29.57,0,0,1,156.19,51.48ZM137.82,32.05a.42.42,0,0,1,.45-.39.42.42,0,0,1,.38.45.41.41,0,0,1-.44.38A.42.42,0,0,1,137.82,32.05Zm.35,4a15.69,15.69,0,0,1,.62-1.8c.47-1.25,1.12-3,.89-3.54a.63.63,0,0,0-.36-.27,2.51,2.51,0,0,0-1.65,0,.3.3,0,0,1-.41-.15.31.31,0,0,1,.15-.41,3.11,3.11,0,0,1,2.13,0,1.16,1.16,0,0,1,.71.61c.3.75-.17,2.12-.89,4a14.41,14.41,0,0,0-.58,1.71c0,.12,0,.15,0,.17s.44.26,1.72.11a.3.3,0,0,1,.34.27.31.31,0,0,1-.27.34,8.07,8.07,0,0,1-1,.07,1.7,1.7,0,0,1-1.27-.38A.78.78,0,0,1,138.17,36Zm3.05,4.15h-.1a2.27,2.27,0,0,1-2.24-1.36.3.3,0,0,1,.18-.39.31.31,0,0,1,.4.18,1.7,1.7,0,0,0,1.74,1,2.45,2.45,0,0,0,2.31-1.8.32.32,0,0,1,.39-.21.32.32,0,0,1,.21.39A3.12,3.12,0,0,1,141.22,40.15Zm1.8-8a.42.42,0,0,1,.45-.38.4.4,0,0,1,.38.44.42.42,0,0,1-.44.39A.42.42,0,0,1,143,32.19Zm2.31-1.59a.34.34,0,0,1-.23.1.32.32,0,0,1-.21-.08,2.43,2.43,0,0,0-2.09-.38.32.32,0,0,1-.41-.15.31.31,0,0,1,.15-.41,3,3,0,0,1,2.76.48A.31.31,0,0,1,145.33,30.6ZM142,26.5c-2.63,0-6.45.46-6.56.47a1,1,0,0,1-1-.94v-1.1a1,1,0,0,1,1-.95s4.4-.43,6.54-.43c2.33,0,6.61.43,6.7.44a.94.94,0,0,1,.94.94V26a.94.94,0,0,1-.92.94C148.34,26.93,144.64,26.5,142,26.5Zm-3.62,24.2c.51,1.89,3,10.65,5,11.26a1,1,0,0,0,.8-.15c1.93-1.11,6.05-8.82,7-11.67l.6.14c-3,8-6,12.48-8.39,12.5h0c-2,0-4.6-7.23-5.86-12Zm-9,17.45c1.4-1.22,4.51-5.26,3.69-16.73l.56-.12c.19,2.17.92,13.38-4.46,18.15C129.21,69,129.28,68.55,129.34,68.15Zm-27.8,100.63c3.44,1.13,4.79,3.47,4.56,7.91a32.8,32.8,0,0,1-7.23-1.53A9.69,9.69,0,0,1,101.54,168.78Zm-2.65,7.3a34.55,34.55,0,0,0,7.17,1.47c-.29,2.91-1.65,4.36-4.35,4.66A9.66,9.66,0,0,1,98.89,176.08Zm9.92,9.18a10.45,10.45,0,0,1-6.28-2.3c2.64-.53,4.08-2.29,4.39-5.33.61,0,1.24.07,1.89.08Zm0-8.41c-.64,0-1.25,0-1.85-.08.24-4.69-1.19-7.35-4.71-8.66a10.46,10.46,0,0,1,6.56-2.55Zm.86,8.41v-7.55c.47,0,1,0,1.45-.05.32,3.11,1.84,4.86,4.61,5.33A10.53,10.53,0,0,1,109.67,185.26Zm6.89-3c-2.85-.23-4.27-1.68-4.59-4.63a27.37,27.37,0,0,0,7.44-1.67A9.59,9.59,0,0,1,116.56,182.24Zm2.86-7.22a26.53,26.53,0,0,1-7.49,1.73c-.24-4.57,1.16-6.93,4.76-8A9.58,9.58,0,0,1,119.42,175ZM116,168c-3.67,1.29-5.16,4-4.9,8.77-.48,0-.94,0-1.4,0V165.56A10.46,10.46,0,0,1,116,168Zm-2.7-6.39a20.57,20.57,0,0,1-4.21,1.21,21.46,21.46,0,0,1-6-.24c-2.08-.3-3.81-.55-4.78.67l0-.29a2.79,2.79,0,0,1,.41-2.23,4,4,0,0,1,2.81-1.35,34.63,34.63,0,0,0,8.22-2.34c.87-.34,1.62-.63,2.14-.77l.43-.11-.13-.43c0-.09-.9-3-2-7.13h9.13c0,4.27.16,8.42.27,11.61A17.62,17.62,0,0,0,113.27,161.65Zm27-47.72-.86,0c.08,2.69.26,5.36.51,8-7.12-.07-14.82,2.38-19.24,6.15,0,0,0,.05-.06.06-1.34-1-7.58-5.4-14.88-10.89,2-3.16,11.73-8.29,18.56-11.15l30.45,0v37.7c-3,0-6.56-.09-10.37-.18A156.47,156.47,0,0,1,140.27,113.93Zm22.17,66.25a18.12,18.12,0,0,0-6.73,1.4,21.85,21.85,0,0,1-4.39,1.2,23.33,23.33,0,0,1-6.3-.24c-2.17-.3-4-.55-5,.7a2.61,2.61,0,0,1,.43-1.94,4,4,0,0,1,2.81-1.35,43.9,43.9,0,0,0,10.32-3.16l.36-.16-.13-.37c-.67-2-1.35-4.1-2-6.17h10.71C162.5,174.12,162.47,177.56,162.44,180.18Zm-6.83-36.27v-37.7h1.57v37.71Zm7.06,0H158V106.21h4.51C162.69,117,162.71,130.85,162.67,143.94Zm-38-38.65c.23-7.2,2.75-25.06,4.24-34.58h0c6.65-4.78,5.7-17.4,5.48-19.57.76-.13,1.51-.23,2.16-.3.67,2.6,3.52,12.82,6.73,12.82h0c2.86,0,6-4.46,9.23-13.18.8.2,1.78.45,2.79.75a30.43,30.43,0,0,0,6,25.36h0c.06,1.06.14,2.27.22,3.62l.16,2.76a47.09,47.09,0,0,1-11,5.65l-.08-.17a4.06,4.06,0,0,0-2.9-1.65V80.3a2.43,2.43,0,0,0-.72-1.72.94.94,0,0,0,.52-1,3.87,3.87,0,0,0-3.28-3.17v-.22a.58.58,0,0,0-.25-1.11h-.69a.58.58,0,0,0-.59.59.59.59,0,0,0,.36.54v.21a3.88,3.88,0,0,0-3.2,3.16.94.94,0,0,0,.52,1,2.43,2.43,0,0,0-.72,1.72v7.27a1.17,1.17,0,0,1,.6.16l.26.17V80.3a1.56,1.56,0,0,1,1.57-1.56h3.2a1.56,1.56,0,0,1,1.56,1.56v7.91a.29.29,0,0,1,.34-.07.31.31,0,0,1,.12.42c-.81,1.47-3.1,1.33-4.75,1.09a6.79,6.79,0,0,1-2.24-1.14l-.39-.26a.57.57,0,0,0-.44-.06.7.7,0,0,0-.52.72,1.83,1.83,0,0,0,.76,1.21,6.76,6.76,0,0,0,5,1.13.31.31,0,0,1,.09.61,7.85,7.85,0,0,1-1.19.09,7.24,7.24,0,0,1-3.89-1.08.62.62,0,0,0-.52,0,.66.66,0,0,0-.22.54,1.35,1.35,0,0,0,.57.91,6.94,6.94,0,0,0,5,1,.31.31,0,0,1,.07.62,10.66,10.66,0,0,1-1.26.08,7.78,7.78,0,0,1-3.63-.82s-.53-.25-.71-.09a.38.38,0,0,0-.08.34c.24.91,2.85,2.86,11.89,1h.1l1,.11h.17a29.11,29.11,0,0,0,10-2.08l.25,4.11c.24,3.9.44,7.17.53,8.74Zm40-25.37a7.23,7.23,0,0,1-2.17,2.42l-.13-2.19c-.12-1.92-.22-3.57-.29-4.88.73,1.1,1.39,2,1.9,2.69l.7,1A1,1,0,0,1,164.72,79.92Z"/><path d="M55.88,37.63c-.35.23-.21.73-.16.92.28,1,1.27,2.57,2.82,2.63h.06c1.31,0,2.39-1.47,2.77-2.42.08-.2.27-.68,0-.95a.48.48,0,0,0-.59-.05,4.82,4.82,0,0,1-4.24-.07A.52.52,0,0,0,55.88,37.63Zm4.49,1.21c-.37.64-1.09,1.46-1.8,1.47a2.39,2.39,0,0,1-1.84-1.54A6.21,6.21,0,0,0,60.37,38.84Z"/><polygon points="138.23 49.84 139.56 49.84 139.29 50.47 137.85 50.22 138.23 49.84"/></svg>