<svg id="Layer_1" data-name="Layer 1" xmlns="http://www.w3.org/2000/svg" viewBox="0 0 200 200"><defs><style>.cls-1{fill:none;}.cls-2{fill:#fff;}</style></defs><title>Larry_</title><path class="cls-1" d="M98.92,34.81a.43.43,0,0,1-.17.59l-.31.14c-.33,4.07-.27,7.85-.21,11.85,0,1.46,0,2.94,0,4.45a39.8,39.8,0,0,1,9.56,0,21.34,21.34,0,0,1-1-4.29c-.11-.68-.23-1.33-.36-1.94h-.22A6.82,6.82,0,0,1,100.87,42a.43.43,0,1,1,.78-.38c.92,1.89,3.71,3.64,5.53,2.91a5.15,5.15,0,0,0,1.38-1.47c-.57-.3-1.42-.59-1.77-.17a.43.43,0,1,1-.66-.55c.74-.89,2.08-.47,2.93,0,1.74-2.58,3.86-6.81,3.27-9.12a24.3,24.3,0,0,0-4.75-8.62c-2,.86-4.58,2-7.71,3.54l-.48.24c-.15.81-.27,1.62-.37,2.34v.11a5.78,5.78,0,0,1,.72.89.43.43,0,0,1-.11.6.43.43,0,0,1-.6-.12c-.62-.91-1.22-1.38-1.75-1.32s-.9.48-1.2,1.17a2.79,2.79,0,0,0-.13,2.36,2,2,0,0,0,2.39.2A.43.43,0,0,1,98.92,34.81Zm10.21.88a.41.41,0,0,1-.41-.41.41.41,0,0,1,.41-.42.42.42,0,0,1,.42.42A.41.41,0,0,1,109.13,35.69Zm-2.53,3.74a.44.44,0,0,1,.56-.25c.24.09.43.11.51,0s.25-.4.08-1.56c0-.28-.1-.59-.16-.92A7.12,7.12,0,0,1,107.5,33a.44.44,0,0,1,.57-.24.43.43,0,0,1,.24.55,3.08,3.08,0,0,1,2.3.11.43.43,0,0,1-.44.74,2.37,2.37,0,0,0-2,.15h0a13.06,13.06,0,0,0,.27,2.23c.07.34.13.66.17,1,.14.9.19,1.88-.39,2.35a1.07,1.07,0,0,1-.68.23,2,2,0,0,1-.68-.14A.44.44,0,0,1,106.6,39.43Zm-2.66-3.74a.41.41,0,0,1-.42-.41.42.42,0,0,1,.84,0A.41.41,0,0,1,103.94,35.69Zm-1.59-2a3.14,3.14,0,0,1,2.92-.19.43.43,0,0,1-.44.74,2.35,2.35,0,0,0-2,.15.43.43,0,0,1-.6-.1A.42.42,0,0,1,102.35,33.65Zm-5.84.2h0a.43.43,0,1,1,0-.86h0a2,2,0,0,0,1.27-.51.43.43,0,1,1,.59.63A2.9,2.9,0,0,1,96.51,33.85Z"/><path class="cls-1" d="M98.5,83.35a.44.44,0,0,1,.6.15.44.44,0,0,1-.14.59,3.19,3.19,0,0,0-1.29,1.5,2.48,2.48,0,0,0,.06,1.71h0a4.27,4.27,0,0,1,1.75-2,.43.43,0,0,1,.44.74,3.36,3.36,0,0,0-1.38,1.58,2.44,2.44,0,0,0,.1,1.86h0a3.66,3.66,0,0,0,.34.42,2.74,2.74,0,0,0,2,.88,2.3,2.3,0,0,0,1.27-.38,1.26,1.26,0,0,0-.32-.58,1.13,1.13,0,0,0-.78-.19l-.47,0-.13,0-.1-.08a.94.94,0,0,1-.3-1.08c.48-1.26,4-2.41,7.3-2.34h.22a10.29,10.29,0,0,1-.43-3.69,1.89,1.89,0,0,1-1-1.58v-.06c-4,.07-6.09.45-6.69.8-1.49.86-2.12,1.69-2.21,2.93A4.42,4.42,0,0,1,98.5,83.35Z"/><path class="cls-1" d="M80.79,95.65c-.56-.06-.75,0-.79.09a.07.07,0,0,0,0,.06,4.23,4.23,0,0,1,.83.14C80.8,95.85,80.8,95.75,80.79,95.65Z"/><path class="cls-1" d="M86.61,71.45c-1.9,1.15-6.54,4.19-7.1,6.72-.18.81,2.63,5.45,4.73,8.32C85.07,80.7,86,75.09,86.61,71.45Z"/><path class="cls-1" d="M113.33,85.22a1,1,0,0,1,0-.17l-.06-.29-.06-.36a.68.68,0,0,1,0-.14,8,8,0,0,1,.33-3.83c-.54,0-1.15.08-1.6.1a1.45,1.45,0,0,1,0,.28,2.07,2.07,0,0,1-1.49,1.82,9.61,9.61,0,0,0,.48,3.36l2.59-.13c0-.12-.08-.25-.11-.38Z"/><path class="cls-1" d="M116.16,23a.46.46,0,0,0,0-.48c-.16-.33-1.23-.9-7.73,1.75.38.43.75.9,1.1,1.38C110.75,25.45,115.42,24.34,116.16,23Z"/><path class="cls-1" d="M104.54,22.54a3.29,3.29,0,0,0-3.36,1.3,8.12,8.12,0,0,0-1.56,3.49c2.89-1.41,5.29-2.51,7.3-3.36A5.74,5.74,0,0,0,104.54,22.54Z"/><path class="cls-1" d="M72.68,32.16v2.37H84.6V32.19A4.85,4.85,0,0,0,81.88,28a2,2,0,0,1-1.09-1.69,2.25,2.25,0,0,1,1.06-1.66,4.89,4.89,0,0,0,2.75-4.22V18.1H72.68v2.34a4.84,4.84,0,0,0,2.71,4.19,2.22,2.22,0,0,1,1.1,1.67A2,2,0,0,1,75.4,28,4.87,4.87,0,0,0,72.68,32.16Zm3.39-2.71c.54-.32,1.59-.91,1.59-1.54l0-1.74c0-.81-1.15-1.57-1.83-2a5.13,5.13,0,0,1-2.06-2.61A1.28,1.28,0,0,1,75,19.85h7.26a1.28,1.28,0,0,1,1.21,1.7,5.13,5.13,0,0,1-2.06,2.61c-.68.44-1.66,1.27-1.66,2.08v1.64c0,.63.91,1.25,1.45,1.57a5.12,5.12,0,0,1,2.55,4.09.32.32,0,0,1-.32.34H73.87a.35.35,0,0,1-.35-.37A5.15,5.15,0,0,1,76.07,29.45Z"/><path class="cls-1" d="M80.23,97a.66.66,0,0,0,.38-.26,2.33,2.33,0,0,0-1.64,0,.43.43,0,0,0-.16.22l.43,0A2.51,2.51,0,0,0,80.23,97Z"/><path class="cls-1" d="M119.84,77.68a2.5,2.5,0,0,0,.38-.27.81.81,0,0,0,.09-.1,3,3,0,0,1-.47.36Z"/><polygon class="cls-1" points="98.31 186.51 120.52 186.51 120.52 185.63 98.31 185.53 98.31 186.51"/><path class="cls-1" d="M109.06,79.6c-1.08,0-2,.56-2,1.21s.91,1.22,2,1.22,2-.56,2-1.22S110.14,79.6,109.06,79.6Z"/><path class="cls-1" d="M96,177.11h8.17c0-1.29,0-3,.06-5.13.06-4.84.14-11.41.2-18.67h0A178.53,178.53,0,0,1,98.82,116a.43.43,0,0,1,.41-.45h0a.43.43,0,0,1,.43.42c.64,20.9,6.36,41.72,12.46,61.12h8.44c0-.73,0-1.49,0-2.33.14-13.36.38-36.25.31-55.57-3.72-1.14-6.71-3.84-6.58-8.27a.44.44,0,0,1,.43-.42h0a.43.43,0,0,1,.42.44c-.11,3.86,2.45,6.26,5.71,7.34,0-3.65,0-7.16-.09-10.45l-37.19.08C84.3,136.78,91,161.18,96,177.11Z"/><path class="cls-1" d="M109.57,82.86a4.24,4.24,0,0,1-.51,0,4,4,0,0,1-1-.13,9.82,9.82,0,0,0,.48,3.31L110,86A10.42,10.42,0,0,1,109.57,82.86Z"/><path class="cls-1" d="M81.48,93.16a5.57,5.57,0,0,0,.07,1.42c.16,1.22.37,2.88-1.08,3.29a3.66,3.66,0,0,1-1.31.06c-.65-.06-1-.07-1.38.3-.16.18-.34.43-.29.63s.19.42,1.09.77a4.14,4.14,0,0,0,4-1c.35-2.94.78-6.23,1.25-9.57A9.09,9.09,0,0,0,81.48,93.16Z"/><path class="cls-1" d="M120.42,77.2a3.53,3.53,0,0,0,1.07-2.62,5.72,5.72,0,0,0-2.11-3.78c.09,1.36.24,3.67.39,5.84l0,0Z"/><rect class="cls-1" x="82.11" y="185.53" width="15.3" height="0.99"/><path class="cls-1" d="M85.4,16.67a.58.58,0,0,0-.57-.58H72.45a.58.58,0,0,0,0,1.15H84.83A.58.58,0,0,0,85.4,16.67Z"/><path class="cls-1" d="M111.19,177v0c-2.11-6.71-4.16-13.59-6-20.57-.06,6-.12,11.43-.18,15.57,0,3.75-.08,6.63-.08,7.73a39,39,0,0,0,5.06-2.21A11.6,11.6,0,0,1,111.19,177Z"/><path class="cls-1" d="M71.88,36a.58.58,0,0,0,.57.58H84.83a.58.58,0,0,0,0-1.15H72.45A.58.58,0,0,0,71.88,36Z"/><path d="M113.33,85.22l.06.26Z"/><path d="M113.23,84.76l.06.29Z"/><path d="M120.9,55.94c-2-1.12-9-1.7-10.72-1.82A2.64,2.64,0,0,0,108.76,52l.07,0a17.19,17.19,0,0,1-1.15-4.57c-.11-.66-.22-1.32-.36-2a1.21,1.21,0,0,0,.18,0c1.59-.63,6.6-8.65,5.67-12.32a25.71,25.71,0,0,0-3.1-6.59c1.72-.35,5.89-1.41,6.82-3a1.33,1.33,0,0,0,0-1.35c-.47-.92-2.07-1.43-9.14,1.47a6.88,6.88,0,0,0-3.06-1.9,4.11,4.11,0,0,0-4.2,1.57c-1.53,1.7-2,4.68-2.32,7a1.91,1.91,0,0,0-1-.22,2.53,2.53,0,0,0-1.91,1.7,3.51,3.51,0,0,0,0,3.22,2.27,2.27,0,0,0,1.88.83l.43,0c-.31,4-.26,7.71-.2,11.63,0,1.54,0,3.11,0,4.7A3.39,3.39,0,0,0,96.09,54l0,.11c-1.46.24-8.6,1.51-12.1,3.92-.18.12-18.15,12.7-16.38,19.45C68.76,82,72.83,89.23,80.39,94.77a1.47,1.47,0,0,0-1,.34,1.07,1.07,0,0,0-.32.75,1.78,1.78,0,0,0-.6.25,1.34,1.34,0,0,0-.56,1,1.68,1.68,0,0,0-.78.51,1.56,1.56,0,0,0-.49,1.42c.13.55.67,1,1.63,1.37a4.1,4.1,0,0,0,1.37.23,5.41,5.41,0,0,0,2.84-.84c-.38,3.29-.63,6-.67,7.66a.4.4,0,0,0,.13.31.39.39,0,0,0,.3.13h.52c.66,28.91,7.32,53.37,12.34,69.36l-1.08.46a34.35,34.35,0,0,1-8.8,2.83,4.83,4.83,0,0,0-3.41,1.7,3.52,3.52,0,0,0-.57,2.74s0,0,0,0V187a.43.43,0,0,0,.43.43H121a.44.44,0,0,0,.44-.43v-1.9h0c0-.81,0-4.83.08-10.26.14-13.31.39-36.07.31-55.35a14.85,14.85,0,0,0,2.65.38h0a.43.43,0,0,0,0-.86,13.55,13.55,0,0,1-2.7-.41c0-3.74,0-7.35-.09-10.72a.42.42,0,0,0,.24-.12.49.49,0,0,0,.12-.32c-.06-.9-.3-4.07-.61-8.18-.29-3.71-.62-8.17-.94-12.42a43.07,43.07,0,0,1-5.1.5l-1,0h0a.32.32,0,0,1-.14,0c-.16,0-.27-.09-.64-1.19,0-.09,0-.18-.08-.27l-2.59.13a9.61,9.61,0,0,1-.48-3.36,2.07,2.07,0,0,0,1.49-1.82,1.45,1.45,0,0,0,0-.28c.45,0,1.06,0,1.6-.1a7,7,0,0,1,.84-1.63.44.44,0,0,1,.27-.17c1.11-.23,4.17-1,5.18-2-.15-2.17-.3-4.48-.39-5.84a5.72,5.72,0,0,1,2.11,3.78,3.53,3.53,0,0,1-1.07,2.62h0l-.12.1a.81.81,0,0,1-.09.1,2.5,2.5,0,0,1-.38.27h0a17.59,17.59,0,0,1-4.9,1.77c-1.83,2.77-.68,6.11-.31,7l.73,0a41.6,41.6,0,0,0,5.08-.5h0c6.38-1.19,10.41-3.48,12-6.84C135.55,72.53,124,57.69,120.9,55.94Zm-4.73-33.41a.46.46,0,0,1,0,.48c-.74,1.33-5.41,2.44-6.62,2.65-.35-.48-.72-.95-1.1-1.38C114.94,21.63,116,22.2,116.17,22.53Zm-15,1.31a3.29,3.29,0,0,1,3.36-1.3A5.74,5.74,0,0,1,106.92,24c-2,.85-4.41,2-7.3,3.36A8.12,8.12,0,0,1,101.18,23.84Zm-5.24,10.6a2.79,2.79,0,0,1,.13-2.36c.3-.69.75-1.13,1.2-1.17s1.13.41,1.75,1.32a.43.43,0,0,0,.6.12.43.43,0,0,0,.11-.6,5.78,5.78,0,0,0-.72-.89v-.11c.1-.72.22-1.53.37-2.34l.48-.24c3.13-1.53,5.66-2.68,7.71-3.54a24.3,24.3,0,0,1,4.75,8.62c.59,2.31-1.53,6.54-3.27,9.12-.85-.48-2.19-.9-2.93,0a.43.43,0,1,0,.66.55c.35-.42,1.2-.13,1.77.17a5.15,5.15,0,0,1-1.38,1.47c-1.82.73-4.61-1-5.53-2.91a.43.43,0,1,0-.78.38,6.82,6.82,0,0,0,5.38,3.56h.22c.13.61.25,1.26.36,1.94a21.34,21.34,0,0,0,1,4.29,39.8,39.8,0,0,0-9.56,0c0-1.51,0-3,0-4.45-.06-4-.12-7.78.21-11.85l.31-.14a.43.43,0,1,0-.42-.76A2,2,0,0,1,95.94,34.44Zm3.58,47.11c.6-.35,2.69-.73,6.69-.8v.06a1.89,1.89,0,0,0,1,1.58,10.29,10.29,0,0,0,.43,3.69h-.22c-3.29-.07-6.82,1.08-7.3,2.34a.94.94,0,0,0,.3,1.08l.1.08.13,0,.47,0a1.13,1.13,0,0,1,.78.19,1.26,1.26,0,0,1,.32.58,2.3,2.3,0,0,1-1.27.38,2.74,2.74,0,0,1-2-.88,3.66,3.66,0,0,1-.34-.42h0a2.44,2.44,0,0,1-.1-1.86A3.36,3.36,0,0,1,99.92,86a.43.43,0,0,0-.44-.74,4.27,4.27,0,0,0-1.75,2h0a2.48,2.48,0,0,1-.06-1.71A3.19,3.19,0,0,1,99,84.09a.44.44,0,0,0,.14-.59.44.44,0,0,0-.6-.15,4.42,4.42,0,0,0-1.19,1.13C97.4,83.24,98,82.41,99.52,81.55Zm-20-3.38c.56-2.53,5.2-5.57,7.1-6.72-.65,3.64-1.54,9.25-2.37,15C82.14,83.62,79.33,79,79.51,78.17ZM80,95.74s.23-.15.79-.09c0,.1,0,.2,0,.29A4.23,4.23,0,0,0,80,95.8.07.07,0,0,1,80,95.74Zm-1,1.08a2.33,2.33,0,0,1,1.64,0,.66.66,0,0,1-.38.26,2.51,2.51,0,0,1-1,0l-.43,0A.43.43,0,0,1,79,96.82Zm3.66,1.77a4.14,4.14,0,0,1-4,1c-.9-.35-1.07-.65-1.09-.77s.13-.45.29-.63c.34-.37.73-.36,1.38-.3a3.66,3.66,0,0,0,1.31-.06c1.45-.41,1.24-2.07,1.08-3.29a5.57,5.57,0,0,1-.07-1.42A9.09,9.09,0,0,1,83.88,89C83.41,92.36,83,95.65,82.63,98.59Zm14.78,87.92H82.11v-1h15.3Zm0-1.08c0-2.9,1.3-4.53,4-4.85a17.11,17.11,0,0,0,3.56-.86c0-1.1,0-4,.08-7.73.06-4.14.12-9.56.18-15.57,1.81,7,3.86,13.86,6,20.57l.26.79c-.15.05-.56.26-1,.5-1.91,1-5.46,2.75-8.91,3.16-2.26.26-3.25,1.49-3.21,4Zm23.09,1.08H98.31v-1l22.21.1Zm.3-78.66c.05,3.29.08,6.8.09,10.45-3.26-1.08-5.82-3.48-5.71-7.34a.43.43,0,0,0-.42-.44h0a.44.44,0,0,0-.43.42c-.13,4.43,2.86,7.13,6.58,8.27.07,19.32-.17,42.21-.31,55.57,0,.84,0,1.6,0,2.33h-8.44c-6.1-19.4-11.82-40.22-12.46-61.12a.43.43,0,0,0-.43-.42h0a.43.43,0,0,0-.41.45,178.53,178.53,0,0,0,5.62,37.29h0c-.06,7.26-.14,13.83-.2,18.67,0,2.15,0,3.84-.06,5.13H96c-5-15.93-11.66-40.33-12.33-69.18ZM108.06,82.76a4,4,0,0,0,1,.13,4.24,4.24,0,0,0,.51,0A10.42,10.42,0,0,0,110,86l-1.47,0A9.82,9.82,0,0,1,108.06,82.76Zm1-.73c-1.08,0-2-.56-2-1.22s.91-1.21,2-1.21,2,.56,2,1.21S110.14,82,109.06,82Z"/><path d="M113.15,84.26a.68.68,0,0,0,0,.14A.68.68,0,0,1,113.15,84.26Z"/><path d="M102.6,34.43a.41.41,0,0,0,.25-.08,2.35,2.35,0,0,1,2-.15.43.43,0,0,0,.44-.74,3.14,3.14,0,0,0-2.92.19.42.42,0,0,0-.1.6A.41.41,0,0,0,102.6,34.43Z"/><path d="M98.39,32.5a.44.44,0,0,0-.61,0,2,2,0,0,1-1.27.51h0a.43.43,0,1,0,0,.86h0a2.9,2.9,0,0,0,1.86-.74A.44.44,0,0,0,98.39,32.5Z"/><path d="M103.94,34.86a.42.42,0,0,0-.42.42.42.42,0,0,0,.84,0A.42.42,0,0,0,103.94,34.86Z"/><path d="M109.13,34.86a.41.41,0,0,0-.41.42.41.41,0,0,0,.41.41.41.41,0,0,0,.42-.41A.42.42,0,0,0,109.13,34.86Z"/><path d="M106.85,40a2,2,0,0,0,.68.14,1.07,1.07,0,0,0,.68-.23c.58-.47.53-1.45.39-2.35,0-.3-.1-.62-.17-1a13.06,13.06,0,0,1-.27-2.23h0a2.37,2.37,0,0,1,2-.15.43.43,0,0,0,.44-.74,3.08,3.08,0,0,0-2.3-.11.43.43,0,0,0-.24-.55.44.44,0,0,0-.57.24,7.12,7.12,0,0,0,.09,3.71c.06.33.12.64.16.92.17,1.16,0,1.47-.08,1.56s-.27,0-.51,0a.43.43,0,0,0-.31.81Z"/><path d="M75,27.24a5.74,5.74,0,0,0-3.18,4.92v2.52a1.44,1.44,0,0,0,.64,2.72H84.83a1.44,1.44,0,0,0,.64-2.72V32.15a5.74,5.74,0,0,0-3.19-4.91,1.16,1.16,0,0,1-.63-.92c0-.41.48-.82.64-.92a5.7,5.7,0,0,0,3.18-5V18a1.44,1.44,0,0,0-.64-2.72H72.45A1.44,1.44,0,0,0,71.81,18v2.49A5.7,5.7,0,0,0,75,25.39a1.38,1.38,0,0,1,.65,1C75.66,26.87,75,27.24,75,27.24ZM85.4,36a.58.58,0,0,1-.57.58H72.45a.58.58,0,0,1,0-1.15H84.83A.58.58,0,0,1,85.4,36ZM71.88,16.67a.58.58,0,0,1,.57-.58H84.83a.58.58,0,0,1,0,1.15H72.45A.58.58,0,0,1,71.88,16.67Zm4.61,9.63a2.22,2.22,0,0,0-1.1-1.67,4.84,4.84,0,0,1-2.71-4.19V18.1H84.6v2.34a4.89,4.89,0,0,1-2.75,4.22,2.25,2.25,0,0,0-1.06,1.66A2,2,0,0,0,81.88,28a4.85,4.85,0,0,1,2.72,4.18v2.34H72.68V32.16A4.87,4.87,0,0,1,75.4,28,2,2,0,0,0,76.49,26.3Z"/><path d="M73.87,33.88h9.57a.32.32,0,0,0,.32-.34,5.12,5.12,0,0,0-2.55-4.09c-.54-.32-1.45-.94-1.45-1.57V26.24c0-.81,1-1.64,1.66-2.08a5.13,5.13,0,0,0,2.06-2.61,1.28,1.28,0,0,0-1.21-1.7H75a1.28,1.28,0,0,0-1.21,1.7,5.13,5.13,0,0,0,2.06,2.61c.68.44,1.83,1.2,1.83,2l0,1.74c0,.63-1,1.22-1.59,1.54a5.15,5.15,0,0,0-2.55,4.06A.35.35,0,0,0,73.87,33.88Z"/><path class="cls-2" d="M113.39,85.48c0,.13.07.26.11.38h0C113.46,85.75,113.43,85.62,113.39,85.48Z"/><path class="cls-2" d="M113.17,84.4l.06.36Z"/><path class="cls-2" d="M113.29,85.05a1,1,0,0,0,0,.17A1,1,0,0,1,113.29,85.05Z"/><path class="cls-2" d="M120.43,77.21h0a1.14,1.14,0,0,0-.11.11Z"/></svg>