<svg id="Layer_1" data-name="Layer 1" xmlns="http://www.w3.org/2000/svg" viewBox="0 0 200 200"><defs><style>.cls-1{fill:none;}.cls-2{fill:#fff;}</style></defs><title>Larry_</title><path class="cls-1" d="M96.07,23.61a3.27,3.27,0,0,0-3.35,1.3,8.2,8.2,0,0,0-1.57,3.49c2.9-1.41,5.3-2.51,7.31-3.36A5.77,5.77,0,0,0,96.07,23.61Z"/><path class="cls-1" d="M74.33,187.07l-9.45-4.45-.66,1.27,9.94,4.47,12-.1v-1l-11.69-.1A.41.41,0,0,1,74.33,187.07Z"/><path class="cls-1" d="M90.46,35.88a.43.43,0,0,1-.17.58,3,3,0,0,1-.31.15,117.51,117.51,0,0,0-.21,11.85c0,1.52,0,3.06,0,4.64A26.1,26.1,0,0,1,99.36,53a22.69,22.69,0,0,1-1-4.37c-.11-.71-.22-1.38-.35-2l-.22,0a6.85,6.85,0,0,1-5.38-3.56.43.43,0,1,1,.78-.38c.91,1.89,3.7,3.64,5.53,2.91,1.08-.43,6-7.92,5.15-11.31a24.24,24.24,0,0,0-4.76-8.61c-2,.86-4.57,2-7.71,3.54l-.47.23c-.16.82-.27,1.64-.37,2.36l0,.1a5.59,5.59,0,0,1,.73.88.45.45,0,0,1-.11.61.45.45,0,0,1-.61-.12c-.61-.92-1.22-1.37-1.74-1.33s-.9.48-1.21,1.18a2.87,2.87,0,0,0-.13,2.36,2,2,0,0,0,2.4.2A.43.43,0,0,1,90.46,35.88Zm5.15.29a.42.42,0,0,1-.45-.39.42.42,0,0,1,.83-.06A.42.42,0,0,1,95.61,36.17ZM101.1,36a.42.42,0,0,1-.45-.38.43.43,0,0,1,.39-.45.42.42,0,0,1,.44.39A.4.4,0,0,1,101.1,36Zm-2.71,4.47a.42.42,0,0,1,.53-.29c.25.07.44.07.51,0s.23-.42,0-1.56c0-.2-.09-.41-.15-.64-.32-1.38-.73-3.09-.31-4.1a1.29,1.29,0,0,1,.77-.68,3.22,3.22,0,0,1,2.23,0,.43.43,0,0,1-.36.79A2.37,2.37,0,0,0,100,34c-.15.06-.26.13-.28.2-.31.75.09,2.45.35,3.57.06.24.11.46.15.65.2.89.32,1.87-.23,2.38a1.05,1.05,0,0,1-.76.28,2.1,2.1,0,0,1-.58-.09A.43.43,0,0,1,98.39,40.49Zm-1.3,1.95a1.46,1.46,0,0,0,1.34.39.92.92,0,0,0,.67-.43.43.43,0,1,1,.8.32,1.74,1.74,0,0,1-1.31,1,2.61,2.61,0,0,1-.48,0,2.28,2.28,0,0,1-1.64-.68.43.43,0,1,1,.62-.61ZM93.63,33.6a3.12,3.12,0,0,1,2.89-.5.43.43,0,0,1-.36.78,2.33,2.33,0,0,0-2,.37.43.43,0,0,1-.57-.65Zm-5.58,1.32a.39.39,0,0,1-.43-.43.43.43,0,0,1,.43-.43h0a2,2,0,0,0,1.27-.51.42.42,0,0,1,.61,0,.44.44,0,0,1,0,.61A2.9,2.9,0,0,1,88.05,34.92Z"/><path class="cls-1" d="M97,83.2c-1.68-1.84-4.62-2.71-8.75-2.61a11.7,11.7,0,0,0-4.7,6.07,31.72,31.72,0,0,1,15,1.54A6.46,6.46,0,0,0,97,83.2Z"/><path class="cls-1" d="M105.66,94a19.22,19.22,0,0,0-2.29-2.08c-.09.27-.17.54-.27.8A15.55,15.55,0,0,1,96,100.26a17.36,17.36,0,0,0,4.42.22A11.66,11.66,0,0,0,105.66,94Z"/><path class="cls-1" d="M102.3,92.37c.13-.33.24-.66.34-1a20.29,20.29,0,0,0-3.5-2,7.05,7.05,0,0,1-3,4,7.5,7.5,0,0,1,1,.07,1.44,1.44,0,0,1,1.26,1.13,1.51,1.51,0,0,1-.8,1.56,12.47,12.47,0,0,1-1.64.69l-1,.39a1.18,1.18,0,0,0-.5.92,2.08,2.08,0,0,0,.25,1.53s.1.07.15.11C95.9,99.36,100.42,97.05,102.3,92.37Z"/><path class="cls-1" d="M107.7,24.08a.48.48,0,0,0,0-.49c-.17-.32-1.24-.89-7.73,1.75.38.44.75.9,1.1,1.39C102.29,26.52,107,25.41,107.7,24.08Z"/><path class="cls-1" d="M89.76,79.73c3.57.14,6.21,1.11,7.83,2.89a7.34,7.34,0,0,1,1.72,5.92,21.21,21.21,0,0,1,3.55,1.93A15.28,15.28,0,0,0,101.5,81a11.53,11.53,0,0,0-6.94-2.31A11.68,11.68,0,0,0,89.76,79.73Z"/><path class="cls-1" d="M94,103.65c1.66.29,3.77-1.06,5.35-2.26h-.47c-1.55,0-3.79-.16-4.77-1a2.75,2.75,0,0,1-.53-2.31,1.92,1.92,0,0,1,1-1.59l1-.4a13.68,13.68,0,0,0,1.51-.63.66.66,0,0,0,.39-.65.61.61,0,0,0-.55-.44,13.49,13.49,0,0,0-2.2,0,5.21,5.21,0,0,0-.9.21l0,0h0c-.27.08-.56.18-.85.29a11.45,11.45,0,0,1-3,.75c-.15,1.77-.48,4-1.17,5C90.21,101.71,92.92,103.46,94,103.65Z"/><path class="cls-1" d="M75.26,84.39a.43.43,0,0,1,.61,0c.35.38.73.76,1.12,1.14.21-3.22.34-5.54.43-7.08a50.36,50.36,0,0,0-3.15,4,1.27,1.27,0,0,0,.06,1.13,5.85,5.85,0,0,0,.84,1.29A.41.41,0,0,1,75.26,84.39Z"/><path class="cls-1" d="M75.45,85.23a18.47,18.47,0,0,0,1.47,1.46h0C76.39,86.2,75.9,85.72,75.45,85.23Z"/><path class="cls-1" d="M90.1,94c0,.22,0,.47,0,.74A10.9,10.9,0,0,0,92.71,94c.32-.12.63-.23.94-.32a6.82,6.82,0,0,0,4.69-4.65,30.68,30.68,0,0,0-15.1-1.5,12.14,12.14,0,0,0-.34,2.5,31.15,31.15,0,0,0,6.87,3.48A.43.43,0,0,1,90.1,94Z"/><path class="cls-1" d="M103.63,91a20.24,20.24,0,0,1,2.29,2,11.5,11.5,0,0,0,.33-2.64,11.66,11.66,0,0,0-3.31-8.13A15.13,15.13,0,0,1,103.63,91Z"/><path class="cls-1" d="M124.8,50.14a.78.78,0,1,0-.78-.78A.78.78,0,0,0,124.8,50.14Z"/><polygon class="cls-1" points="105.37 188.33 127.65 188.33 127.65 187.34 105.37 187.44 105.37 188.33"/><path class="cls-1" d="M127,23.52a.48.48,0,0,1-.3.11.41.41,0,0,1-.16,0,.42.42,0,0,1-.14-.09l-.09-.08-2.07-2-3.53,3.67a1.84,1.84,0,0,0,1,.28h10a2,2,0,0,0,1-.31l-3.54-3.7Z"/><path class="cls-1" d="M126.66,45.76c-.26.19-.45.47-.42.61s.2.24.65.35h0a3.7,3.7,0,0,1,3.86.55l.1.11c.41-.66.43-1.22,0-1.64A3.67,3.67,0,0,0,126.66,45.76Z"/><path class="cls-1" d="M134.84,11.64H117.65a1.8,1.8,0,0,0-1.91,1.66V28.63a1.8,1.8,0,0,0,1.91,1.65h11.81c0-.57,0-1.15,0-1.7a.44.44,0,0,1,.45-.41.41.41,0,0,1,.41.44,24.46,24.46,0,0,0,.32,5.9c.68-.8,1.26-3.48,1.48-5.09a.42.42,0,0,1,.49-.36.43.43,0,0,1,.37.48c0,.1-.06.38-.12.74h2a1.8,1.8,0,0,0,1.91-1.65V13.3A1.8,1.8,0,0,0,134.84,11.64Zm-.4,11.86a2.79,2.79,0,0,1-2.78,2.78h-10a2.7,2.7,0,0,1-1.73-.63.41.41,0,0,1-.25-.11.41.41,0,0,1-.11-.24,2.69,2.69,0,0,1-.69-1.8V19a2.78,2.78,0,0,1,2.78-2.78h7.75a3.28,3.28,0,0,0,.21.86h-8a1.86,1.86,0,0,0-.67.13l5.68,5.42,4.27-4.07a2.63,2.63,0,0,0,1,.28l-2.09,2,3.51,3.66a1.91,1.91,0,0,0,.27-1V19a2.1,2.1,0,0,0,0-.36,2.59,2.59,0,0,0,.75-.5,2.72,2.72,0,0,1,.15.86Z"/><path class="cls-1" d="M120.22,17.69a1.93,1.93,0,0,0-.5,1.28V23.5a1.92,1.92,0,0,0,.31,1l3.53-3.67Z"/><path class="cls-1" d="M126.91,44.64a4.71,4.71,0,0,1,3.91,0c.29-.62.29-1.1,0-1.42-.75-.72-2.79-.59-4,.25a.93.93,0,0,0-.36.8C126.42,44.51,126.67,44.6,126.91,44.64Z"/><path class="cls-1" d="M126.65,47.88a.55.55,0,0,0-.07.69c.09.14.17.11.21.09a2.59,2.59,0,0,1,2.42.28,1.21,1.21,0,0,1,.19,1.29,2.59,2.59,0,0,1-2,1.45l-4.48.44a2,2,0,0,1-1.58-.54,2.39,2.39,0,0,1-.76-1.54l-.22-2.31a.45.45,0,0,1,.22-.42c1.36-.78,2.77-2,2.6-2.45,0,0-.08-.2-.37-.27a4.61,4.61,0,0,0-3.21,1.18c-.76.75-1.31,3-.88,5a3.73,3.73,0,0,0,2.07,2.82,10.15,10.15,0,0,1,5-.56c.58,0,3.74.08,4.88-2.09a2.34,2.34,0,0,0-.49-3A2.75,2.75,0,0,0,126.65,47.88Z"/><path class="cls-1" d="M76.48,120.87c3.3-.42,6.18-2.22,6.87-5.91a.44.44,0,0,1,.51-.35.43.43,0,0,1,.34.51c-.79,4.22-4.09,6.23-7.81,6.64-2.33,22-7.39,50.66-7.91,53.61l6.37,2.52c2.46-2.51,14.44-23.17,21.78-43.18a.48.48,0,0,1,.1-.28,107,107,0,0,0,4.85-16.93.43.43,0,0,1,.85.16,109.29,109.29,0,0,1-4.92,17.14c1.85,10.1,7.07,39.64,7.84,44.32,3.08,0,6.41.07,7.25,0,1.24-3.81,2.07-34.25,1.3-69.28l-36.51.07C77.21,113.2,76.89,116.92,76.48,120.87Z"/><path d="M133.54,18.61a2.1,2.1,0,0,1,0,.36V23.5a1.91,1.91,0,0,1-.27,1l-3.51-3.66,2.09-2a2.63,2.63,0,0,1-1-.28l-4.27,4.07L121,17.18a1.86,1.86,0,0,1,.67-.13h8a3.28,3.28,0,0,1-.21-.86h-7.75A2.78,2.78,0,0,0,118.86,19V23.5a2.69,2.69,0,0,0,.69,1.8.41.41,0,0,0,.11.24.41.41,0,0,0,.25.11,2.7,2.7,0,0,0,1.73.63h10a2.79,2.79,0,0,0,2.78-2.78V19a2.72,2.72,0,0,0-.15-.86A2.59,2.59,0,0,1,133.54,18.61ZM119.72,23.5V19a1.93,1.93,0,0,1,.5-1.28l3.34,3.17L120,24.53A1.92,1.92,0,0,1,119.72,23.5Zm11.94,1.91h-10a1.84,1.84,0,0,1-1-.28l3.53-3.67,2.07,2,.09.08a.42.42,0,0,0,.14.09.41.41,0,0,0,.16,0,.48.48,0,0,0,.3-.11l2.21-2.12,3.54,3.7A2,2,0,0,1,131.66,25.41Z"/><path d="M134.84,10.78H117.65a2.65,2.65,0,0,0-2.77,2.52V28.63a2.65,2.65,0,0,0,2.77,2.52h11.81c0,2.08.25,4,.88,4.27a.58.58,0,0,0,.28.07.71.71,0,0,0,.45-.16c.81-.63,1.36-2.69,1.66-4.18h2.11a2.65,2.65,0,0,0,2.77-2.52V13.3A2.65,2.65,0,0,0,134.84,10.78Zm1.91,17.85a1.8,1.8,0,0,1-1.91,1.65h-2c.06-.36.1-.64.12-.74a.43.43,0,0,0-.37-.48.42.42,0,0,0-.49.36c-.22,1.61-.8,4.29-1.48,5.09a24.46,24.46,0,0,1-.32-5.9.41.41,0,0,0-.41-.44.44.44,0,0,0-.45.41c0,.55,0,1.13,0,1.7H117.65a1.8,1.8,0,0,1-1.91-1.65V13.3a1.8,1.8,0,0,1,1.91-1.66h17.19a1.8,1.8,0,0,1,1.91,1.66Z"/><path d="M131.53,45.2c.72-1.39.23-2.2-.15-2.56A3.56,3.56,0,0,0,128.6,42l-.37-3.68a2.4,2.4,0,0,0-.76-1.55,2.05,2.05,0,0,0-1.57-.54l-4.48.45a2,2,0,0,0-1.44.83,2.39,2.39,0,0,0-.45,1.67l.54,5.26a5.43,5.43,0,0,0-1,.75c-1.07,1.06-1.57,3.64-1.11,5.77a4.56,4.56,0,0,0,2.42,3.37,88.8,88.8,0,0,1,.46,10.76,76.33,76.33,0,0,0-11.32-8.24c-2.57-1.41-6.48-1.5-7.72-1.48a3.53,3.53,0,0,0-1.56-2l.18-.09a18.42,18.42,0,0,1-1.15-4.73c-.11-.69-.23-1.39-.36-2.06l.18,0c1.59-.63,6.6-8.66,5.66-12.32a25.46,25.46,0,0,0-3.09-6.6c1.72-.35,5.89-1.4,6.82-2.95a1.33,1.33,0,0,0,0-1.35c-.48-.93-2.07-1.43-9.14,1.47a6.9,6.9,0,0,0-3.06-1.9,4.14,4.14,0,0,0-4.21,1.56c-1.52,1.71-2,4.69-2.32,7a1.87,1.87,0,0,0-1-.22,2.51,2.51,0,0,0-1.92,1.69,3.56,3.56,0,0,0,0,3.23,2.25,2.25,0,0,0,1.87.83,3.15,3.15,0,0,0,.44,0c-.31,4-.26,7.72-.2,11.64,0,1.62,0,3.27,0,5a3.45,3.45,0,0,0-1.27,1.87l0,.1c-1.43.22-8.28,1.38-10.53,3.23S66.2,71.84,64.74,74.85c-.14.3-.29.6-.44.9-1.06,2.13-2.06,4.14-1.9,6.66.31,4.75,5.24,9.75,11,13.3,4.8,2.77,10.79,5.27,14.53,4.68.47-.08,1.11-2.68,1.3-6.1-2.53-.78-8.3-4-12.3-7.61h0a18.47,18.47,0,0,1-1.47-1.46L75.23,85a.53.53,0,0,1-.06-.1,5.85,5.85,0,0,1-.84-1.29,1.27,1.27,0,0,1-.06-1.13,50.36,50.36,0,0,1,3.15-4c-.09,1.54-.22,3.86-.43,7.08a39.6,39.6,0,0,0,5.91,4.51,12.14,12.14,0,0,1,.34-2.5,30.68,30.68,0,0,1,15.1,1.5,6.82,6.82,0,0,1-4.69,4.65c-.31.09-.62.2-.94.32a10.9,10.9,0,0,1-2.65.69c0,.27,0,.56-.07.87a11.45,11.45,0,0,0,3-.75c.29-.11.58-.21.85-.29h0l0,0a5.21,5.21,0,0,1,.9-.21,13.49,13.49,0,0,1,2.2,0,.61.61,0,0,1,.55.44.66.66,0,0,1-.39.65,13.68,13.68,0,0,1-1.51.63l-1,.4a1.92,1.92,0,0,0-1,1.59,2.75,2.75,0,0,0,.53,2.31c1,.85,3.22,1,4.77,1h.47c-1.58,1.2-3.69,2.55-5.35,2.26-1.12-.19-3.83-1.94-5.22-3a1.2,1.2,0,0,1-.76.6,8.75,8.75,0,0,1-1.37.1c-3.3,0-7.36-1.6-10.52-3.16l0,.68c-.33,5-.6,9.14-.68,10.59a.41.41,0,0,0,.11.32.45.45,0,0,0,.32.14h.64c-.18,3.32-.5,7.06-.91,11a13.92,13.92,0,0,1-3-.16.43.43,0,1,0-.14.85,14.39,14.39,0,0,0,2.45.21l.61,0c-2.33,22-7.36,50.47-7.88,53.39a.4.4,0,0,0-.17.17l-3.15,6.46h0l-1.07,2a.47.47,0,0,0,0,.35.43.43,0,0,0,.23.25l10.44,4.7a.57.57,0,0,0,.18,0h0l12.55-.09a.44.44,0,0,0,.43-.44v-1.9a.65.65,0,0,1,0-.29c-.29-1.87-3-4.47-6.49-4.31-.66,0-1.06-.37-1.79-1.21a11.61,11.61,0,0,0-3.14-2.68c2.88-3.4,14.06-22.78,21.29-41.92,2,11.28,6.91,38.79,7.59,43v7.49s0,0,0,0v1.9a.44.44,0,0,0,.44.43h23.14a.44.44,0,0,0,.44-.43v-1.9a.5.5,0,0,0,0-.13,3.51,3.51,0,0,0-.58-2.64,4.83,4.83,0,0,0-3.41-1.7,39.79,39.79,0,0,1-8.17-2.3,21.6,21.6,0,0,0-2.86-.92c1.26-4.91,2.07-34.38,1.29-69.33h.38a.48.48,0,0,0,.31-.13.45.45,0,0,0,.12-.31c-.11-5.78-2.46-23-4.23-34.85,2.64.75,11.38,3.07,15.86,3.07a3.76,3.76,0,0,0,2.47-.56c2.25-2.24-.48-13.75-3.23-23.18,1.32,0,3.87-.41,5-2.55a3.29,3.29,0,0,0,0-3.23C132.5,46.6,131.9,45.61,131.53,45.2ZM106.25,90.37a11.5,11.5,0,0,1-.33,2.64,20.24,20.24,0,0,0-2.29-2,15.13,15.13,0,0,0-.69-8.77A11.66,11.66,0,0,1,106.25,90.37ZM101.5,81a15.28,15.28,0,0,1,1.36,9.47,21.21,21.21,0,0,0-3.55-1.93,7.34,7.34,0,0,0-1.72-5.92c-1.62-1.78-4.26-2.75-7.83-2.89a11.68,11.68,0,0,1,4.8-1A11.53,11.53,0,0,1,101.5,81Zm6.21-57.41a.48.48,0,0,1,0,.49c-.74,1.33-5.41,2.44-6.62,2.65-.35-.49-.72-.95-1.1-1.39C106.47,22.7,107.54,23.27,107.71,23.59Zm-15,1.32a3.27,3.27,0,0,1,3.35-1.3A5.77,5.77,0,0,1,98.46,25c-2,.85-4.41,1.95-7.31,3.36A8.2,8.2,0,0,1,92.72,24.91Zm-5.25,10.6a2.87,2.87,0,0,1,.13-2.36c.31-.7.76-1.14,1.21-1.18s1.13.41,1.74,1.33a.45.45,0,0,0,.61.12.45.45,0,0,0,.11-.61,5.59,5.59,0,0,0-.73-.88l0-.1c.1-.72.21-1.54.37-2.36l.47-.23c3.14-1.53,5.67-2.68,7.71-3.54a24.24,24.24,0,0,1,4.76,8.61c.86,3.39-4.07,10.88-5.15,11.31-1.83.73-4.62-1-5.53-2.91a.43.43,0,1,0-.78.38,6.85,6.85,0,0,0,5.38,3.56l.22,0c.13.65.24,1.32.35,2a22.69,22.69,0,0,0,1,4.37,26.1,26.1,0,0,0-9.55.07c0-1.58,0-3.12,0-4.64A117.51,117.51,0,0,1,90,36.61a3,3,0,0,0,.31-.15.43.43,0,0,0,.17-.58.43.43,0,0,0-.59-.17A2,2,0,0,1,87.47,35.51Zm-4,51.15a11.7,11.7,0,0,1,4.7-6.07c4.13-.1,7.07.77,8.75,2.61a6.46,6.46,0,0,1,1.53,5A31.72,31.72,0,0,0,83.5,86.66ZM94.72,99.73a2.08,2.08,0,0,1-.25-1.53,1.18,1.18,0,0,1,.5-.92l1-.39a12.47,12.47,0,0,0,1.64-.69,1.51,1.51,0,0,0,.8-1.56,1.44,1.44,0,0,0-1.26-1.13,7.5,7.5,0,0,0-1-.07,7.05,7.05,0,0,0,3-4,20.29,20.29,0,0,1,3.5,2c-.1.34-.21.67-.34,1-1.88,4.68-6.4,7-7.43,7.47C94.82,99.8,94.76,99.77,94.72,99.73Zm1.25.53a15.55,15.55,0,0,0,7.13-7.56c.1-.26.18-.53.27-.8A19.22,19.22,0,0,1,105.66,94a11.66,11.66,0,0,1-5.27,6.5A17.36,17.36,0,0,1,96,100.26Zm-9.77,87v1l-12,.1-9.94-4.47.66-1.27,9.45,4.45a.41.41,0,0,0,.18.05Zm41.45.12v1H105.37v-.89Zm-13.75-77.5c.77,35-.06,65.47-1.3,69.28-.84.07-4.17,0-7.25,0-.77-4.68-6-34.22-7.84-44.32a109.29,109.29,0,0,0,4.92-17.14.43.43,0,0,0-.85-.16,107,107,0,0,1-4.85,16.93.48.48,0,0,0-.1.28c-7.34,20-19.32,40.67-21.78,43.18l-6.37-2.52c.52-3,5.58-31.57,7.91-53.61,3.72-.41,7-2.42,7.81-6.64a.43.43,0,0,0-.34-.51.44.44,0,0,0-.51.35c-.69,3.69-3.57,5.49-6.87,5.91.41-4,.73-7.67.91-11Zm12.83-66.33c1.26-.84,3.3-1,4-.25.33.32.33.8,0,1.42a4.71,4.71,0,0,0-3.91,0c-.24,0-.49-.13-.54-.33A.93.93,0,0,1,126.73,43.51Zm-1.93,5.07a.78.78,0,1,1-.78.78A.78.78,0,0,1,124.8,48.58Zm5.87,2.34c-1.14,2.17-4.3,2.12-4.88,2.09a10.15,10.15,0,0,0-5,.56,3.73,3.73,0,0,1-2.07-2.82c-.43-2,.12-4.23.88-5a4.61,4.61,0,0,1,3.21-1.18c.29.07.35.22.37.27.17.47-1.24,1.67-2.6,2.45a.45.45,0,0,0-.22.42l.22,2.31a2.39,2.39,0,0,0,.76,1.54,2,2,0,0,0,1.58.54l4.48-.44a2.59,2.59,0,0,0,2-1.45,1.21,1.21,0,0,0-.19-1.29,2.59,2.59,0,0,0-2.42-.28s-.12.05-.21-.09a.55.55,0,0,1,.07-.69,2.75,2.75,0,0,1,3.53,0A2.34,2.34,0,0,1,130.67,50.92Zm.18-3.54-.1-.11a3.7,3.7,0,0,0-3.86-.55h0c-.45-.11-.63-.26-.65-.35s.16-.42.42-.61a3.67,3.67,0,0,1,4.2,0C131.28,46.16,131.26,46.72,130.85,47.38Z"/><path d="M93.91,34.35a.43.43,0,0,0,.29-.1,2.33,2.33,0,0,1,2-.37.43.43,0,0,0,.36-.78,3.12,3.12,0,0,0-2.89.5.43.43,0,0,0,.28.75Z"/><path d="M89.93,33.57a.42.42,0,0,0-.61,0,2,2,0,0,1-1.27.51h0a.43.43,0,0,0-.43.43.39.39,0,0,0,.43.43,2.9,2.9,0,0,0,1.86-.74A.44.44,0,0,0,89.93,33.57Z"/><path d="M95.55,35.34a.41.41,0,0,0-.39.44.42.42,0,1,0,.83-.06A.41.41,0,0,0,95.55,35.34Z"/><path d="M101,35.19a.43.43,0,0,0-.39.45.42.42,0,0,0,.45.38.4.4,0,0,0,.38-.44A.42.42,0,0,0,101,35.19Z"/><path d="M98.68,41a2.1,2.1,0,0,0,.58.09,1.05,1.05,0,0,0,.76-.28c.55-.51.43-1.49.23-2.38,0-.19-.09-.41-.15-.65-.26-1.12-.66-2.82-.35-3.57,0-.07.13-.14.28-.2a2.37,2.37,0,0,1,1.56,0,.43.43,0,0,0,.36-.79,3.22,3.22,0,0,0-2.23,0,1.29,1.29,0,0,0-.77.68c-.42,1,0,2.72.31,4.1.06.23.11.44.15.64.25,1.14.12,1.47,0,1.56s-.26.06-.51,0a.42.42,0,0,0-.53.29A.43.43,0,0,0,98.68,41Z"/><path d="M96.47,43.05a2.28,2.28,0,0,0,1.64.68,2.61,2.61,0,0,0,.48,0,1.74,1.74,0,0,0,1.31-1,.43.43,0,1,0-.8-.32.92.92,0,0,1-.67.43,1.46,1.46,0,0,1-1.34-.39.43.43,0,1,0-.62.61Z"/><path class="cls-2" d="M75.23,85l.22.23-.28-.33A.53.53,0,0,0,75.23,85Z"/><path d="M132.4,12.49a3.23,3.23,0,1,0,3.23,3.23A3.23,3.23,0,0,0,132.4,12.49Zm.55,4.78a.43.43,0,0,1-.43.43.44.44,0,0,1-.44-.43V15.36l-.05.08a.43.43,0,1,1-.72-.47l.85-1.29a.41.41,0,0,1,.48-.17.43.43,0,0,1,.31.41Z"/></svg>