<svg id="Layer_1" data-name="Layer 1" xmlns="http://www.w3.org/2000/svg" viewBox="0 0 200 200"><defs><style>.cls-1{fill:none;}.cls-2{fill:#fff;}</style></defs><title>Larry_</title><path class="cls-1" d="M92.9,18.06a3.6,3.6,0,0,0-2.58,1.39,8,8,0,0,0-1.57,3.49c1.48-.72,4.34-2.11,7.31-3.37A4.64,4.64,0,0,0,92.9,18.06Z"/><path class="cls-1" d="M105.29,18.62a.48.48,0,0,0,0-.49c-.1-.19-1-1-7.75,1.76.37.42.74.87,1.11,1.38C99.88,21.06,104.58,19.93,105.29,18.62Z"/><path class="cls-1" d="M110.38,62a.5.5,0,0,1,0,.17L100.78,92,110,95l9.73-29.7Z"/><path class="cls-1" d="M72.67,113.91c2.11-.7,5.84-2.61,5.71-7.34a.43.43,0,1,1,.86,0c.12,4-2.28,7-6.58,8.27-.07,19.44.18,43,.31,55.66l0,2.24h8.44c2.16-6.89,4.68-15.15,6.85-23.91A177.44,177.44,0,0,0,93.9,111.6a.43.43,0,0,1,.45-.42.42.42,0,0,1,.41.44c-.34,11.26-2.18,23.46-5.61,37.3h0c.06,7.24.14,13.81.2,18.65,0,2.07,0,3.8.06,5.15h8.17c5-15.95,11.67-40.38,12.33-69.24v0l-37.2.09C72.71,106.8,72.68,110.29,72.67,113.91Z"/><rect class="cls-1" x="96.17" y="181.13" width="15.29" height="0.99"/><path class="cls-1" d="M109.54,61.9l0,0H99L92.79,80.21a11.64,11.64,0,0,0,1.11-.44c1.07-.46,2.17-.93,2.75,0a1.28,1.28,0,0,1-.1,1.38,1.46,1.46,0,0,1,.54,1,1.91,1.91,0,0,1-.47,1.29,1,1,0,0,1,.18.17,1.25,1.25,0,0,1,.09,1.31c-.06.12-1.31,2.72-5.48,2.72a10.46,10.46,0,0,1-1.08-.07L88.5,93l11.41-1.16Z"/><polygon class="cls-1" points="73.06 182.12 95.27 182.12 95.27 181.14 73.06 181.24 73.06 182.12"/><path class="cls-1" d="M88.61,175.37c0-.63,0-1.76,0-2.21,0-1.4,0-3.3-.07-5.58,0-4.12-.11-9.51-.17-15.49-2,7.58-4.14,14.7-6.06,20.8l1.23.52A50,50,0,0,0,88.61,175.37Z"/><path class="cls-1" d="M96.31,44.54c-.22-1.17-.44-2.27-.69-3.37l-.23,0A6.72,6.72,0,0,1,90,37.63a.42.42,0,0,1,.2-.58.41.41,0,0,1,.57.2c.81,1.65,3.26,3.38,5.1,3a3,3,0,0,0,.43-.12c1.08-.44,6-7.92,5.15-11.31A24.21,24.21,0,0,0,98.12,22a16.94,16.94,0,0,0-1.41-1.76C93.59,21.54,90.53,23,89,23.76l-.52.25c-.15.82-.26,1.63-.36,2.34l0,.13a5.49,5.49,0,0,1,.73.87.43.43,0,0,1-.12.6.43.43,0,0,1-.6-.11,4.4,4.4,0,0,0-.78-.92c-.59-.51-1.11-.54-1.59-.09-.85.8-1.16,2.63-.71,3.22a1.83,1.83,0,0,0,1.94.38,2.45,2.45,0,0,0,.46-.18.43.43,0,1,1,.42.75,2.88,2.88,0,0,1-.31.13C87.25,35.2,87.3,39,87.36,43c0,1.46,0,2.93,0,4.44a39.08,39.08,0,0,1,9.47,0C96.66,46.41,96.48,45.44,96.31,44.54ZM93.14,30.78a.42.42,0,1,1,.42.42A.42.42,0,0,1,93.14,30.78Zm4.07,7.39a1.48,1.48,0,0,1-1.19.52A4.06,4.06,0,0,1,94,38a.44.44,0,0,1-.12-.6.42.42,0,0,1,.6-.12c.49.32,1.65.84,2.07.34a.43.43,0,0,1,.61-.06A.44.44,0,0,1,97.21,38.17Zm1.54-7a.42.42,0,0,1,0-.84.42.42,0,0,1,0,.84Zm-1.66-3.48a2,2,0,0,1,1.62-1,1.43,1.43,0,0,1,1.33.68.43.43,0,0,1-.74.45.56.56,0,0,0-.54-.26,1.09,1.09,0,0,0-.89.53.42.42,0,0,1-.39.25.65.65,0,0,1-.19,0A.45.45,0,0,1,97.09,27.72ZM95.73,35a.44.44,0,0,1,.56-.25c.24.09.43.11.51,0s.25-.39.08-1.55c0-.28-.1-.59-.16-.92a8.87,8.87,0,0,1-.23-3.22A.44.44,0,0,1,97,28.8a.43.43,0,0,1,.34.51,8.11,8.11,0,0,0,.23,2.89c.07.34.13.66.17.95.13.9.18,1.89-.4,2.36a1.05,1.05,0,0,1-.68.23A2,2,0,0,1,96,35.6.44.44,0,0,1,95.73,35Zm-4.26-6.29a3.16,3.16,0,0,1,2.93-.29.43.43,0,0,1,.16.58.42.42,0,0,1-.58.17,2.37,2.37,0,0,0-2,.23.43.43,0,0,1-.26.09.42.42,0,0,1-.34-.17A.44.44,0,0,1,91.47,28.75Zm-4,0a2.87,2.87,0,0,1-1.85.74.44.44,0,0,1-.44-.43.44.44,0,0,1,.44-.44,2,2,0,0,0,1.26-.5.43.43,0,1,1,.59.63Z"/><path class="cls-1" d="M85.75,85.39h-.14v0l.77.08a3.57,3.57,0,0,1,.89.35,9.56,9.56,0,0,0,1.77.7c.36.07.7.13,1,.17,4.71.6,6-2,6-2.13a.42.42,0,0,0,0-.42.2.2,0,0,0-.14,0c-.13.11-.26.23-.38.32a6,6,0,0,1-3.7,1.28,8.29,8.29,0,0,1-2.38-.38.43.43,0,1,1,.25-.83,5.37,5.37,0,0,0,5.32-.78,3.73,3.73,0,0,0,.46-.37,1.7,1.7,0,0,0,.68-1.13.67.67,0,0,0-.22-.4,6.46,6.46,0,0,1-4.2,1.71A4.19,4.19,0,0,1,89.75,83a.43.43,0,0,1-.17-.59.44.44,0,0,1,.59-.17c1.79,1,4.42-.09,5.44-1.27.27-.32.4-.62.31-.76s-.78,0-1.68.34a8.21,8.21,0,0,1-2,.67,2.51,2.51,0,0,1-2-.51.43.43,0,0,1-.06-.61.44.44,0,0,1,.61-.06,1.49,1.49,0,0,0,1.1.34l.79-2.34a2.28,2.28,0,0,0-2-.09A2.5,2.5,0,0,0,89,79.56a.54.54,0,0,1-.21.32.59.59,0,0,1-.38.1A6.89,6.89,0,0,1,87,79.75l0,0a.42.42,0,0,1,.27.54.44.44,0,0,1-.41.3l-.14,0-.52-.19a4.74,4.74,0,0,0-.91,4.11h.37Z"/><path class="cls-1" d="M132.63,33.48H115.45a1.79,1.79,0,0,0-1.91,1.65V50.46a1.79,1.79,0,0,0,1.91,1.66h11.81c0-1,0-1.7,0-1.7a.46.46,0,0,1,.45-.42.44.44,0,0,1,.42.45s0,.94,0,2.1a13.36,13.36,0,0,0,.34,3.79,10.34,10.34,0,0,0,1.27-3.89c.14-.69.2-1.18.2-1.19a.44.44,0,0,1,.49-.37.43.43,0,0,1,.37.49s0,.29-.12.74h1.95a1.8,1.8,0,0,0,1.91-1.66V35.13A1.8,1.8,0,0,0,132.63,33.48Zm-4.16,9.17c-.46,1-2.22,3.87-2.22,3.87l-1.8,3.15a.47.47,0,0,1-.82,0l-1.81-3.15s-1.75-2.85-2.21-3.87a5.19,5.19,0,0,1-.42-2,4.85,4.85,0,1,1,9.7,0A5.15,5.15,0,0,1,128.47,42.65Z"/><path class="cls-1" d="M124,38.4a1.84,1.84,0,1,0,1.83,1.84A1.84,1.84,0,0,0,124,38.4Z"/><path class="cls-1" d="M124.7,79.25l-.86,2.25h0a.43.43,0,0,1,0,.61,1.15,1.15,0,0,1-.55.33,4.77,4.77,0,0,1-2.63-.56c-.71-.29-1.6-.65-1.93-.49,0,0-.09,0-.14.18s.05.23.51.56a7.16,7.16,0,0,0,4.6,1.19.44.44,0,0,1,.53.31.42.42,0,0,1-.32.52,3.33,3.33,0,0,1-.86.1A8.85,8.85,0,0,1,118.82,83c-.2.09-.32.19-.34.29s.11.43.49.76a3.08,3.08,0,0,0,.56.38,10.28,10.28,0,0,0,3.86.86s0,0,0,0a.44.44,0,0,1,.44.43.45.45,0,0,1-.46.43,11,11,0,0,1-4.24-1,3.69,3.69,0,0,1-.61-.39h0v0a.64.64,0,0,0,0,.56,6.33,6.33,0,0,0,2.79,1.51,5,5,0,0,0,1.86.2,4.08,4.08,0,0,0,3.35-2.52,3.79,3.79,0,0,0,0-2.84,5.51,5.51,0,0,0-.76-1.44,4.64,4.64,0,0,0-.93-.89Z"/><path class="cls-1" d="M110.88,95l7.57-1.75,2.17-5.7c-1.38-.47-2.71-1.32-2.93-1.89a1.43,1.43,0,0,1,.17-1.43l.07-.07a1.36,1.36,0,0,1-.3-1,1.12,1.12,0,0,1,.48-.69,1.08,1.08,0,0,1,.26-1.79c.67-.32,1.62.06,2.63.46a5.64,5.64,0,0,0,1.87.54l6.88-18-9.19,1.87Z"/><path class="cls-1" d="M68.79,81.88A9,9,0,0,1,65.49,78,5.68,5.68,0,0,0,68.79,81.88Z"/><path d="M124,35.82a4.85,4.85,0,0,0-4.85,4.85,5.19,5.19,0,0,0,.42,2c.46,1,2.21,3.87,2.21,3.87l1.81,3.15a.47.47,0,0,0,.82,0l1.8-3.15s1.76-2.85,2.22-3.87a5.15,5.15,0,0,0,.42-2A4.85,4.85,0,0,0,124,35.82Zm0,6.25a1.84,1.84,0,1,1,1.83-1.83A1.84,1.84,0,0,1,124,42.07Z"/><path d="M98.75,30.36a.42.42,0,0,0,0,.84.42.42,0,0,0,0-.84Z"/><circle cx="93.56" cy="30.78" r="0.42"/><path d="M97.29,28.3a.65.65,0,0,0,.19,0,.42.42,0,0,0,.39-.25,1.09,1.09,0,0,1,.89-.53.56.56,0,0,1,.54.26.43.43,0,0,0,.74-.45,1.43,1.43,0,0,0-1.33-.68,2,2,0,0,0-1.62,1A.45.45,0,0,0,97.29,28.3Z"/><path d="M91.74,29.53a.43.43,0,0,0,.26-.09,2.37,2.37,0,0,1,2-.23.42.42,0,0,0,.58-.17.43.43,0,0,0-.16-.58,3.16,3.16,0,0,0-2.93.29.44.44,0,0,0-.07.61A.42.42,0,0,0,91.74,29.53Z"/><path d="M96.55,37.62c-.42.5-1.58,0-2.07-.34a.42.42,0,0,0-.6.12A.44.44,0,0,0,94,38a4.06,4.06,0,0,0,2,.69,1.48,1.48,0,0,0,1.19-.52.44.44,0,0,0,0-.61A.43.43,0,0,0,96.55,37.62Z"/><path d="M86.91,28.09a2,2,0,0,1-1.26.5.44.44,0,0,0-.44.44.44.44,0,0,0,.44.43,2.87,2.87,0,0,0,1.85-.74.43.43,0,1,0-.59-.63Z"/><path d="M96,35.6a2,2,0,0,0,.67.14,1.05,1.05,0,0,0,.68-.23c.58-.47.53-1.46.4-2.36,0-.29-.1-.61-.17-.95a8.11,8.11,0,0,1-.23-2.89A.43.43,0,0,0,97,28.8a.44.44,0,0,0-.51.34,8.87,8.87,0,0,0,.23,3.22c.06.33.12.64.16.92.17,1.16,0,1.47-.08,1.55s-.27.05-.51,0a.44.44,0,0,0-.56.25A.44.44,0,0,0,96,35.6Z"/><path d="M130.35,62.56l-10.09,2-6.79-2.42c-3.49-8.33-6.28-11-6.4-11.16L107,51c-1.88-1.07-6.47-1.28-7.87-1.31a2.71,2.71,0,0,0-1.32-2.06c-.24-1.17-.45-2.23-.63-3.22-.22-1.17-.44-2.27-.69-3.37l.17,0c1.58-.64,6.59-8.66,5.66-12.32A25,25,0,0,0,99.19,22c1.68-.34,6-1.38,6.86-3a1.34,1.34,0,0,0,0-1.29c-.45-.88-1.92-1.5-9.15,1.47a5.91,5.91,0,0,0-4.05-2,4.47,4.47,0,0,0-3.21,1.68,9.86,9.86,0,0,0-2,4.77c-.15.78-.26,1.54-.36,2.24a1.77,1.77,0,0,0-2.16.32c-1.13,1.05-1.56,3.38-.81,4.37a2.32,2.32,0,0,0,1.89.83,3.11,3.11,0,0,0,.43,0c-.31,4-.26,7.71-.2,11.63,0,1.54,0,3.09,0,4.68a3.16,3.16,0,0,0-1.28,1.78c-1.79.1-7.84.51-9.81,1.54-5.41,2.8-11.5,22.88-10,26.83h0s0,.09,0,.14a9,9,0,0,0,3.3,3.91c3.21,1.69,8.72,2.56,16.59,2.63a4.74,4.74,0,0,1,.91-4.11c-2-.71-9.14-3.41-11.16-6C72.94,71.52,78.38,61.75,79,60.64a.43.43,0,0,1,.59-.16.44.44,0,0,1,.17.59c-1.63,2.86-5.51,10.74-3.94,12.77,1.8,2.34,8.67,5,11.22,5.91a6.89,6.89,0,0,0,1.37.23.59.59,0,0,0,.38-.1.54.54,0,0,0,.21-.32A2.5,2.5,0,0,1,90.63,78a2.28,2.28,0,0,1,2,.09l-.79,2.34a1.49,1.49,0,0,1-1.1-.34.44.44,0,0,0-.61.06.43.43,0,0,0,.06.61,2.51,2.51,0,0,0,2,.51,8.21,8.21,0,0,0,2-.67c.9-.39,1.51-.62,1.68-.34s0,.44-.31.76c-1,1.18-3.65,2.27-5.44,1.27a.44.44,0,0,0-.59.17.43.43,0,0,0,.17.59,4.19,4.19,0,0,0,2.06.51A6.46,6.46,0,0,0,96,81.82a.67.67,0,0,1,.22.4,1.7,1.7,0,0,1-.68,1.13,3.73,3.73,0,0,1-.46.37,5.37,5.37,0,0,1-5.32.78.43.43,0,1,0-.25.83,8.29,8.29,0,0,0,2.38.38,6,6,0,0,0,3.7-1.28c.12-.09.25-.21.38-.32a.2.2,0,0,1,.14,0,.42.42,0,0,1,0,.42c0,.11-1.31,2.73-6,2.13-.33,0-.67-.1-1-.17a9.56,9.56,0,0,1-1.77-.7,3.57,3.57,0,0,0-.89-.35l-.77-.08v0A57,57,0,0,1,72.27,84,159.1,159.1,0,0,0,71,102.48v.62a.39.39,0,0,0,.12.31.44.44,0,0,0,.31.13h.5c0,3.33-.07,6.9-.09,10.61a13.22,13.22,0,0,1-2.7.41.44.44,0,0,0,0,.87h0A14.45,14.45,0,0,0,71.8,115c-.08,19.4.17,42.82.31,55.45l0,2.67c0,3.8.07,6.76,0,7.49h0v1.89a.44.44,0,0,0,.44.44H111.9a.44.44,0,0,0,.43-.44v-1.86a3.6,3.6,0,0,0-.57-2.81,4.82,4.82,0,0,0-3.41-1.69,34.35,34.35,0,0,1-8.8-2.83l-1.08-.46c5-16,11.69-40.48,12.34-69.4,0,0,0,0,0-.06a.48.48,0,0,0,.26-.16.58.58,0,0,0,.12-.36c-.06-.93-.2-3.11-.49-7L118.87,94a.45.45,0,0,0,.3-.27l2.29-6a6.07,6.07,0,0,0,1.3.16,3.77,3.77,0,0,0,.48,0,4.87,4.87,0,0,0,4-3,4.61,4.61,0,0,0,.06-3.48,6.12,6.12,0,0,0-.88-1.66,4.87,4.87,0,0,0-1.1-1.08L125,78.4l5.82-15.27a.43.43,0,0,0-.49-.57Zm-25-44.43a.48.48,0,0,1,0,.49c-.71,1.31-5.41,2.44-6.62,2.65-.37-.51-.74-1-1.11-1.38C104.35,17.14,105.21,17.94,105.31,18.13Zm-15,1.32a3.6,3.6,0,0,1,2.58-1.39,4.64,4.64,0,0,1,3.16,1.51c-3,1.26-5.83,2.65-7.31,3.37A8,8,0,0,1,90.32,19.45Zm-2.91,28c0-1.51,0-3,0-4.44-.06-4-.11-7.79.22-11.86a2.88,2.88,0,0,0,.31-.13.43.43,0,1,0-.42-.75,2.45,2.45,0,0,1-.46.18,1.83,1.83,0,0,1-1.94-.38c-.45-.59-.14-2.42.71-3.22.48-.45,1-.42,1.59.09a4.4,4.4,0,0,1,.78.92.43.43,0,0,0,.6.11.43.43,0,0,0,.12-.6,5.49,5.49,0,0,0-.73-.87l0-.13c.1-.71.21-1.52.36-2.34l.52-.25c1.49-.73,4.55-2.22,7.67-3.53A16.94,16.94,0,0,1,98.12,22a24.21,24.21,0,0,1,3.34,6.86c.87,3.39-4.07,10.87-5.15,11.31a3,3,0,0,1-.43.12c-1.84.35-4.29-1.38-5.1-3a.41.41,0,0,0-.57-.2.42.42,0,0,0-.2.58,6.72,6.72,0,0,0,5.38,3.56l.23,0c.25,1.1.47,2.2.69,3.37.17.9.35,1.87.57,2.87A39.08,39.08,0,0,0,87.41,47.43Zm2.92,40.15a10.46,10.46,0,0,0,1.08.07c4.17,0,5.42-2.6,5.48-2.72a1.25,1.25,0,0,0-.09-1.31,1,1,0,0,0-.18-.17,1.91,1.91,0,0,0,.47-1.29,1.46,1.46,0,0,0-.54-1,1.28,1.28,0,0,0,.1-1.38c-.58-.93-1.68-.46-2.75,0a11.64,11.64,0,0,1-1.11.44L99,61.85h10.59l0,0-9.63,30L88.5,93Zm4.94,94.54H73.06v-.88l22.21-.1Zm0-1.09a3.69,3.69,0,0,0-.51-2.74,3.85,3.85,0,0,0-2.63-1.23,35,35,0,0,1-9-2.86c-.51-.22-.92-.4-1.2-.5l.31-.81h0c1.92-6.1,4.09-13.22,6.06-20.8.06,6,.12,11.37.17,15.49,0,2.28,0,4.18.07,5.58,0,.45,0,1.58,0,2.21a19.64,19.64,0,0,0,3.64.83,4.58,4.58,0,0,1,3.21,1.57,4.22,4.22,0,0,1,.7,3.26Zm16.17.1v1H96.17v-1ZM110,103.48c-.66,28.86-7.32,53.29-12.33,69.24H89.45c0-1.35,0-3.08-.06-5.15-.06-4.84-.14-11.41-.2-18.65h0c3.43-13.84,5.27-26,5.61-37.3a.42.42,0,0,0-.41-.44.43.43,0,0,0-.45.42,177.44,177.44,0,0,1-5.61,37.21c-2.17,8.76-4.69,17-6.85,23.91H73l0-2.24c-.13-12.68-.38-36.22-.31-55.66,4.3-1.3,6.7-4.3,6.58-8.27a.43.43,0,1,0-.86,0c.13,4.73-3.6,6.64-5.71,7.34,0-3.62,0-7.11.08-10.37l37.2-.09ZM110,95l-9.18-3,9.58-29.83a.5.5,0,0,0,0-.17l9.31,3.33Zm15.8-14.79a5.51,5.51,0,0,1,.76,1.44,3.79,3.79,0,0,1,0,2.84A4.08,4.08,0,0,1,123.15,87a5,5,0,0,1-1.86-.2,6.33,6.33,0,0,1-2.79-1.51.64.64,0,0,1,0-.56v0h0a3.69,3.69,0,0,0,.61.39,11,11,0,0,0,4.24,1,.45.45,0,0,0,.46-.43.44.44,0,0,0-.44-.43s0,0,0,0a10.28,10.28,0,0,1-3.86-.86A3.08,3.08,0,0,1,119,84c-.38-.33-.52-.62-.49-.76s.14-.2.34-.29a8.85,8.85,0,0,0,4.24,1.28,3.33,3.33,0,0,0,.86-.1.42.42,0,0,0,.32-.52.44.44,0,0,0-.53-.31,7.16,7.16,0,0,1-4.6-1.19c-.46-.33-.52-.53-.51-.56s.11-.17.14-.18c.33-.16,1.22.2,1.93.49a4.77,4.77,0,0,0,2.63.56,1.15,1.15,0,0,0,.55-.33.43.43,0,0,0,0-.61h0l.86-2.25.13.1A4.64,4.64,0,0,1,125.76,80.24Zm-2.89,1.37a5.64,5.64,0,0,1-1.87-.54c-1-.4-2-.78-2.63-.46a1.08,1.08,0,0,0-.26,1.79,1.12,1.12,0,0,0-.48.69,1.36,1.36,0,0,0,.3,1l-.07.07a1.43,1.43,0,0,0-.17,1.43c.22.57,1.55,1.42,2.93,1.89l-2.17,5.7L110.88,95l9.68-29.55,9.19-1.87Z"/><path d="M132.63,32.61H115.45a2.66,2.66,0,0,0-2.78,2.52V50.46A2.66,2.66,0,0,0,115.45,53h11.82c.07,3.89.59,4.15.87,4.29a.67.67,0,0,0,.28.06.77.77,0,0,0,.45-.17c.64-.49,1.19-1.91,1.65-4.18h2.11a2.66,2.66,0,0,0,2.78-2.52V35.13A2.66,2.66,0,0,0,132.63,32.61Zm1.91,17.85a1.8,1.8,0,0,1-1.91,1.66h-1.95c.08-.45.12-.74.12-.74a.43.43,0,0,0-.37-.49.44.44,0,0,0-.49.37s-.06.5-.2,1.19a10.34,10.34,0,0,1-1.27,3.89,13.36,13.36,0,0,1-.34-3.79c0-1.16,0-2.1,0-2.1a.44.44,0,0,0-.42-.45.46.46,0,0,0-.45.42s0,.73,0,1.7H115.45a1.79,1.79,0,0,1-1.91-1.66V35.13a1.79,1.79,0,0,1,1.91-1.65h17.18a1.8,1.8,0,0,1,1.91,1.65Z"/><path class="cls-2" d="M65.49,78s0-.09,0-.14h0l0,.1S65.48,78,65.49,78Z"/><path class="cls-2" d="M83.36,173.35a49.66,49.66,0,0,0,5.25,2h0a50,50,0,0,1-5.09-2l-1.23-.52h0Z"/></svg>