<svg id="Layer_1" data-name="Layer 1" xmlns="http://www.w3.org/2000/svg" viewBox="0 0 200 200"><title>Larry_</title><path d="M117.36,35.58a.41.41,0,1,0-.18-.81.41.41,0,1,0,.18.81Z"/><path d="M122.26,33.68a.42.42,0,1,0,.18.82.43.43,0,0,0,.32-.5A.42.42,0,0,0,122.26,33.68Z"/><path d="M72.08,177a.43.43,0,0,0,.35-.17l1.29-1.72,0,0a.52.52,0,1,0-.72-.48l-1.28,1.71a.42.42,0,0,0,.09.6A.38.38,0,0,0,72.08,177Z"/><path d="M60.43,175.27l0,0L61.74,177a.42.42,0,0,0,.34.17.39.39,0,0,0,.26-.09.42.42,0,0,0,.09-.6l-1.28-1.71a.53.53,0,1,0-.72.48Z"/><path d="M78.33,24.88a13.82,13.82,0,0,1-.9,3.38.44.44,0,0,0,.24.57.45.45,0,0,0,.16,0,.43.43,0,0,0,.4-.27,14.73,14.73,0,0,0-.78-12.76.44.44,0,0,0-.59-.15.43.43,0,0,0-.16.59A13.53,13.53,0,0,1,78.33,24.88Z"/><path d="M81.18,25.91a19.26,19.26,0,0,1-1.25,4.68.43.43,0,0,0,.24.56l.16,0a.44.44,0,0,0,.41-.27A20.32,20.32,0,0,0,82,26a19.72,19.72,0,0,0-2.37-12.47.43.43,0,0,0-.75.43A18.85,18.85,0,0,1,81.18,25.91Z"/><path d="M84.3,26.85a23.84,23.84,0,0,1-1.56,5.85.43.43,0,0,0,.24.56.45.45,0,0,0,.16,0,.43.43,0,0,0,.4-.27A24.87,24.87,0,0,0,85.16,27,24.4,24.4,0,0,0,82.22,11.5a.45.45,0,0,0-.59-.16.44.44,0,0,0-.16.6A23.52,23.52,0,0,1,84.3,26.85Z"/><path d="M49,17.56a24,24,0,0,1,2.12-5.67.43.43,0,0,0-.18-.58.44.44,0,0,0-.59.18,25.14,25.14,0,0,0-2.2,5.87A24.39,24.39,0,0,0,49.55,33a.42.42,0,0,0,.39.25.39.39,0,0,0,.18,0,.42.42,0,0,0,.21-.57A23.56,23.56,0,0,1,49,17.56Z"/><path d="M115.27,35a.39.39,0,0,0,.33-.16,2.4,2.4,0,0,1,1.89-.63.43.43,0,0,0,.54-.29.42.42,0,0,0-.29-.53,3.11,3.11,0,0,0-2.79.9.42.42,0,0,0,0,.6A.45.45,0,0,0,115.27,35Z"/><path d="M121.13,37.74c.42,1.14.33,1.49.25,1.59s-.25.1-.5.06a.43.43,0,1,0-.13.86,2.11,2.11,0,0,0,.35,0,1.17,1.17,0,0,0,1-.39c.48-.58.21-1.56-.11-2.43-.1-.28-.23-.59-.37-.92a7.4,7.4,0,0,1-.82-3.11,2.88,2.88,0,0,1,1.78-.62.42.42,0,0,0,.39-.46.43.43,0,0,0-.46-.4,3.74,3.74,0,0,0-2.34.89.28.28,0,0,0-.08.11.42.42,0,0,0-.14.24,7.3,7.3,0,0,0,.88,3.68Z"/><path d="M116.5,41.66a.44.44,0,0,0-.18.59.43.43,0,0,0,.59.17,1.5,1.5,0,0,1,1.66.24.42.42,0,0,0,.61,0,.44.44,0,0,0,0-.61A2.35,2.35,0,0,0,116.5,41.66Z"/><path d="M152.57,54.25c.2-4.38-18.93-14.71-21.11-15.87a.32.32,0,0,0-.17,0c-.12-.08-.64-.45-.87-.63,0-.27,0-.57,0-.87a4.69,4.69,0,0,0-.46-2.52c-.61-.83-1.75-2.36-5.15-2.48a27,27,0,0,0-4.58-5.55,13.06,13.06,0,0,0-3.52-2.39.43.43,0,0,0-.06-.33,3.09,3.09,0,0,0-2.29-1.27,3.63,3.63,0,0,0-2.89,1c-1.09,1.06-1.63,3.46-1.9,5.4-7.15,2-7.88,3.37-7.7,4.32a1.3,1.3,0,0,0,.73,1,2.37,2.37,0,0,0,1.08.21,16.3,16.3,0,0,0,5.61-1.68c0,.22,0,.44,0,.65a3.48,3.48,0,0,0-1.76,2.78,3.55,3.55,0,0,0,3.32,3.69l-.17,3.06c-.2,3.54-.37,6.66-.59,10.26a3.16,3.16,0,0,0-1.1,1.58c-4-.08-9-.18-11.18.88-2.65,1.29-5.23,2.61-7.51,3.78-3.55,1.82-6.62,3.4-8.35,4.07-1.06-.08-8.47-6.65-11.18-9.71a5.6,5.6,0,0,0,1.57-3.74A6.46,6.46,0,0,0,71,45.07a5.08,5.08,0,0,0-1.41-.93V41.56a2.07,2.07,0,0,0-1.28-1.92V34.09a10.8,10.8,0,0,0,8-9.35c.75-6-3.13-11.38-8.65-12.08a9.68,9.68,0,0,0-7.5,2.28A11.31,11.31,0,0,0,56.3,22.2H54.38a14,14,0,0,1,1.55-5.39.43.43,0,1,0-.76-.4,14.56,14.56,0,0,0-1.3,3.48,14,14,0,0,0-.36,2.31h-2A17.08,17.08,0,0,1,52,18.8a19.29,19.29,0,0,1,1.7-4.53.44.44,0,0,0-.77-.41,20.17,20.17,0,0,0-1.77,4.74,18,18,0,0,0-.53,4,.33.33,0,0,0,0,.17,1.41,1.41,0,0,0-.29.85,1.44,1.44,0,0,0,.29.87.77.77,0,0,0,0,.15,19.26,19.26,0,0,0,1.66,6.64.44.44,0,0,0,.4.25.39.39,0,0,0,.18,0,.43.43,0,0,0,.21-.57,18,18,0,0,1-1.54-5.94h2a14.33,14.33,0,0,0,1.15,4.24.44.44,0,0,0,.4.25.39.39,0,0,0,.18,0,.43.43,0,0,0,.21-.57A13.23,13.23,0,0,1,54.43,25h1.85A10.34,10.34,0,0,0,65,34.29c.29,0,.59,0,.88.05v5.3a2.07,2.07,0,0,0-1.3,1.92v.93a2.72,2.72,0,0,0-2.48.85,2.16,2.16,0,0,0,0,2.33,2.36,2.36,0,0,0,.08,2.89,3.56,3.56,0,0,0,0,3.21,4.16,4.16,0,0,0,2.44,2.16v3.52a2.07,2.07,0,0,0,2.07,2.07h.94l.2,0C72.1,66.16,79.3,74.58,80.84,74.15c7.28-2,14.75-4.91,17-5.79-1.12,13.44-2.41,33.26-2.57,39.55C90.31,110,77,116.36,75.6,120.32c-2.67,7.51,1.17,24.69,6.39,38l-.14,0-.32.1-.72.25-1.74.68-.09,0-1.1.42a32.82,32.82,0,0,1-3.34,1.05l-.28.07-.8.17-1.19.19A4.82,4.82,0,0,0,68.86,163a3.53,3.53,0,0,0-.58,2.7.45.45,0,0,0,0,.16v1.46H54.16v21.31h40.5a.44.44,0,0,0,.44-.43V167.34H92.26v-1.46s0,0,0,0v-7.17h0a.31.31,0,0,0,0-.19l0-.26c-1.28-6.86-2-24.93,0-26.68,4.23-3.6,11.94-6,18.77-5.93,1.9,19,7.59,37.41,12.82,53.25l-.14,0-.56.19-.61.22-.17.07-.73.29c-1.06.41-2.37.92-3.74,1.35l-1,.28-.59.15-.55.13-.81.15-.2,0a5.77,5.77,0,0,1-.58.08,7.5,7.5,0,0,0-1.2.25l-.26.09-.18.06-.25.11-.33.17-.32.19-.22.16-.21.18a3.45,3.45,0,0,0-1,3.18.47.47,0,0,0,0,.17v1.9a.43.43,0,0,0,.43.43h23.15a.43.43,0,0,0,.43-.43v-1.9a.08.08,0,0,0,0,0v-7.28h0v-.2c0-.89,0-4.06.08-8.86.12-11.47.33-30.6.26-48.65l.56,0a14.77,14.77,0,0,0,2.46-.21.43.43,0,0,0,.36-.5.44.44,0,0,0-.5-.35,13.4,13.4,0,0,1-2.88.16c0-4.11-.06-8.13-.11-12a.39.39,0,0,0,.25-.12.47.47,0,0,0,.12-.32c-.05-.83-.49-36.46-.53-39.95C136.94,66.77,152.36,58.82,152.57,54.25ZM109.29,31.52c-2.41,1.16-5.37,2.15-6.33,1.67a.46.46,0,0,1-.27-.36c0-.21.13-1.32,6.75-3.23Q109.34,30.55,109.29,31.52Zm-57.7-7.44c-.2,0-.38-.23-.38-.5a.56.56,0,0,1,.14-.38.31.31,0,0,1,.24-.13H64.85c.2,0,.38.23.38.51a.57.57,0,0,1-.14.38.31.31,0,0,1-.24.12Zm13.47,9.35A9.46,9.46,0,0,1,57.15,25h7.7a1.19,1.19,0,0,0,.9-.43,1.43,1.43,0,0,0,.34-.94,1.3,1.3,0,0,0-1.24-1.37H57.17a10.45,10.45,0,0,1,3.58-6.61,8.81,8.81,0,0,1,6.83-2.08c5,.64,8.6,5.63,7.9,11.12a9.91,9.91,0,0,1-7.67,8.69A8.75,8.75,0,0,1,65.06,33.43Zm2.41,6H66.7V34.33c.25,0,.51,0,.76-.07ZM65.4,41.56a1.21,1.21,0,0,1,1.2-1.21h.94a1.21,1.21,0,0,1,1.21,1.21v2.25a3.65,3.65,0,0,0-1.56-.18,4.25,4.25,0,0,0-1.79-1Zm-2.65,2.29a2.14,2.14,0,0,1,2.08-.47,3.58,3.58,0,0,1,1.5.66,1.06,1.06,0,0,0-.29.43A1.11,1.11,0,0,0,66,45a3.9,3.9,0,0,0-3.28.1A1.31,1.31,0,0,1,62.75,43.85Zm.09,2.22a3,3,0,0,1,3.54.14.89.89,0,0,1,.37.64c0,.12-.22.24-.52.32a3.13,3.13,0,0,0-3.51.58l0,0A1.32,1.32,0,0,1,62.84,46.07Zm2.06,2.84a1,1,0,0,0-.9.92c0,.37.33.6.53.72V53a3.3,3.3,0,0,1-1.66-1.59A2.66,2.66,0,0,1,63,48.76a2.37,2.37,0,0,1,.32-.39A2.25,2.25,0,0,1,66,48a2.44,2.44,0,0,1,.4.32.65.65,0,0,1,.13.61.31.31,0,0,1-.16.2A2.75,2.75,0,0,0,64.9,48.91Zm3.87,8.54a1.22,1.22,0,0,1-.89,1.17,1.12,1.12,0,0,1-.32,0h-.94a1.21,1.21,0,0,1-1.2-1.21l0-7.68a1.75,1.75,0,0,1,.56.14.91.91,0,0,0,1.16-.31,1.53,1.53,0,0,0-.1-1.84,1.13,1.13,0,0,0,.57-.73s0,0,0-.05c.34.25.74.51,1.18.78Zm1.09-4.31a1.67,1.67,0,0,1-.23.12V47.45h0l.1-.15-.26-.16a10,10,0,0,1-2.21-1.64c-.28-.31-.41-.58-.36-.73a.41.41,0,0,1,.28-.25,3.18,3.18,0,0,1,1.89.29,4.74,4.74,0,0,1,1.4.87,5.8,5.8,0,0,1,1,4A4.63,4.63,0,0,1,69.86,53.14ZM125.6,33.73a2.53,2.53,0,0,1,1.19,3.79,2.82,2.82,0,0,1-1.42,1.07A12.36,12.36,0,0,0,125.6,33.73Zm-.46,5.83.09,0A3.64,3.64,0,0,0,127.5,38a3.41,3.41,0,0,0,.51-2.65,3.47,3.47,0,0,0-2.58-2.59,4.76,4.76,0,0,1,3.84,2.14,4.89,4.89,0,0,1,.25,2c0,.38,0,.76,0,1.1s.55.64,1,.92l-2.4,2.61a1.73,1.73,0,0,0-.8-.42h-.22a3.83,3.83,0,0,1-2.23-.63C125,40.15,125.07,39.86,125.14,39.56Zm-5.32-12.42a25.66,25.66,0,0,1,4.34,5.36c.13.23.25.44.34.63s0,.1.08.16c.48,1.17.41,3.23-.2,5.79-.12.5-.26,1-.41,1.49-.8,2.66-1.76,4.44-2.14,4.69a3,3,0,0,1-1.92.42,6.17,6.17,0,0,1-4.09-2.11.44.44,0,0,0-.69.53,7,7,0,0,0,4.36,2.4c.11.66.18,1.36.25,2.1a24.46,24.46,0,0,0,.63,3.95,26.65,26.65,0,0,0-9.44.06c.22-3.44.38-6.48.57-9.89l.17-3.15a3.43,3.43,0,0,0,.89-6.6,38.12,38.12,0,0,1,.19-4.25c2.59-.64,5-1.14,6.28-1.41Zm-.8-.71-.17,0c-1.25.26-3.5.73-6,1.34.35-2.11,1-3.19,2.16-3.47A8.48,8.48,0,0,1,119,26.43Zm-8.91,7c0-.5,0-1,0-1.56,0-.93.11-1.86.23-2.75.32-2.58.94-4.48,1.68-5.21a2.81,2.81,0,0,1,2.21-.72,2.72,2.72,0,0,1,.89.26l-.18,0c-1.71.35-2.65,1.85-3,4.86a39.34,39.34,0,0,0-.22,4.94c0,.43,0,.88,0,1.33a1.43,1.43,0,0,0-.58-.16,1.56,1.56,0,0,0-1,.27C110.13,34.28,110.11,33.86,110.11,33.41Zm.18,2.56a.74.74,0,0,1,.74-.69h0a.72.72,0,0,1,.67.58.71.71,0,0,1-.23.71.74.74,0,0,1-.53.19A.76.76,0,0,1,110.29,36ZM91.88,168.2h2.35v19.59H55V168.2H91.88Zm-.49-.86H69.11v-1H77l14.44.07Zm41.87,20.54H111v-1h7.88l14.41.07Zm.07-17.86c-.05,4.36-.08,7.36-.08,8.55L132,179a13.86,13.86,0,0,1-4.44.51l-.24,0-.48-.05-.23,0c-.32-.05-.63-.11-1-.18s-.64-.16-1-.25c-5.29-16-11.07-34.64-12.93-53.81-.28-2.85-.46-5.68-.55-8.42a.45.45,0,0,0-.45-.42.44.44,0,0,0-.42.45c.09,2.61.27,5.31.52,8-7.14-.08-14.83,2.37-19.25,6.15-2.62,2.23-1.36,21.16-.34,27.12l-.21.06-.36.11c-.27.08-.54.16-.8.22l-.23.06-.65.14-.93.15-.59.06-.42,0h-.15a10.91,10.91,0,0,1-1.4,0c-.23,0-.47,0-.71-.08l-.23,0-.23,0c-.16,0-.32-.06-.47-.09l-.48-.11-.23-.06-.27-.08c-5.1-12.89-9.1-30.42-6.51-37.71,1.11-3.12,12.23-9,19.4-12l37.68,0c0,3.8.08,7.8.1,11.87-3.83-.43-6.38-2.56-7-5.92a.44.44,0,0,0-.51-.35.43.43,0,0,0-.34.51c.71,3.79,3.58,6.18,7.87,6.64C133.67,139.37,133.46,158.54,133.33,170ZM131.51,54a9.28,9.28,0,0,1-2.45.34l-6.5,0A4.45,4.45,0,0,0,121.42,53a18.65,18.65,0,0,1-.82-4.5c-.06-.66-.14-1.32-.23-2a3.58,3.58,0,0,0,1.94-.57c.74-.5,1.69-2.66,2.33-4.65a5.27,5.27,0,0,0,2.43.6h.21a1.44,1.44,0,0,1,.39.29.45.45,0,0,0,.13.28L138,52.22Z"/><path d="M61,179.54a4.32,4.32,0,1,0-4.31-4.32A4.31,4.31,0,0,0,61,179.54Zm0-7.77a3.46,3.46,0,1,1-3.45,3.45A3.46,3.46,0,0,1,61,171.77Z"/><path d="M73.13,179.54a4.32,4.32,0,1,0-4.33-4.32A4.31,4.31,0,0,0,73.13,179.54Zm0-7.77a3.46,3.46,0,1,1-3.46,3.45A3.46,3.46,0,0,1,73.13,171.77Z"/><path d="M59.11,181.94a2.37,2.37,0,1,0,2.37,2.37A2.38,2.38,0,0,0,59.11,181.94Zm0,3.88a1.5,1.5,0,0,1-.43-2.94v1a.43.43,0,1,0,.86,0v-1a1.5,1.5,0,0,1-.43,2.94Z"/><path d="M64.76,181.94a2.37,2.37,0,1,0,2.37,2.37A2.38,2.38,0,0,0,64.76,181.94Zm0,3.88a1.51,1.51,0,0,1-1.5-1.51,1.6,1.6,0,0,1,.13-.62l1,.74a.43.43,0,0,0,.26.09.46.46,0,0,0,.35-.17.44.44,0,0,0-.08-.61L64,183a1.56,1.56,0,0,1,.8-.23,1.51,1.51,0,0,1,0,3Z"/><path d="M70.33,181.94a2.37,2.37,0,1,0,2.37,2.37A2.38,2.38,0,0,0,70.33,181.94Zm1.37,3-.9-.7a.43.43,0,1,0-.53.68l.87.67a1.41,1.41,0,0,1-.81.25,1.51,1.51,0,1,1,1.5-1.51A1.39,1.39,0,0,1,71.7,184.92Z"/><path d="M86,178.36a.75.75,0,0,0,.57.26.78.78,0,0,0,.55-.24v.05H92.5V172H80.7v6.42H86Zm-4.48-.79v-4.69H91.63v4.69h-.14a4.93,4.93,0,0,0-9.8,0Zm4.33,0H82.55a4.07,4.07,0,0,1,8.07,0H87.4L89,176.12a.43.43,0,0,0,0-.61.44.44,0,0,0-.61,0l-1.82,1.61h0A.77.77,0,0,0,85.89,177.57Z"/><path d="M88.13,186.83h4.25v-5H88.13Zm.87-4.17h2.52v1.14H89Zm0,2h2.52V186H89Z"/></svg>