<svg id="Layer_1" data-name="Layer 1" xmlns="http://www.w3.org/2000/svg" viewBox="0 0 200 200"><defs><style>.cls-1{fill:none;}.cls-2{fill:#fff;}</style></defs><title>Larry_</title><path class="cls-1" d="M136,28.76c-1.41.92-2.11,1.38-2.48,1.6a2.82,2.82,0,0,1,.16.92,2.74,2.74,0,0,1-5.47.19.4.4,0,0,1,0-.15c0-.19-.28-.24-.45-.17a6.38,6.38,0,0,1-.13,1.08c0,.14-.06.28-.08.41s-.2.9-.42,1.83l-.2.85a6.41,6.41,0,0,0,1,.2l.11,0a.43.43,0,0,1-.07.86h-.18c-1.06-.17-1.46-.31-1.64-.57a.61.61,0,0,1-.09-.39c0-.14.14-.62.27-1.16.06-.22.11-.47.17-.7a2.71,2.71,0,0,1-1.58.51,2.6,2.6,0,0,1-.56-.06c.54,4.07,1.77,6.35,3.66,6.73a5.76,5.76,0,0,0,5.61-2.88.43.43,0,0,1,.77.37,6.5,6.5,0,0,1-3.62,3,32.37,32.37,0,0,1-1.62,6.21.42.42,0,0,1-.42.28.47.47,0,0,1-.26-.11,1.22,1.22,0,0,0-.76.55,6.86,6.86,0,0,0-.91,3.5,27.62,27.62,0,0,1,4.28.06l.27,0a3.66,3.66,0,0,1,1.92.51c.18.13,1.41,1.2,3.05,2.66l2.48,0c.13-1.84-.23-6.13-1.35-6.77a.51.51,0,0,1-.21,0,.43.43,0,0,1-.25-.39c0-1.66,0-3.27.05-4.85a109.12,109.12,0,0,0-.21-11.13,2.55,2.55,0,0,1-.44-.2.43.43,0,0,1-.15-.59.44.44,0,0,1,.6-.15,1.56,1.56,0,0,0,2-.18,3.07,3.07,0,0,0-.23-2.49c-.26-.53-.59-.85-.91-.86s-.92.42-1.42,1.24a.43.43,0,0,1-.18.15A0,0,0,0,1,136,28.76ZM132.17,37a2.31,2.31,0,0,1-1.3,1.49,2.09,2.09,0,0,1-.72.14,1.65,1.65,0,0,1-.84-.22.42.42,0,0,1-.16-.58.44.44,0,0,1,.59-.17.89.89,0,0,0,.8,0,1.4,1.4,0,0,0,.79-.93.44.44,0,0,1,.54-.3A.45.45,0,0,1,132.17,37Zm5.26-8.59a.43.43,0,0,1,.83.23,2,2,0,0,0,.13,1.36.43.43,0,0,1-.19.58.35.35,0,0,1-.2.05.42.42,0,0,1-.38-.23A2.86,2.86,0,0,1,137.43,28.37Z"/><path class="cls-1" d="M122.58,133.53c-3,2.21-8.06,5.65-13.27,9.15L110,145a246,246,0,0,1,6.4,27.12l8.42,0c-.14-3.74-.28-7.15-.39-10.23C123.76,145.62,123.46,137.92,122.58,133.53Z"/><path class="cls-1" d="M127,124.19a7.86,7.86,0,0,0-5-5.82c-.31-.12-.63-.23-1-.33L120,124.12a3.59,3.59,0,0,1-3.25,3l-13.46.85c-5.26,5.28-17.07,17.74-19,19.81l5.93,6.36c3.67-2.14,31.33-20.47,34.49-23.32A7.05,7.05,0,0,0,127,124.19Z"/><path class="cls-1" d="M137.26,55.83c1.47,1.32,3.15,2.84,4.69,4.28,0-2.18,0-3.56,0-4.21Z"/><path class="cls-1" d="M137.47,26.49a2.62,2.62,0,0,0-.3-2c-.11-.08-.27,0-.48.1.13.71.24,1.41.33,2.05A1.48,1.48,0,0,1,137.47,26.49Z"/><path class="cls-1" d="M78.08,153.23l-.7.61L92,170.65l.77-.68a1,1,0,0,1-.17-.13L78.22,153.46A1.09,1.09,0,0,1,78.08,153.23Z"/><path class="cls-1" d="M138.53,47.46l-.38.26c1.4,1.39,1.54,5.6,1.46,7.28l2.16,0c.14-1.33.26-6-1.79-8.16A14.4,14.4,0,0,0,138.53,47.46Z"/><path class="cls-1" d="M76.15,123.5l9,3.57a3.9,3.9,0,0,1-.44-2.52l.21-1.37h0l-.27,0a1.62,1.62,0,0,1-.48-.17,1.53,1.53,0,0,1-1.21.54,2.76,2.76,0,0,1-.6-.08l0,0a1.33,1.33,0,0,1-.87.36,1.28,1.28,0,0,1-.3,0c-.63-.2-1-.94-1.25-1.67l-3.51.15a.63.63,0,0,0-.22,1.21Z"/><path class="cls-1" d="M76.66,40.32a3.28,3.28,0,0,0-3.36,1.3,8.07,8.07,0,0,0-1.56,3.49C74.63,43.7,77,42.6,79,41.75A5.64,5.64,0,0,0,76.66,40.32Z"/><path class="cls-1" d="M78.59,63.34l-.21,0A6.84,6.84,0,0,1,73,59.79a.43.43,0,0,1,.2-.57.42.42,0,0,1,.58.2c.92,1.89,3.7,3.64,5.53,2.91,1.08-.44,6-7.92,5.15-11.31a24.27,24.27,0,0,0-4.75-8.61c-2,.86-4.58,2-7.71,3.54l-.48.23c-.15.82-.27,1.64-.37,2.36v.09a6.94,6.94,0,0,1,.72.89.43.43,0,1,1-.71.49c-.62-.92-1.21-1.37-1.75-1.33s-.9.48-1.2,1.18a2.77,2.77,0,0,0-.13,2.35,2,2,0,0,0,2.39.21.44.44,0,0,1,.59.16.43.43,0,0,1-.17.59l-.31.15a101.89,101.89,0,0,0-.19,16.11,26.18,26.18,0,0,1,9.47,0A24.13,24.13,0,0,1,79,65.37C78.84,64.66,78.72,64,78.59,63.34Zm3-9.71a.42.42,0,0,1-.42-.42.42.42,0,0,1,.84,0A.42.42,0,0,1,81.61,53.63Zm-2.9,3.62a.42.42,0,0,1,.54-.28c.28.08.49.09.58,0s.19-.32,0-1.21c0-.24-.1-.5-.16-.77a5.22,5.22,0,0,1-.07-3.22s0,0,0,0l0-.06.06-.06,0,0c.08,0,1.87-1.13,3,.08a.43.43,0,0,1,0,.61.41.41,0,0,1-.29.11.41.41,0,0,1-.32-.14c-.51-.55-1.43-.16-1.76,0a5.15,5.15,0,0,0,.16,2.55c.07.29.13.56.17.81.13.74.19,1.56-.33,2a1,1,0,0,1-.74.26,2.07,2.07,0,0,1-.66-.11A.43.43,0,0,1,78.71,57.25ZM75,51.59a3.05,3.05,0,0,1,2.87,0,.43.43,0,0,1-.44.75,2.15,2.15,0,0,0-2,0,.41.41,0,0,1-.21,0,.43.43,0,0,1-.21-.81ZM77,53.21a.41.41,0,0,1-.41.42.42.42,0,0,1-.42-.42.41.41,0,0,1,.42-.41A.41.41,0,0,1,77,53.21Zm-2,4.47a.44.44,0,0,1,.49.37.86.86,0,0,0,.59.72,1.57,1.57,0,0,0,1.21,0,.43.43,0,0,1,.61,0,.44.44,0,0,1,0,.61,1.59,1.59,0,0,1-1.17.39,2.64,2.64,0,0,1-.81-.12,1.77,1.77,0,0,1-1.32-1.48A.43.43,0,0,1,74.91,57.68Zm-4.42-6.79a2.89,2.89,0,0,1-1.85.74h0a.44.44,0,0,1,0-.87h0a2,2,0,0,0,1.26-.51.44.44,0,0,1,.61,0A.45.45,0,0,1,70.49,50.89Z"/><path class="cls-1" d="M88.28,40.79a.46.46,0,0,0,0-.49c-.16-.32-1.23-.9-7.73,1.75a17.25,17.25,0,0,1,1.1,1.39C82.87,43.23,87.55,42.11,88.28,40.79Z"/><path class="cls-1" d="M88.4,128.08l28.25-1.78a2.74,2.74,0,0,0,2.46-2.33l3.14-17.62a3,3,0,0,0-.68-2.54,2.59,2.59,0,0,0-2-.92h-.09l-28.54,1a2.74,2.74,0,0,0-2.54,2.4l-2.86,18.37a3,3,0,0,0,.74,2.52A2.66,2.66,0,0,0,88.4,128.08Z"/><path class="cls-1" d="M90.71,154.86c.08.23.17.57.29,1,.56,2,1.61,5.86,3.41,8.5,1.48,2.17,1.38,4.26-.26,5.59a1.13,1.13,0,0,1-.35.2.44.44,0,0,1-.12.18l-1.43,1.25a.43.43,0,0,1-.29.1.41.41,0,0,1-.32-.15l-15.2-17.46a.44.44,0,0,1,0-.61l1.43-1.25a.43.43,0,0,1,.22-.09,1,1,0,0,1,.18-.24l4.74-4.1.24-.26c.06-.07,2.82-3,6.35-6.68H76.28l-5.18,0-.15,0H57.1v41h49.43V144.55c-7.11,4.74-13.93,9.18-15.86,10.32Z"/><path class="cls-1" d="M76.81,140l13.72,0c3.87-4.06,8.43-8.81,11.43-11.84l-13.51.85h-.21a3.37,3.37,0,0,1-1.25-.26v0L75.83,124.3a1.55,1.55,0,0,1-.59-.45l-19.43,0a18.42,18.42,0,0,0,3.42,9.69,7.11,7.11,0,0,0,4.55-6.87.44.44,0,0,1,.42-.45.41.41,0,0,1,.44.42,7.88,7.88,0,0,1-4.86,7.61A17.85,17.85,0,0,0,66.51,139,17.63,17.63,0,0,0,71,140Z"/><path class="cls-1" d="M74.53,117.42h0l-.05.34,1,.2h0c.32.08.65.14,1,.19,1.43.24,3.06.52,3.86,2.47a5.66,5.66,0,0,1,.19.58c.17.54.51,1.66.89,1.78.11,0,.27-.07.38-.16s.35-.55.1-2.11a9.41,9.41,0,0,0-1.09-3.07.43.43,0,0,1,.12-.6.43.43,0,0,1,.6.11,10.27,10.27,0,0,1,1.22,3.42,5.86,5.86,0,0,1,.06,2.08.78.78,0,0,0,.77-.25c.85-1.08.11-4.58-.43-5.56a.43.43,0,0,1,.17-.59.44.44,0,0,1,.59.17c.47.86,1.31,4,.7,5.84a.85.85,0,0,0,.45,0,1,1,0,0,1,.08-.14l.74-4.79c-.22-1.21-.67-2.31-1.93-2.68-1.78-.53-4.14-1.33-6.71-2.26C75.75,113.37,74.91,114.93,74.53,117.42Z"/><path class="cls-1" d="M138,24.11a3.73,3.73,0,0,1,.31,2.58,2.57,2.57,0,0,1,1,1.13,4.37,4.37,0,0,1,.32.86l0,0a1.55,1.55,0,0,0,1.54.42,1.58,1.58,0,0,0,1.27-1.29.42.42,0,0,1,.5-.34.43.43,0,0,1,.35.5,2.44,2.44,0,0,1-1.94,2,4.4,4.4,0,0,1-.51.05,4.27,4.27,0,0,0,.44,3.57,4.21,4.21,0,0,0,3,1.33,5.55,5.55,0,0,1-.95-2.24,3.71,3.71,0,0,1,1.81-4.22,5.3,5.3,0,0,0,3-4.95,4.41,4.41,0,0,0-3-3.93c-2.15-.83-4-.72-5.36.32A5,5,0,0,0,138,24.06S138,24.09,138,24.11Z"/><path class="cls-1" d="M122.39,54.74h0a16.28,16.28,0,0,1,.69-6.66A5.85,5.85,0,0,1,125,45.42l-.59,0c-5.85,0-7.05,5.84-7.75,9.39l.12,1.74c.09,1.24.17,2.4.23,3.24a1.61,1.61,0,0,1-1.31,1.82l-3.45.23c0,.09,0,.19,0,.3-.13,2.11-.51,8.54,2.45,9,2.43.31,5.75-9.64,7.29-16A.42.42,0,0,1,122.39,54.74Z"/><path class="cls-1" d="M116.14,59.82c-.06-.83-.15-2-.23-3.24-.19-2.71-.4-5.78-.51-6.69q0-.14,0-.3c-.05-.69-.07-1.11-1.16-1.08-1.39,0-2.62,0-4.08,0a.81.81,0,0,0-.48.17.7.7,0,0,0-.12.53c0,.47.12,1.07.2,1.67,0,.44.1.88.15,1.28l1.11.12a11.41,11.41,0,0,1,2.83.44,1.24,1.24,0,0,1,.61,1.38,1.3,1.3,0,0,1-.14.32,1.51,1.51,0,0,1,.65,1.25,1.16,1.16,0,0,1-.47,1,1.39,1.39,0,0,1,.22.72,1.11,1.11,0,0,1-.8,1.09,23.07,23.07,0,0,1-3.47.24l.17,1.59a.68.68,0,0,0,.23.51.83.83,0,0,0,.59.2l4.22-.28C115.93,60.7,116.17,60.28,116.14,59.82Z"/><path class="cls-1" d="M130.32,57.7a2,2,0,0,0-.71-.05,1.63,1.63,0,0,1,.65.81,1.05,1.05,0,0,1-.09.82,1.12,1.12,0,0,1-.73.51,2,2,0,0,1-1.66-.38,3.91,3.91,0,0,1-1.47-2.18,1.82,1.82,0,0,1,0-.33,2.45,2.45,0,0,1-.5-1.24l-3,0c0,2.23-.44,10.86-2.43,17.43a26.35,26.35,0,0,0,4.9.46,26.65,26.65,0,0,0,15.39-4.88l-1-1.32C137.35,64.42,133.13,59.06,130.32,57.7Z"/><path class="cls-1" d="M108.94,54.29c.16,0,.83,0,1.49,0,1.18,0,2-.06,2.64-.05h0c.28,0,.47-.11.52-.3a.37.37,0,0,0-.18-.41,18.76,18.76,0,0,0-2.51-.34L109.54,53a1.19,1.19,0,0,1-.87-.4.89.89,0,0,1-.08-.94,1.15,1.15,0,0,1,.31-.38l0-.29c0-.12,0-.24,0-.36a2.19,2.19,0,0,0-1.15.65,1.88,1.88,0,0,0-.55,1.43C107.22,54.1,108.93,54.29,108.94,54.29Z"/><path class="cls-1" d="M113.82,57.38a.47.47,0,0,0-.24-.42v0c-.79.08-2.25.12-3.4.12l-1.14,0a3.38,3.38,0,0,1-1.42-.36,1.25,1.25,0,0,0,.2.55,1.88,1.88,0,0,0,1.48.61,37.46,37.46,0,0,0,4.3-.19Q113.84,57.58,113.82,57.38Z"/><path class="cls-1" d="M128,46.87a3.41,3.41,0,0,0-1.76-1.18c-3.32,1.39-3.11,7.66-2.94,9.06l2.68,0a1.54,1.54,0,0,1,.45-.53h0a15,15,0,0,1-1.5,0,1.14,1.14,0,0,1-1.17-1.09,1.35,1.35,0,0,1,1.23-1.34l1-.09A7.6,7.6,0,0,1,127,47.7,2.17,2.17,0,0,1,128,46.87Z"/><path class="cls-1" d="M132.72,53a3.08,3.08,0,0,0-1.48-.35l-.29,0a28,28,0,0,0-5.91.1.49.49,0,0,0-.47.46c0,.18.2.23.37.24a11,11,0,0,0,1.4,0l1,0H128a19.88,19.88,0,0,1,2.58.1.44.44,0,0,1,.36.49v0a.43.43,0,0,1-.49.37,6.57,6.57,0,0,0-3.13.39c-.54.22-.59.5-.61.59a1,1,0,0,0,.07.54s0,0,0,0c.64-.65,1.86-.9,3.63-.77a.43.43,0,0,1,.4.46.42.42,0,0,1-.46.4,4.2,4.2,0,0,0-3,.51.84.84,0,0,0-.22.72,3.35,3.35,0,0,0,1.12,1.55,1.13,1.13,0,0,0,.94.24.27.27,0,0,0,.19-.11.18.18,0,0,0,0-.15,1.22,1.22,0,0,0-.36-.37,2.66,2.66,0,0,1-.31-.26.89.89,0,0,1-.32-.61.6.6,0,0,1,.2-.44,3,3,0,0,1,2.06-.09c3,1.45,7.29,6.91,9.6,9.85.44.56.8,1,1.08,1.35a27.71,27.71,0,0,0,3.9-3.6C142.26,61.37,133.23,53.37,132.72,53Z"/><path class="cls-1" d="M149.13,48.93a5.56,5.56,0,0,0-1.3-1.31,8.08,8.08,0,0,0-7-1,6.75,6.75,0,0,1,1,1.84,16.28,16.28,0,0,1,.7,6.69.41.41,0,0,1,.2.36s0,1.75,0,5.44c1.22,1.15,2.29,2.18,3,2.95a27.15,27.15,0,0,0,3.9-6.24v-.1C150,54.64,150.19,51.25,149.13,48.93Z"/><path class="cls-1" d="M109.08,56.18a39.29,39.29,0,0,0,4.73-.13.36.36,0,0,0,.27-.37.64.64,0,0,0-.29-.54,23.66,23.66,0,0,0-3.33,0,15.09,15.09,0,0,1-1.61,0,3.37,3.37,0,0,1-1.65-.65,1.57,1.57,0,0,0,.26,1A2.1,2.1,0,0,0,109.08,56.18Z"/><path class="cls-1" d="M134.6,28.65l-.08,0a4.56,4.56,0,0,1-1.11.13,7.61,7.61,0,0,1-5.34-2.48,3.19,3.19,0,0,1-1.57,1.81,4.63,4.63,0,0,1-1.47.38,2.76,2.76,0,0,1,2.4,1.8,1,1,0,0,1,.47-.1,1.29,1.29,0,0,1,.48.1A2.76,2.76,0,0,1,131,28.49a2.7,2.7,0,0,1,2.17,1.11Z"/><path class="cls-1" d="M126.14,27.34c.67-.3.91-.86,1.26-1.63l.19-.42A.45.45,0,0,1,128,25h0a.44.44,0,0,1,.37.21,6.3,6.3,0,0,0,6,2.58,3.08,3.08,0,0,0,1.58-1l.24-.24c-.31-2.19-.76-5-2.11-6.49a4.85,4.85,0,0,0-6-1.42,9.11,9.11,0,0,0-4.86,8.71A3.55,3.55,0,0,0,126.14,27.34Z"/><ellipse class="cls-1" cx="130.95" cy="31.28" rx="1.88" ry="1.92"/><path class="cls-1" d="M124.86,33.2A1.92,1.92,0,1,0,123,31.28,1.91,1.91,0,0,0,124.86,33.2Z"/><path class="cls-1" d="M124.67,28.51a4.07,4.07,0,0,1-.72-.05v.2A2.88,2.88,0,0,1,124.67,28.51Z"/><path d="M69.9,50.25a2,2,0,0,1-1.26.51h0a.44.44,0,0,0,0,.87h0a2.89,2.89,0,0,0,1.85-.74.45.45,0,0,0,0-.62A.44.44,0,0,0,69.9,50.25Z"/><path d="M76.13,53.21a.42.42,0,0,0,.42.42.41.41,0,0,0,.41-.42.41.41,0,0,0-.41-.41A.41.41,0,0,0,76.13,53.21Z"/><path d="M81.61,52.8a.41.41,0,0,0-.42.41.42.42,0,0,0,.84,0A.41.41,0,0,0,81.61,52.8Z"/><path d="M79,57.79a2.07,2.07,0,0,0,.66.11,1,1,0,0,0,.74-.26c.52-.45.46-1.27.33-2,0-.25-.1-.52-.17-.81a5.15,5.15,0,0,1-.16-2.55c.33-.17,1.25-.56,1.76,0a.41.41,0,0,0,.32.14.41.41,0,0,0,.29-.11.43.43,0,0,0,0-.61c-1.12-1.21-2.91-.12-3-.08l0,0-.06.06,0,.06s0,0,0,0A5.22,5.22,0,0,0,79.71,55c.06.27.12.53.16.77.15.89,0,1.14,0,1.21s-.3.06-.58,0a.42.42,0,0,0-.54.28A.43.43,0,0,0,79,57.79Z"/><path d="M139,177.33a4.81,4.81,0,0,0-3.41-1.7,33.6,33.6,0,0,1-8.69-2.81c-.57-.26-.94-.42-1.2-.52-.16-3.82-.29-7.3-.41-10.45-.64-16.79-.94-24.48-1.9-28.89.85-.63,1.5-1.13,1.85-1.46a7.92,7.92,0,0,0,2.61-7.47,8.71,8.71,0,0,0-5.5-6.47c-.37-.14-.74-.26-1.11-.39l1.9-10.67a3.91,3.91,0,0,0-.88-3.26,3.5,3.5,0,0,0-2.73-1.22l-15.61.57c-3.26-14.73-7.21-24.41-9.67-27.48-1.84-2.28-10.22-3.43-12-3.65a2.75,2.75,0,0,0-1.28-1.54,19.07,19.07,0,0,1-1.13-4.69c-.11-.68-.23-1.38-.36-2.05l.18,0c1.59-.64,6.6-8.66,5.67-12.32a25.75,25.75,0,0,0-3.1-6.6c1.72-.35,5.9-1.41,6.82-3a1.32,1.32,0,0,0,0-1.34c-.47-.93-2.07-1.44-9.14,1.47a6.8,6.8,0,0,0-3.06-1.9A4.1,4.1,0,0,0,72.66,41c-1.53,1.71-2,4.68-2.32,7a1.91,1.91,0,0,0-1-.22,2.52,2.52,0,0,0-1.91,1.69,3.53,3.53,0,0,0,0,3.23,2.27,2.27,0,0,0,1.88.83l.43,0a99.87,99.87,0,0,0-.15,16.16h0a3.89,3.89,0,0,0-1.33,1.76c-3.66.72-9.91,2.29-12.57,4.91-3.77,3.71-11,23.8-7.73,33.71.42,1.27,2.67,2.47,6.6,3.74l.25,0c5.42,1.27,11.79,2.42,19,3.42.37-2.51,1.19-4.19,2.6-5.28-5.93-2.17-17.83-6.64-18.45-7.83-.48-1,.59-5.13,4.23-16.59a.43.43,0,0,1,.54-.28.42.42,0,0,1,.28.54c-1.41,4.45-4.71,14.85-4.27,15.93.54.71,8.44,4,18.77,7.71a.41.41,0,0,1,0,.78h0l-.22.15c2.57.93,4.93,1.73,6.71,2.26,1.26.37,1.71,1.47,1.93,2.68l-.74,4.79a1,1,0,0,0-.08.14.85.85,0,0,1-.45,0c.61-1.81-.23-5-.7-5.84a.44.44,0,0,0-.59-.17.43.43,0,0,0-.17.59c.54,1,1.28,4.48.43,5.56a.78.78,0,0,1-.77.25,5.86,5.86,0,0,0-.06-2.08,10.27,10.27,0,0,0-1.22-3.42.43.43,0,0,0-.6-.11.43.43,0,0,0-.12.6,9.41,9.41,0,0,1,1.09,3.07c.25,1.56,0,2-.1,2.11s-.27.19-.38.16c-.38-.12-.72-1.24-.89-1.78a5.66,5.66,0,0,0-.19-.58c-.8-2-2.43-2.23-3.86-2.47-.33-.05-.66-.11-1-.19h0l-1-.2-.07.51-.43-.06c-7.06-1-13.36-2.09-18.76-3.33-1.07,8.41-.09,14.59,3.15,19a13.24,13.24,0,0,1-3.87.77.42.42,0,0,0-.41.45.43.43,0,0,0,.43.41h0a14,14,0,0,0,4.38-.91,18.78,18.78,0,0,0,7.24,5.17c.2.08.43.16.66.23H56.66a.44.44,0,0,0-.43.44v41.87a.43.43,0,0,0,.43.43H107a.43.43,0,0,0,.43-.43V144l1.17-.78c.17.63.36,1.29.57,2a244.4,244.4,0,0,1,6.44,27.34v7.52h0a.47.47,0,0,0,0,.17v1.9a.43.43,0,0,0,.43.43h23.15a.43.43,0,0,0,.43-.43v-1.9a.57.57,0,0,0,0-.18A3.56,3.56,0,0,0,139,177.33ZM88.29,40.3a.46.46,0,0,1,0,.49c-.73,1.32-5.41,2.44-6.62,2.65a17.25,17.25,0,0,0-1.1-1.39C87.06,39.4,88.13,40,88.29,40.3Zm-15,1.32a3.28,3.28,0,0,1,3.36-1.3A5.64,5.64,0,0,1,79,41.75c-2,.85-4.41,2-7.3,3.36A8.07,8.07,0,0,1,73.3,41.62ZM70.37,69.43a101.89,101.89,0,0,1,.19-16.11l.31-.15a.43.43,0,0,0,.17-.59.44.44,0,0,0-.59-.16,2,2,0,0,1-2.39-.21,2.77,2.77,0,0,1,.13-2.35c.3-.7.75-1.14,1.2-1.18s1.13.41,1.75,1.33a.43.43,0,1,0,.71-.49,6.94,6.94,0,0,0-.72-.89v-.09c.1-.72.22-1.54.37-2.36L72,46c3.13-1.53,5.66-2.68,7.71-3.54A24.27,24.27,0,0,1,84.45,51c.86,3.39-4.07,10.87-5.15,11.31-1.83.73-4.61-1-5.53-2.91a.42.42,0,0,0-.58-.2.43.43,0,0,0-.2.57,6.84,6.84,0,0,0,5.39,3.57l.21,0c.13.65.25,1.32.36,2a24.13,24.13,0,0,0,.89,4.11A26.18,26.18,0,0,0,70.37,69.43ZM90.43,86.84l.11.42c.51,2,1.17,4.43,1.81,6.75,1,3.61,2,7,2.18,8.51l.06.53-.85,0-.07-.43c-.22-1.43-1.16-4.82-2.15-8.41-.64-2.32-1.31-4.73-1.82-6.77l-.11-.41Zm-4.85,37.85,2.86-18.37a2.74,2.74,0,0,1,2.54-2.4l28.54-1h.09a2.59,2.59,0,0,1,2,.92,3,3,0,0,1,.68,2.54L119.11,124a2.74,2.74,0,0,1-2.46,2.33L88.4,128.08a2.66,2.66,0,0,1-2.08-.87A3,3,0,0,1,85.58,124.69Zm-9.81-1.88a.61.61,0,0,1,.6-.52l3.51-.15c.26.73.62,1.47,1.25,1.67a1.28,1.28,0,0,0,.3,0,1.33,1.33,0,0,0,.87-.36l0,0a2.76,2.76,0,0,0,.6.08,1.53,1.53,0,0,0,1.21-.54,1.62,1.62,0,0,0,.48.17l.27,0h0l-.21,1.37a3.9,3.9,0,0,0,.44,2.52l-9-3.57A.61.61,0,0,1,75.77,122.81ZM66.51,139a17.85,17.85,0,0,1-6.73-4.73,7.88,7.88,0,0,0,4.86-7.61.41.41,0,0,0-.44-.42.44.44,0,0,0-.42.45,7.11,7.11,0,0,1-4.55,6.87,18.42,18.42,0,0,1-3.42-9.69l19.43,0a1.55,1.55,0,0,0,.59.45L87,128.72v0a3.37,3.37,0,0,0,1.25.26h.21l13.51-.85c-3,3-7.56,7.78-11.43,11.84l-13.72,0H71A17.63,17.63,0,0,1,66.51,139Zm40,42.91H57.1v-41H71l.15,0,5.18,0H89.65c-3.53,3.7-6.29,6.61-6.35,6.68l-.24.26-4.74,4.1a1,1,0,0,0-.18.24.43.43,0,0,0-.22.09l-1.43,1.25a.44.44,0,0,0,0,.61l15.2,17.46a.41.41,0,0,0,.32.15.43.43,0,0,0,.29-.1l1.43-1.25a.44.44,0,0,0,.12-.18,1.13,1.13,0,0,0,.35-.2c1.64-1.33,1.74-3.42.26-5.59-1.8-2.64-2.85-6.45-3.41-8.5-.12-.44-.21-.78-.29-1h0c1.93-1.14,8.75-5.58,15.86-10.32Zm-13.92-12a1,1,0,0,0,.17.13l-.77.68L77.38,153.84l.7-.61a1.09,1.09,0,0,0,.14.23Zm-2.47-15.66-5.93-6.36c2-2.07,13.78-14.53,19-19.81l13.46-.85a3.59,3.59,0,0,0,3.25-3l1.09-6.08c.32.1.64.21,1,.33a7.86,7.86,0,0,1,5,5.82,7.05,7.05,0,0,1-2.33,6.67C121.47,133.71,93.81,152,90.14,154.18Zm26.22,17.92A246,246,0,0,0,110,145l-.65-2.3c5.21-3.5,10.23-6.94,13.27-9.15.88,4.39,1.18,12.09,1.81,28.36.11,3.08.25,6.49.39,10.23Z"/><path d="M75.86,59.64a2.64,2.64,0,0,0,.81.12,1.59,1.59,0,0,0,1.17-.39.44.44,0,0,0,0-.61.43.43,0,0,0-.61,0,1.57,1.57,0,0,1-1.21,0,.86.86,0,0,1-.59-.72.44.44,0,0,0-.49-.37.43.43,0,0,0-.37.48A1.77,1.77,0,0,0,75.86,59.64Z"/><path d="M138,30.59a.35.35,0,0,0,.2-.05.43.43,0,0,0,.19-.58,2,2,0,0,1-.13-1.36.43.43,0,0,0-.83-.23,2.86,2.86,0,0,0,.19,2A.42.42,0,0,0,138,30.59Z"/><path d="M131.87,36.42a.44.44,0,0,0-.54.3,1.4,1.4,0,0,1-.79.93.89.89,0,0,1-.8,0,.44.44,0,0,0-.59.17.42.42,0,0,0,.16.58,1.65,1.65,0,0,0,.84.22,2.09,2.09,0,0,0,.72-.14,2.31,2.31,0,0,0,1.3-1.49A.45.45,0,0,0,131.87,36.42Z"/><path d="M146.37,28.76a6,6,0,0,0,2.71-5.3,5.35,5.35,0,0,0-3.56-4.69c-3.09-1.2-5.07-.42-6.19.44a5.68,5.68,0,0,0-1.87,2.62q-.89-.43-1.8-.81a6.52,6.52,0,0,0-1-1.54,5.73,5.73,0,0,0-7-1.63A8.07,8.07,0,0,0,125.89,19h-.61a27.69,27.69,0,1,0,21.09,9.76Zm-6.52-8.86c1.36-1,3.21-1.15,5.36-.32a4.41,4.41,0,0,1,3,3.93,5.3,5.3,0,0,1-3,4.95,3.71,3.71,0,0,0-1.81,4.22,5.55,5.55,0,0,0,.95,2.24,4.21,4.21,0,0,1-3-1.33,4.27,4.27,0,0,1-.44-3.57,4.4,4.4,0,0,0,.51-.05,2.44,2.44,0,0,0,1.94-2,.43.43,0,0,0-.35-.5.42.42,0,0,0-.5.34,1.58,1.58,0,0,1-1.27,1.29,1.55,1.55,0,0,1-1.54-.42l0,0a4.37,4.37,0,0,0-.32-.86,2.57,2.57,0,0,0-1-1.13,3.73,3.73,0,0,0-.31-2.58s0,0,0-.05A5,5,0,0,1,139.85,19.9ZM142,60.11c-1.54-1.44-3.22-3-4.69-4.28l4.69.07C142,56.55,141.94,57.93,142,60.11ZM141.77,55l-2.16,0c.08-1.68-.06-5.89-1.46-7.28l.38-.26a14.4,14.4,0,0,1,1.45-.59C142,49,141.91,53.7,141.77,55Zm-4.6-30.58a2.62,2.62,0,0,1,.3,2,1.48,1.48,0,0,0-.45.11c-.09-.64-.2-1.34-.33-2.05C136.9,24.42,137.06,24.37,137.17,24.45Zm.46,2.9c.32,0,.65.33.91.86a3.07,3.07,0,0,1,.23,2.49,1.56,1.56,0,0,1-2,.18.44.44,0,0,0-.6.15.43.43,0,0,0,.15.59,2.55,2.55,0,0,0,.44.2A109.12,109.12,0,0,1,137,43c0,1.58-.06,3.19-.05,4.85a.43.43,0,0,0,.25.39.51.51,0,0,0,.21,0c1.12.64,1.48,4.93,1.35,6.77l-2.48,0c-1.64-1.46-2.87-2.53-3.05-2.66a3.66,3.66,0,0,0-1.92-.51l-.27,0a27.62,27.62,0,0,0-4.28-.06,6.86,6.86,0,0,1,.91-3.5,1.22,1.22,0,0,1,.76-.55.47.47,0,0,0,.26.11.42.42,0,0,0,.42-.28,32.37,32.37,0,0,0,1.62-6.21,6.5,6.5,0,0,0,3.62-3,.43.43,0,0,0-.77-.37A5.76,5.76,0,0,1,128,40.74c-1.89-.38-3.12-2.66-3.66-6.73a2.6,2.6,0,0,0,.56.06,2.71,2.71,0,0,0,1.58-.51c-.06.23-.11.48-.17.7-.13.54-.24,1-.27,1.16a.61.61,0,0,0,.09.39c.18.26.58.4,1.64.57h.18a.43.43,0,0,0,.07-.86l-.11,0a6.41,6.41,0,0,1-1-.2l.2-.85c.22-.93.39-1.6.42-1.83s0-.27.08-.41a6.38,6.38,0,0,0,.13-1.08c.17-.07.45,0,.45.17a.4.4,0,0,0,0,.15,2.74,2.74,0,0,0,5.47-.19,2.82,2.82,0,0,0-.16-.92c.37-.22,1.07-.68,2.48-1.6a0,0,0,0,0,0,0,.43.43,0,0,0,.18-.15C136.71,27.77,137.21,27.31,137.63,27.35ZM125.89,51.77l-1,.09a1.35,1.35,0,0,0-1.23,1.34,1.14,1.14,0,0,0,1.17,1.09,15,15,0,0,0,1.5,0h0a1.54,1.54,0,0,0-.45.53l-2.68,0c-.17-1.4-.38-7.67,2.94-9.06A3.41,3.41,0,0,1,128,46.87a2.17,2.17,0,0,0-1,.83A7.6,7.6,0,0,0,125.89,51.77ZM131,28.49a2.76,2.76,0,0,0-2.57,1.82,1.29,1.29,0,0,0-.48-.1,1,1,0,0,0-.47.1,2.76,2.76,0,0,0-2.4-1.8,4.63,4.63,0,0,0,1.47-.38,3.19,3.19,0,0,0,1.57-1.81,7.61,7.61,0,0,0,5.34,2.48,4.56,4.56,0,0,0,1.11-.13l.08,0-1.48,1A2.7,2.7,0,0,0,131,28.49Zm1.88,2.79A1.88,1.88,0,1,1,131,29.36,1.91,1.91,0,0,1,132.83,31.28Zm-4.77-12.64a4.85,4.85,0,0,1,6,1.42c1.35,1.5,1.8,4.3,2.11,6.49l-.24.24a3.08,3.08,0,0,1-1.58,1,6.3,6.3,0,0,1-6-2.58A.44.44,0,0,0,128,25h0a.45.45,0,0,0-.36.25l-.19.42c-.35.77-.59,1.33-1.26,1.63a3.55,3.55,0,0,1-2.94,0A9.11,9.11,0,0,1,128.06,18.64Zm-3.39,9.87a2.88,2.88,0,0,0-.72.15v-.2A4.07,4.07,0,0,0,124.67,28.51Zm.19.85A1.92,1.92,0,1,1,123,31.28,1.91,1.91,0,0,1,124.86,29.36ZM107.68,51.29a2.19,2.19,0,0,1,1.15-.65c0,.12,0,.24,0,.36l0,.29a1.15,1.15,0,0,0-.31.38.89.89,0,0,0,.08.94,1.19,1.19,0,0,0,.87.4l1.36.15a18.76,18.76,0,0,1,2.51.34.37.37,0,0,1,.18.41c0,.19-.24.3-.52.3h0c-.61,0-1.46,0-2.64.05-.66,0-1.33,0-1.49,0,0,0-1.72-.19-1.81-1.57A1.88,1.88,0,0,1,107.68,51.29Zm-.48,3.21a3.37,3.37,0,0,0,1.65.65,15.09,15.09,0,0,0,1.61,0,23.66,23.66,0,0,1,3.33,0,.64.64,0,0,1,.29.54.36.36,0,0,1-.27.37,39.29,39.29,0,0,1-4.73.13,2.1,2.1,0,0,1-1.62-.72A1.57,1.57,0,0,1,107.2,54.5Zm2.11,3.34a1.88,1.88,0,0,1-1.48-.61,1.25,1.25,0,0,1-.2-.55,3.38,3.38,0,0,0,1.42.36l1.14,0c1.15,0,2.61,0,3.4-.12v0a.47.47,0,0,1,.24.42q0,.19-.21.27A37.46,37.46,0,0,1,109.31,57.84Zm1.51,3a.68.68,0,0,1-.23-.51l-.17-1.59a23.07,23.07,0,0,0,3.47-.24,1.11,1.11,0,0,0,.8-1.09,1.39,1.39,0,0,0-.22-.72,1.16,1.16,0,0,0,.47-1,1.51,1.51,0,0,0-.65-1.25,1.3,1.3,0,0,0,.14-.32,1.24,1.24,0,0,0-.61-1.38A11.41,11.41,0,0,0,111,52.3l-1.11-.12c0-.4-.1-.84-.15-1.28-.08-.6-.15-1.2-.2-1.67a.7.7,0,0,1,.12-.53.81.81,0,0,1,.48-.17c1.46,0,2.69,0,4.08,0,1.09,0,1.11.39,1.16,1.08q0,.16,0,.3c.11.91.32,4,.51,6.69.08,1.24.17,2.41.23,3.24,0,.46-.21.88-.51.9l-4.22.28A.83.83,0,0,1,110.82,60.8Zm3.85,10.26c-3-.41-2.58-6.84-2.45-9,0-.11,0-.21,0-.3l3.45-.23A1.61,1.61,0,0,0,117,59.76c-.06-.84-.14-2-.23-3.24l-.12-1.74c.7-3.55,1.9-9.39,7.75-9.39l.59,0a5.85,5.85,0,0,0-1.87,2.66,16.28,16.28,0,0,0-.69,6.66h0a.42.42,0,0,0-.43.33C120.42,61.42,117.1,71.37,114.67,71.06Zm10.61,2.44a26.35,26.35,0,0,1-4.9-.46c2-6.57,2.41-15.2,2.43-17.43l3,0a2.45,2.45,0,0,0,.5,1.24,1.82,1.82,0,0,0,0,.33,3.91,3.91,0,0,0,1.47,2.18,2,2,0,0,0,1.66.38,1.12,1.12,0,0,0,.73-.51,1.05,1.05,0,0,0,.09-.82,1.63,1.63,0,0,0-.65-.81,2,2,0,0,1,.71.05c2.81,1.36,7,6.72,9.3,9.6l1,1.32A26.65,26.65,0,0,1,125.28,73.5Zm16.1-5.38c-.28-.33-.64-.79-1.08-1.35-2.31-2.94-6.62-8.4-9.6-9.85a3,3,0,0,0-2.06.09.6.6,0,0,0-.2.44.89.89,0,0,0,.32.61,2.66,2.66,0,0,0,.31.26,1.22,1.22,0,0,1,.36.37.18.18,0,0,1,0,.15.27.27,0,0,1-.19.11,1.13,1.13,0,0,1-.94-.24,3.35,3.35,0,0,1-1.12-1.55.84.84,0,0,1,.22-.72,4.2,4.2,0,0,1,3-.51.42.42,0,0,0,.46-.4.43.43,0,0,0-.4-.46c-1.77-.13-3,.12-3.63.77,0,0,0,0,0,0a1,1,0,0,1-.07-.54c0-.09.07-.37.61-.59a6.57,6.57,0,0,1,3.13-.39.43.43,0,0,0,.49-.37v0a.44.44,0,0,0-.36-.49,19.88,19.88,0,0,0-2.58-.1h-.63l-1,0a11,11,0,0,1-1.4,0c-.17,0-.37-.06-.37-.24a.49.49,0,0,1,.47-.46,28,28,0,0,1,5.91-.1l.29,0a3.08,3.08,0,0,1,1.48.35c.51.38,9.54,8.38,12.56,11.53A27.71,27.71,0,0,1,141.38,68.12Zm8.37-10.49a27.15,27.15,0,0,1-3.9,6.24c-.74-.77-1.81-1.8-3-2.95,0-3.69,0-5.44,0-5.44a.41.41,0,0,0-.2-.36,16.28,16.28,0,0,0-.7-6.69,6.75,6.75,0,0,0-1-1.84,8.08,8.08,0,0,1,7,1,5.56,5.56,0,0,1,1.3,1.31c1.06,2.32.83,5.71.63,8.6Z"/><path d="M75.22,52.4a.41.41,0,0,0,.21,0,2.15,2.15,0,0,1,2,0,.43.43,0,0,0,.44-.75,3.05,3.05,0,0,0-2.87,0,.43.43,0,0,0,.21.81Z"/><path class="cls-2" d="M74.53,117.42c0,.11,0,.22,0,.34h0l.05-.34Z"/></svg>